<svg xmlns="http://www.w3.org/2000/svg" width="1800" height="236" fill="none" viewBox="0 0 1800 236">
  <path fill="#0A090B" d="M91.207 90.344c-.08-.745-.414-1.324-1.005-1.739-.585-.415-1.347-.622-2.284-.622-.66 0-1.225.1-1.696.298-.472.2-.833.469-1.083.81-.25.34-.378.73-.383 1.168 0 .363.082.678.247.945.17.268.4.495.69.682.29.182.611.336.963.46.352.126.708.23 1.066.316l1.636.409c.659.153 1.293.36 1.9.622a6.656 6.656 0 0 1 1.645.989c.489.397.875.878 1.16 1.44.284.563.426 1.222.426 1.977 0 1.023-.262 1.924-.785 2.702-.522.773-1.278 1.378-2.266 1.815-.984.432-2.174.648-3.572.648-1.358 0-2.537-.21-3.537-.63-.994-.421-1.772-1.035-2.335-1.841-.556-.807-.858-1.79-.903-2.95h3.11c.046.609.234 1.114.563 1.518.33.403.759.704 1.287.903.534.199 1.13.298 1.79.298.687 0 1.29-.102 1.807-.306.523-.211.931-.5 1.227-.87a2.1 2.1 0 0 0 .452-1.312c-.006-.455-.14-.83-.4-1.125-.262-.301-.629-.551-1.1-.75a10.59 10.59 0 0 0-1.637-.546l-1.986-.511c-1.437-.37-2.573-.929-3.408-1.679-.83-.756-1.245-1.758-1.245-3.008 0-1.029.278-1.93.835-2.702.563-.773 1.327-1.372 2.293-1.799.966-.431 2.06-.647 3.281-.647 1.239 0 2.324.216 3.256.647.937.427 1.673 1.02 2.207 1.782.534.755.81 1.625.827 2.608h-3.043Zm7.162 17.565c-.42 0-.81-.034-1.168-.102a4.373 4.373 0 0 1-.844-.222l.716-2.403c.45.131.85.193 1.202.187a1.47 1.47 0 0 0 .929-.332c.273-.21.503-.563.69-1.057l.265-.707-4.748-13.364h3.273l3.017 9.886h.137l3.025-9.886h3.281l-5.241 14.676c-.244.693-.568 1.287-.972 1.781-.403.5-.897.881-1.483 1.143-.58.267-1.272.4-2.08.4Zm21.537-14.54-2.813.307a2.247 2.247 0 0 0-.417-.801 2.076 2.076 0 0 0-.784-.605c-.33-.153-.733-.23-1.211-.23-.642 0-1.181.139-1.619.417-.432.279-.645.64-.639 1.083-.006.38.133.69.418.929.289.238.767.434 1.431.588l2.233.477c1.239.267 2.159.69 2.762 1.27.608.58.914 1.338.92 2.275-.006.824-.247 1.552-.724 2.182-.472.625-1.128 1.114-1.969 1.466-.841.353-1.807.529-2.898.529-1.602 0-2.892-.336-3.869-1.006-.977-.676-1.56-1.616-1.747-2.821l3.008-.29c.137.591.426 1.037.87 1.338.443.301 1.019.452 1.73.452.733 0 1.321-.151 1.764-.452.449-.301.673-.673.673-1.116 0-.375-.145-.685-.434-.93-.285-.243-.728-.431-1.33-.562l-2.233-.468c-1.256-.262-2.185-.702-2.787-1.322-.602-.624-.9-1.414-.895-2.369-.005-.807.213-1.505.656-2.096.449-.597 1.071-1.057 1.867-1.381.801-.33 1.724-.494 2.77-.494 1.534 0 2.741.326 3.622.98.886.653 1.435 1.537 1.645 2.65Zm8.642-3.46v2.386h-7.525V89.91h7.525Zm-5.668-3.136h3.086v12.29c0 .414.062.733.187.954.131.216.301.364.512.443.21.08.443.12.698.12.194 0 .37-.015.529-.043.165-.028.29-.054.375-.077l.52 2.412a7.056 7.056 0 0 1-.708.188c-.301.068-.67.108-1.108.119-.772.023-1.468-.094-2.088-.349a3.253 3.253 0 0 1-1.474-1.211c-.358-.545-.534-1.227-.529-2.045V86.773Zm13.183 16.483c-1.312 0-2.446-.273-3.4-.818a5.55 5.55 0 0 1-2.191-2.336c-.511-1.011-.767-2.201-.767-3.57 0-1.347.256-2.53.767-3.546.517-1.023 1.239-1.818 2.165-2.387.926-.573 2.014-.86 3.264-.86.807 0 1.568.13 2.284.392a5.157 5.157 0 0 1 1.909 1.193c.557.54.995 1.227 1.313 2.062.318.83.477 1.819.477 2.966v.946h-10.73v-2.08h7.773c-.006-.59-.134-1.116-.384-1.576a2.787 2.787 0 0 0-1.048-1.1c-.443-.266-.96-.4-1.551-.4-.631 0-1.185.154-1.662.46-.477.301-.85.7-1.117 1.194a3.44 3.44 0 0 0-.4 1.61v1.816c0 .761.139 1.414.417 1.96.279.54.668.954 1.168 1.244.5.284 1.085.426 1.756.426.449 0 .855-.062 1.219-.187.363-.131.679-.321.946-.571.267-.25.468-.56.605-.93l2.88.325a4.484 4.484 0 0 1-1.039 1.994c-.506.562-1.154 1-1.944 1.312-.789.307-1.693.461-2.71.461Zm7.711-.256V89.91h2.949v2.224h.154c.272-.75.724-1.336 1.355-1.756.63-.426 1.383-.64 2.258-.64.887 0 1.634.216 2.242.648a3.39 3.39 0 0 1 1.295 1.748h.136a3.582 3.582 0 0 1 1.466-1.74c.694-.437 1.515-.655 2.463-.655 1.205 0 2.188.38 2.949 1.142.762.761 1.142 1.872 1.142 3.332V103h-3.093v-8.31c0-.812-.216-1.406-.648-1.78-.432-.382-.96-.572-1.585-.572-.745 0-1.327.233-1.747.699-.415.46-.623 1.06-.623 1.798V103h-3.025v-8.438c0-.676-.205-1.215-.614-1.619-.403-.403-.932-.605-1.585-.605-.443 0-.847.114-1.21.341a2.378 2.378 0 0 0-.87.946c-.216.403-.323.875-.323 1.415V103h-3.086Z"/>
  <path fill="#fff" d="M93.923 149.03c.175.421.007 2.015-.923 2.384-.93.37-2.118 0-2.118 0l-2.156-4.312L85 150.828V134l11.414 11.414h-4.252c.208.4 1.538 3.081 1.761 3.616Z"/>
  <path fill="#0A090B" fill-rule="evenodd" d="M86 136.414v12l3-3 2.5 5s.676.216 1 0c.324-.216.646-.65.5-1-.688-1.65-2.5-5-2.5-5H94l-8-8Z" clip-rule="evenodd"/>
  <path fill="#000" d="M116.864 149.17c-.872 0-1.62-.191-2.245-.573a3.832 3.832 0 0 1-1.437-1.586c-.334-.678-.5-1.458-.5-2.341 0-.886.17-1.668.511-2.346a3.819 3.819 0 0 1 1.443-1.591c.625-.383 1.364-.574 2.216-.574.709 0 1.336.131 1.881.392.549.258.987.623 1.312 1.097.326.469.512 1.019.557 1.647h-1.966a1.88 1.88 0 0 0-.568-1.051c-.295-.284-.691-.426-1.187-.426-.421 0-.79.114-1.108.341-.318.224-.567.546-.745.966-.174.42-.261.924-.261 1.511 0 .595.087 1.106.261 1.534.175.425.419.752.733.983.319.228.692.341 1.12.341.303 0 .574-.057.812-.17.243-.118.445-.286.608-.506.163-.22.275-.487.335-.801h1.966a3.43 3.43 0 0 1-.545 1.642 3.235 3.235 0 0 1-1.284 1.114c-.542.265-1.178.397-1.909.397Zm10.81-3.84v-5.057h2.057V149h-1.995v-1.551h-.091a2.634 2.634 0 0 1-.971 1.199c-.447.31-.998.466-1.654.466-.572 0-1.077-.127-1.517-.381a2.652 2.652 0 0 1-1.022-1.119c-.247-.493-.37-1.087-.37-1.784v-5.557h2.057v5.238c0 .553.152.993.455 1.319.303.325.7.488 1.193.488.303 0 .596-.074.88-.221.285-.148.517-.368.699-.659.186-.296.279-.665.279-1.108Zm3.992 3.67v-8.727h1.994v1.454h.091c.159-.504.432-.892.818-1.165.39-.276.835-.414 1.335-.414.114 0 .241.005.381.017.144.007.263.021.358.04v1.892a2.13 2.13 0 0 0-.415-.08 3.895 3.895 0 0 0-.54-.04c-.375 0-.712.082-1.011.245-.296.159-.528.38-.699.664-.17.284-.256.612-.256.983V149h-2.056Zm13.061-6.42-1.875.204a1.52 1.52 0 0 0-.278-.534 1.376 1.376 0 0 0-.523-.403c-.22-.103-.489-.154-.807-.154-.428 0-.788.093-1.079.279-.288.185-.43.426-.427.721a.755.755 0 0 0 .279.619c.193.16.511.29.954.393l1.489.318c.826.178 1.439.46 1.841.846.405.387.61.892.614 1.517a2.377 2.377 0 0 1-.483 1.455c-.315.417-.752.742-1.313.977-.561.235-1.204.352-1.932.352-1.068 0-1.928-.223-2.579-.67-.652-.451-1.04-1.078-1.165-1.881l2.006-.193c.091.394.284.691.579.892.296.201.68.301 1.154.301.488 0 .88-.1 1.176-.301.299-.201.449-.449.449-.744a.774.774 0 0 0-.29-.619c-.19-.163-.485-.288-.887-.375l-1.488-.313c-.837-.174-1.457-.468-1.858-.881-.402-.416-.601-.943-.597-1.579-.004-.538.142-1.004.438-1.398.299-.398.714-.704 1.244-.92.534-.22 1.15-.33 1.847-.33 1.022 0 1.827.218 2.414.653.591.436.957 1.025 1.097 1.768Zm5.51 6.59c-.852 0-1.591-.187-2.216-.562a3.822 3.822 0 0 1-1.454-1.574c-.341-.674-.511-1.462-.511-2.364 0-.901.17-1.691.511-2.369a3.811 3.811 0 0 1 1.454-1.579c.625-.375 1.364-.563 2.216-.563.853 0 1.591.188 2.216.563a3.774 3.774 0 0 1 1.449 1.579c.345.678.517 1.468.517 2.369 0 .902-.172 1.69-.517 2.364a3.785 3.785 0 0 1-1.449 1.574c-.625.375-1.363.562-2.216.562Zm.012-1.647c.462 0 .848-.127 1.159-.381.31-.258.542-.602.693-1.034.155-.432.233-.913.233-1.443 0-.534-.078-1.017-.233-1.449a2.294 2.294 0 0 0-.693-1.04c-.311-.257-.697-.386-1.159-.386-.474 0-.868.129-1.182.386-.311.258-.544.604-.699 1.04a4.37 4.37 0 0 0-.227 1.449c0 .53.076 1.011.227 1.443.155.432.388.776.699 1.034.314.254.708.381 1.182.381Zm5.736 1.477v-8.727h1.994v1.454h.091c.159-.504.432-.892.818-1.165a2.259 2.259 0 0 1 1.336-.414c.113 0 .24.005.38.017.144.007.264.021.358.04v1.892a2.114 2.114 0 0 0-.415-.08 3.88 3.88 0 0 0-.539-.04c-.375 0-.712.082-1.012.245-.295.159-.528.38-.699.664-.17.284-.255.612-.255.983V149h-2.057Zm11.063-5.693V145h-5.239v-1.693h5.239Zm4.495 5.869a3.643 3.643 0 0 1-1.495-.295 2.44 2.44 0 0 1-1.045-.887c-.254-.39-.381-.871-.381-1.443 0-.492.091-.899.273-1.221.182-.322.43-.58.744-.773a3.785 3.785 0 0 1 1.063-.438 8.579 8.579 0 0 1 1.233-.221c.511-.053.926-.101 1.244-.142.318-.046.549-.114.693-.205.148-.095.222-.24.222-.437v-.034c0-.428-.127-.76-.381-.995s-.619-.352-1.097-.352c-.503 0-.903.11-1.198.329-.292.22-.489.48-.591.779l-1.921-.273c.152-.53.402-.973.75-1.329.349-.36.775-.629 1.279-.807a4.88 4.88 0 0 1 1.67-.273c.421 0 .839.049 1.256.148.416.098.797.261 1.142.488.344.224.621.529.829.915.212.387.319.87.319 1.449V149h-1.978v-1.199h-.068c-.125.243-.301.47-.528.682a2.557 2.557 0 0 1-.847.506c-.337.125-.733.187-1.187.187Zm.534-1.511c.413 0 .77-.082 1.074-.245.303-.166.535-.386.698-.659.167-.272.25-.57.25-.892v-1.028a.973.973 0 0 1-.329.148 4.76 4.76 0 0 1-.512.119c-.189.034-.376.064-.562.091l-.483.068a3.6 3.6 0 0 0-.824.205 1.367 1.367 0 0 0-.574.397c-.14.167-.21.383-.21.648 0 .379.138.665.415.858.276.193.629.29 1.057.29Zm5.962 1.335v-8.727h1.994v1.454h.091c.159-.504.432-.892.818-1.165.39-.276.835-.414 1.335-.414.114 0 .241.005.381.017.144.007.263.021.358.04v1.892a2.114 2.114 0 0 0-.415-.08 3.883 3.883 0 0 0-.54-.04c-.375 0-.712.082-1.011.245-.295.159-.528.38-.699.664-.17.284-.255.612-.255.983V149h-2.057Zm6.163 0v-8.727h1.995v1.454h.091c.159-.504.431-.892.818-1.165.39-.276.835-.414 1.335-.414.114 0 .241.005.381.017.144.007.263.021.358.04v1.892a2.13 2.13 0 0 0-.415-.08 3.906 3.906 0 0 0-.54-.04c-.375 0-.712.082-1.011.245a1.78 1.78 0 0 0-.699.664 1.869 1.869 0 0 0-.256.983V149h-2.057Zm9.612.17c-.853 0-1.591-.187-2.216-.562a3.825 3.825 0 0 1-1.455-1.574c-.341-.674-.511-1.462-.511-2.364 0-.901.17-1.691.511-2.369a3.814 3.814 0 0 1 1.455-1.579c.625-.375 1.363-.563 2.216-.563.852 0 1.591.188 2.216.563a3.772 3.772 0 0 1 1.448 1.579c.345.678.517 1.468.517 2.369 0 .902-.172 1.69-.517 2.364a3.783 3.783 0 0 1-1.448 1.574c-.625.375-1.364.562-2.216.562Zm.011-1.647c.462 0 .848-.127 1.159-.381.311-.258.542-.602.693-1.034.156-.432.233-.913.233-1.443 0-.534-.077-1.017-.233-1.449-.151-.436-.382-.782-.693-1.04-.311-.257-.697-.386-1.159-.386-.473 0-.867.129-1.182.386-.31.258-.543.604-.699 1.04a4.37 4.37 0 0 0-.227 1.449c0 .53.076 1.011.227 1.443.156.432.389.776.699 1.034.315.254.709.381 1.182.381Zm7.287 1.477-2.466-8.727h2.097l1.534 6.136h.08l1.568-6.136h2.074l1.568 6.102h.085l1.511-6.102h2.103L208.794 149h-2.142l-1.636-5.898h-.12L203.26 149h-2.148Z"/>
  <g filter="url(#a)">
    <path fill="#fff" d="M484.77 147.28c-.28-.36-.63-1.09-1.24-2-.35-.5-1.21-1.45-1.47-1.94a1.26 1.26 0 0 1-.15-1 1.32 1.32 0 0 1 1.43-1c.511.103.98.353 1.35.72.258.243.496.507.71.79.16.2.2.28.38.51.18.23.3.46.21.12-.07-.5-.19-1.34-.36-2.09-.13-.57-.16-.66-.28-1.09-.12-.43-.19-.79-.32-1.28a14.236 14.236 0 0 1-.28-1.46 2.823 2.823 0 0 1 .26-1.85 1.19 1.19 0 0 1 1.3-.22c.441.325.769.78.94 1.3.262.64.437 1.313.52 2 .16 1 .47 2.46.48 2.76 0-.37-.07-1.15 0-1.5.069-.365.323-.668.67-.8.298-.091.613-.112.92-.06.31.065.585.243.77.5.232.583.36 1.203.38 1.83a6.75 6.75 0 0 1 .28-1.62c.167-.236.411-.405.69-.48.331-.061.67-.061 1 0 .271.091.508.261.68.49.212.53.34 1.09.38 1.66 0 .14.07-.39.29-.74a1.004 1.004 0 0 1 1.9.64v2.26a11.726 11.726 0 0 1-.24 1.74 5.906 5.906 0 0 1-.72 1.43 7.215 7.215 0 0 0-1.19 1.81 4.006 4.006 0 0 0-.1 1c-.001.311.039.62.12.92a5.88 5.88 0 0 1-1.23 0c-.39-.06-.87-.84-1-1.08a.38.38 0 0 0-.68 0c-.22.38-.71 1.07-1.05 1.11-.67.08-2.05 0-3.14 0 0 0 .18-1-.23-1.36-.41-.36-.83-.78-1.14-1.06l-.84-.96Z"/>
    <path stroke="#0A090B" stroke-linecap="round" stroke-linejoin="round" stroke-width=".75" d="M484.77 147.28c-.28-.36-.63-1.09-1.24-2-.35-.5-1.21-1.45-1.47-1.94a1.26 1.26 0 0 1-.15-1 1.32 1.32 0 0 1 1.43-1c.511.103.98.353 1.35.72.258.243.496.507.71.79.16.2.2.28.38.51.18.23.3.46.21.12-.07-.5-.19-1.34-.36-2.09-.13-.57-.16-.66-.28-1.09-.12-.43-.19-.79-.32-1.28a14.236 14.236 0 0 1-.28-1.46 2.823 2.823 0 0 1 .26-1.85 1.19 1.19 0 0 1 1.3-.22c.441.325.769.78.94 1.3.262.64.437 1.313.52 2 .16 1 .47 2.46.48 2.76 0-.37-.07-1.15 0-1.5.069-.365.323-.668.67-.8.298-.091.613-.112.92-.06.31.065.585.243.77.5.232.583.36 1.203.38 1.83a6.75 6.75 0 0 1 .28-1.62c.167-.236.411-.405.69-.48.331-.061.67-.061 1 0 .271.091.508.261.68.49.212.53.34 1.09.38 1.66 0 .14.07-.39.29-.74a1.004 1.004 0 0 1 1.9.64v2.26a11.726 11.726 0 0 1-.24 1.74 5.906 5.906 0 0 1-.72 1.43 7.215 7.215 0 0 0-1.19 1.81 4.006 4.006 0 0 0-.1 1c-.001.311.039.62.12.92a5.88 5.88 0 0 1-1.23 0c-.39-.06-.87-.84-1-1.08a.38.38 0 0 0-.68 0c-.22.38-.71 1.07-1.05 1.11-.67.08-2.05 0-3.14 0 0 0 .18-1-.23-1.36-.41-.36-.83-.78-1.14-1.06l-.84-.96Z" clip-rule="evenodd"/>
    <path fill="#0A090B" d="M493.25 147.826v-3.452a.374.374 0 0 0-.75 0v3.452a.374.374 0 0 0 .75 0Zm-1.98-.001-.02-3.454a.374.374 0 0 0-.377-.371.374.374 0 0 0-.373.375l.02 3.454c.001.206.17.372.377.371a.374.374 0 0 0 .373-.375Zm-2.77-3.446.02 3.446c.001.208.17.376.377.375a.376.376 0 0 0 .373-.379l-.02-3.446a.376.376 0 0 0-.377-.375.376.376 0 0 0-.373.379Z"/>
  </g>
  <path fill="#000" d="M515.364 149.17c-.872 0-1.62-.191-2.245-.573a3.832 3.832 0 0 1-1.437-1.586c-.334-.678-.5-1.458-.5-2.341 0-.886.17-1.668.511-2.346a3.819 3.819 0 0 1 1.443-1.591c.625-.383 1.364-.574 2.216-.574.709 0 1.336.131 1.881.392.549.258.987.623 1.312 1.097.326.469.512 1.019.557 1.647h-1.966a1.88 1.88 0 0 0-.568-1.051c-.295-.284-.691-.426-1.187-.426-.421 0-.79.114-1.108.341-.318.224-.567.546-.745.966-.174.42-.261.924-.261 1.511 0 .595.087 1.106.261 1.534.175.425.419.752.733.983.319.228.692.341 1.12.341.303 0 .574-.057.812-.17.243-.118.445-.286.608-.506.163-.22.275-.487.335-.801h1.966a3.43 3.43 0 0 1-.545 1.642 3.235 3.235 0 0 1-1.284 1.114c-.542.265-1.178.397-1.909.397Zm10.81-3.84v-5.057h2.057V149h-1.995v-1.551h-.091a2.634 2.634 0 0 1-.971 1.199c-.447.31-.998.466-1.654.466-.572 0-1.077-.127-1.517-.381a2.652 2.652 0 0 1-1.022-1.119c-.247-.493-.37-1.087-.37-1.784v-5.557h2.057v5.238c0 .553.152.993.455 1.319.303.325.7.488 1.193.488.303 0 .596-.074.88-.221.285-.148.517-.368.699-.659.186-.296.279-.665.279-1.108Zm3.992 3.67v-8.727h1.994v1.454h.091c.159-.504.432-.892.818-1.165.39-.276.835-.414 1.335-.414.114 0 .241.005.381.017.144.007.263.021.358.04v1.892a2.13 2.13 0 0 0-.415-.08 3.895 3.895 0 0 0-.54-.04c-.375 0-.712.082-1.011.245-.296.159-.528.38-.699.664-.17.284-.256.612-.256.983V149h-2.056Zm13.061-6.42-1.875.204a1.52 1.52 0 0 0-.278-.534 1.376 1.376 0 0 0-.523-.403c-.22-.103-.489-.154-.807-.154-.428 0-.788.093-1.079.279-.288.185-.43.426-.427.721a.755.755 0 0 0 .279.619c.193.16.511.29.954.393l1.489.318c.826.178 1.439.46 1.841.846.405.387.61.892.614 1.517a2.377 2.377 0 0 1-.483 1.455c-.315.417-.752.742-1.313.977-.561.235-1.204.352-1.932.352-1.068 0-1.928-.223-2.579-.67-.652-.451-1.04-1.078-1.165-1.881l2.006-.193c.091.394.284.691.579.892.296.201.68.301 1.154.301.488 0 .88-.1 1.176-.301.299-.201.449-.449.449-.744a.774.774 0 0 0-.29-.619c-.19-.163-.485-.288-.887-.375l-1.488-.313c-.837-.174-1.457-.468-1.858-.881-.402-.416-.601-.943-.597-1.579-.004-.538.142-1.004.438-1.398.299-.398.714-.704 1.244-.92.534-.22 1.15-.33 1.847-.33 1.022 0 1.827.218 2.414.653.591.436.957 1.025 1.097 1.768Zm5.51 6.59c-.852 0-1.591-.187-2.216-.562a3.822 3.822 0 0 1-1.454-1.574c-.341-.674-.511-1.462-.511-2.364 0-.901.17-1.691.511-2.369a3.811 3.811 0 0 1 1.454-1.579c.625-.375 1.364-.563 2.216-.563.853 0 1.591.188 2.216.563a3.774 3.774 0 0 1 1.449 1.579c.345.678.517 1.468.517 2.369 0 .902-.172 1.69-.517 2.364a3.785 3.785 0 0 1-1.449 1.574c-.625.375-1.363.562-2.216.562Zm.012-1.647c.462 0 .848-.127 1.159-.381.31-.258.542-.602.693-1.034.155-.432.233-.913.233-1.443 0-.534-.078-1.017-.233-1.449a2.294 2.294 0 0 0-.693-1.04c-.311-.257-.697-.386-1.159-.386-.474 0-.868.129-1.182.386-.311.258-.544.604-.699 1.04a4.37 4.37 0 0 0-.227 1.449c0 .53.076 1.011.227 1.443.155.432.388.776.699 1.034.314.254.708.381 1.182.381Zm5.736 1.477v-8.727h1.994v1.454h.091c.159-.504.432-.892.818-1.165a2.259 2.259 0 0 1 1.336-.414c.113 0 .24.005.38.017.144.007.264.021.358.04v1.892a2.114 2.114 0 0 0-.415-.08 3.88 3.88 0 0 0-.539-.04c-.375 0-.712.082-1.012.245-.295.159-.528.38-.699.664-.17.284-.255.612-.255.983V149h-2.057Zm11.063-5.693V145h-5.239v-1.693h5.239Zm1.983 8.966v-12h2.023v1.443h.119c.106-.212.256-.438.449-.676.193-.243.455-.449.784-.62.33-.174.75-.261 1.262-.261a3.32 3.32 0 0 1 1.823.517c.546.341.978.847 1.296 1.517.322.667.483 1.485.483 2.455 0 .958-.157 1.772-.472 2.443-.314.67-.742 1.182-1.284 1.534a3.304 3.304 0 0 1-1.841.528c-.5 0-.915-.083-1.244-.25a2.519 2.519 0 0 1-.796-.602 3.922 3.922 0 0 1-.46-.676h-.085v4.648h-2.057Zm2.017-7.637c0 .565.08 1.059.239 1.483.163.425.396.756.699.995.307.234.678.352 1.113.352.455 0 .836-.121 1.142-.364.307-.246.538-.581.694-1.005.159-.428.238-.915.238-1.461 0-.541-.077-1.022-.233-1.443-.155-.42-.386-.75-.693-.988-.307-.239-.689-.358-1.148-.358-.439 0-.812.115-1.119.346-.307.231-.54.555-.699.972-.155.416-.233.907-.233 1.471Zm11.61 4.534c-.852 0-1.591-.187-2.216-.562a3.816 3.816 0 0 1-1.454-1.574c-.341-.674-.512-1.462-.512-2.364 0-.901.171-1.691.512-2.369a3.805 3.805 0 0 1 1.454-1.579c.625-.375 1.364-.563 2.216-.563.852 0 1.591.188 2.216.563a3.774 3.774 0 0 1 1.449 1.579c.344.678.517 1.468.517 2.369 0 .902-.173 1.69-.517 2.364a3.785 3.785 0 0 1-1.449 1.574c-.625.375-1.364.562-2.216.562Zm.011-1.647c.462 0 .849-.127 1.159-.381.311-.258.542-.602.694-1.034.155-.432.233-.913.233-1.443 0-.534-.078-1.017-.233-1.449-.152-.436-.383-.782-.694-1.04-.31-.257-.697-.386-1.159-.386-.473 0-.867.129-1.181.386-.311.258-.544.604-.699 1.04a4.345 4.345 0 0 0-.228 1.449c0 .53.076 1.011.228 1.443.155.432.388.776.699 1.034.314.254.708.381 1.181.381Zm5.737 1.477v-8.727h2.056V149h-2.056Zm1.034-9.966a1.2 1.2 0 0 1-.841-.324 1.043 1.043 0 0 1-.353-.79c0-.31.118-.573.353-.789.235-.22.515-.33.841-.33.329 0 .61.11.841.33.234.216.352.479.352.789 0 .307-.118.571-.352.79a1.188 1.188 0 0 1-.841.324Zm5.014 4.852V149h-2.057v-8.727h1.966v1.483h.103c.2-.489.52-.877.96-1.165.443-.288.99-.432 1.642-.432.602 0 1.127.129 1.574.386a2.6 2.6 0 0 1 1.045 1.12c.25.488.373 1.081.37 1.778V149H596.5v-5.239c0-.583-.152-1.039-.455-1.369-.299-.33-.714-.494-1.244-.494-.36 0-.68.079-.96.238a1.659 1.659 0 0 0-.654.676c-.155.296-.233.654-.233 1.074Zm11.871-3.613v1.591h-5.017v-1.591h5.017Zm-3.778-2.091h2.057v8.193c0 .277.041.489.125.636a.676.676 0 0 0 .341.296c.14.053.295.079.466.079.128 0 .246-.009.352-.028.11-.019.193-.036.25-.051l.346 1.608a4.662 4.662 0 0 1-.471.125 3.86 3.86 0 0 1-.739.079 3.348 3.348 0 0 1-1.392-.233 2.169 2.169 0 0 1-.983-.806c-.238-.364-.356-.819-.352-1.364v-8.534Zm9.088 10.988c-.875 0-1.63-.181-2.267-.545a3.692 3.692 0 0 1-1.46-1.557c-.341-.674-.511-1.468-.511-2.38 0-.898.17-1.686.511-2.364a3.872 3.872 0 0 1 1.443-1.591c.618-.383 1.343-.574 2.176-.574a4.41 4.41 0 0 1 1.523.261c.481.171.906.436 1.273.796.371.36.663.818.875 1.375.212.553.318 1.212.318 1.977v.631h-7.153v-1.387h5.182a2.214 2.214 0 0 0-.256-1.051c-.167-.31-.4-.555-.699-.733a1.963 1.963 0 0 0-1.034-.267c-.421 0-.79.103-1.108.307a2.114 2.114 0 0 0-.744.796 2.267 2.267 0 0 0-.267 1.074v1.21c0 .507.092.943.278 1.307.186.359.445.636.778.829.334.189.724.284 1.171.284.299 0 .57-.041.812-.125.243-.087.453-.214.631-.381a1.57 1.57 0 0 0 .403-.619l1.921.216a2.991 2.991 0 0 1-.693 1.33 3.385 3.385 0 0 1-1.296.875c-.526.204-1.129.306-1.807.306Zm5.441-.17v-8.727h1.995v1.454h.09c.16-.504.432-.892.819-1.165.39-.276.835-.414 1.335-.414.113 0 .24.005.381.017.143.007.263.021.357.04v1.892a2.117 2.117 0 0 0-.414-.08 3.906 3.906 0 0 0-.54-.04c-.375 0-.712.082-1.011.245a1.78 1.78 0 0 0-.699.664 1.869 1.869 0 0 0-.256.983V149h-2.057Z"/>
  <g filter="url(#b)">
    <path fill="#fff" d="M894.38 143.27c-.1-.37-.2-.85-.41-1.55-.21-.7-.34-.86-.47-1.23-.13-.37-.3-.72-.5-1.18-.183-.47-.337-.951-.46-1.44a1.43 1.43 0 0 1 .28-1.17 1.41 1.41 0 0 1 1.36-.35c.379.166.699.441.92.79.295.472.537.975.72 1.5.282.72.486 1.467.61 2.23l.09.45v-1.16c0-1-.06-1.82 0-2.94 0-.13.06-.59.08-.72a1.19 1.19 0 0 1 .67-1c.445-.2.955-.2 1.4 0 .399.178.665.564.69 1 0 .11.09 1 .09 1.11v3.64c.024-1.32.137-2.636.34-3.94a1.49 1.49 0 0 1 .79-.93 1.37 1.37 0 0 1 1.4.24c.288.316.458.723.48 1.15v3.55c.09-.28.19-.54.27-.74.08-.2.24-.61.36-.86.122-.238.259-.469.41-.69.157-.254.392-.451.67-.56a1 1 0 0 1 1.3.59c.06.364.06.736 0 1.1a9.39 9.39 0 0 1-.35 1.65c-.13.45-.27 1.23-.34 1.6-.07.37-.23 1.38-.36 1.82a5.875 5.875 0 0 1-.79 1.47 7.243 7.243 0 0 0-1.19 1.81 4.053 4.053 0 0 0-.1 1c-.002.311.039.62.12.92a5.747 5.747 0 0 1-1.23 0c-.39-.06-.87-.84-1-1.08a.38.38 0 0 0-.68 0c-.23.38-.71 1.07-1.05 1.11-.67.08-2.05 0-3.14 0 0 0 .19-1-.23-1.36-.42-.36-.83-.78-1.14-1.06l-.83-.92c-.28-.36-.63-1.09-1.24-2-.35-.5-1-1.09-1.28-1.58a1.752 1.752 0 0 1-.19-1.32 1.21 1.21 0 0 1 1.37-.86c.464.03.902.221 1.24.54.268.232.518.482.75.75.16.19.2.28.38.51.18.23.3.46.21.12"/>
    <path stroke="#0A090B" stroke-linecap="round" stroke-linejoin="round" stroke-width=".75" d="M894.38 143.27c-.1-.37-.2-.85-.41-1.55-.21-.7-.34-.86-.47-1.23-.13-.37-.3-.72-.5-1.18-.183-.47-.337-.951-.46-1.44a1.43 1.43 0 0 1 .28-1.17 1.41 1.41 0 0 1 1.36-.35c.379.166.699.441.92.79.295.472.537.975.72 1.5.282.72.486 1.467.61 2.23l.09.45v-1.16c0-1-.06-1.82 0-2.94 0-.13.06-.59.08-.72a1.19 1.19 0 0 1 .67-1c.445-.2.955-.2 1.4 0 .399.178.665.564.69 1 0 .11.09 1 .09 1.11v3.64c.024-1.32.137-2.636.34-3.94a1.49 1.49 0 0 1 .79-.93 1.37 1.37 0 0 1 1.4.24c.288.316.458.723.48 1.15v3.55c.09-.28.19-.54.27-.74.08-.2.24-.61.36-.86.122-.238.259-.469.41-.69.157-.254.392-.451.67-.56a1 1 0 0 1 1.3.59c.06.364.06.736 0 1.1a9.39 9.39 0 0 1-.35 1.65c-.13.45-.27 1.23-.34 1.6-.07.37-.23 1.38-.36 1.82a5.875 5.875 0 0 1-.79 1.47 7.243 7.243 0 0 0-1.19 1.81 4.053 4.053 0 0 0-.1 1c-.002.311.039.62.12.92a5.747 5.747 0 0 1-1.23 0c-.39-.06-.87-.84-1-1.08a.38.38 0 0 0-.68 0c-.23.38-.71 1.07-1.05 1.11-.67.08-2.05 0-3.14 0 0 0 .19-1-.23-1.36-.42-.36-.83-.78-1.14-1.06l-.83-.92c-.28-.36-.63-1.09-1.24-2-.35-.5-1-1.09-1.28-1.58a1.752 1.752 0 0 1-.19-1.32 1.21 1.21 0 0 1 1.37-.86c.464.03.902.221 1.24.54.268.232.518.482.75.75.16.19.2.28.38.51.18.23.3.46.21.12"/>
    <path fill="#0A090B" d="M901.75 147.431v-3.452a.374.374 0 0 0-.75 0v3.452a.375.375 0 0 0 .75 0Zm-1.99 0-.01-3.454a.374.374 0 0 0-.75.002l.01 3.454a.374.374 0 0 0 .75-.002Zm-2.755-3.451.02 3.444c.001.209.17.377.377.376a.376.376 0 0 0 .373-.38l-.02-3.445a.376.376 0 0 0-.377-.375.376.376 0 0 0-.373.38Z"/>
  </g>
  <path fill="#000" d="M924.864 149.17c-.872 0-1.62-.191-2.245-.573a3.832 3.832 0 0 1-1.437-1.586c-.334-.678-.5-1.458-.5-2.341 0-.886.17-1.668.511-2.346a3.819 3.819 0 0 1 1.443-1.591c.625-.383 1.364-.574 2.216-.574.709 0 1.336.131 1.881.392.549.258.987.623 1.312 1.097.326.469.512 1.019.557 1.647h-1.966a1.88 1.88 0 0 0-.568-1.051c-.295-.284-.691-.426-1.187-.426-.421 0-.79.114-1.108.341-.318.224-.567.546-.745.966-.174.42-.261.924-.261 1.511 0 .595.087 1.106.261 1.534.175.425.419.752.733.983.319.228.692.341 1.12.341.303 0 .574-.057.812-.17.243-.118.445-.286.608-.506.163-.22.275-.487.335-.801h1.966a3.43 3.43 0 0 1-.545 1.642 3.235 3.235 0 0 1-1.284 1.114c-.542.265-1.178.397-1.909.397Zm10.81-3.84v-5.057h2.057V149h-1.995v-1.551h-.091a2.634 2.634 0 0 1-.971 1.199c-.447.31-.998.466-1.654.466-.572 0-1.077-.127-1.517-.381a2.652 2.652 0 0 1-1.022-1.119c-.247-.493-.37-1.087-.37-1.784v-5.557h2.057v5.238c0 .553.152.993.455 1.319.303.325.7.488 1.193.488.303 0 .596-.074.88-.221.285-.148.517-.368.699-.659.186-.296.279-.665.279-1.108Zm3.992 3.67v-8.727h1.994v1.454h.091c.159-.504.432-.892.818-1.165.39-.276.835-.414 1.335-.414.114 0 .241.005.381.017.144.007.263.021.358.04v1.892a2.13 2.13 0 0 0-.415-.08 3.895 3.895 0 0 0-.54-.04c-.375 0-.712.082-1.011.245-.296.159-.528.38-.699.664-.17.284-.256.612-.256.983V149h-2.056Zm13.061-6.42-1.875.204a1.52 1.52 0 0 0-.278-.534 1.376 1.376 0 0 0-.523-.403c-.22-.103-.489-.154-.807-.154-.428 0-.788.093-1.079.279-.288.185-.43.426-.427.721a.755.755 0 0 0 .279.619c.193.16.511.29.954.393l1.489.318c.826.178 1.439.46 1.841.846.405.387.61.892.614 1.517a2.377 2.377 0 0 1-.483 1.455c-.315.417-.752.742-1.313.977-.561.235-1.204.352-1.932.352-1.068 0-1.928-.223-2.579-.67-.652-.451-1.04-1.078-1.165-1.881l2.006-.193c.091.394.284.691.579.892.296.201.68.301 1.154.301.488 0 .88-.1 1.176-.301.299-.201.449-.449.449-.744a.774.774 0 0 0-.29-.619c-.19-.163-.485-.288-.887-.375l-1.488-.313c-.837-.174-1.457-.468-1.858-.881-.402-.416-.601-.943-.597-1.579-.004-.538.142-1.004.438-1.398.299-.398.714-.704 1.244-.92.534-.22 1.15-.33 1.847-.33 1.022 0 1.827.218 2.414.653.591.436.957 1.025 1.097 1.768Zm5.51 6.59c-.852 0-1.591-.187-2.216-.562a3.822 3.822 0 0 1-1.454-1.574c-.341-.674-.511-1.462-.511-2.364 0-.901.17-1.691.511-2.369a3.811 3.811 0 0 1 1.454-1.579c.625-.375 1.364-.563 2.216-.563.853 0 1.591.188 2.216.563a3.774 3.774 0 0 1 1.449 1.579c.345.678.517 1.468.517 2.369 0 .902-.172 1.69-.517 2.364a3.785 3.785 0 0 1-1.449 1.574c-.625.375-1.363.562-2.216.562Zm.012-1.647c.462 0 .848-.127 1.159-.381.31-.258.542-.602.693-1.034.155-.432.233-.913.233-1.443 0-.534-.078-1.017-.233-1.449a2.294 2.294 0 0 0-.693-1.04c-.311-.257-.697-.386-1.159-.386-.474 0-.868.129-1.182.386-.311.258-.544.604-.699 1.04a4.37 4.37 0 0 0-.227 1.449c0 .53.076 1.011.227 1.443.155.432.388.776.699 1.034.314.254.708.381 1.182.381Zm5.736 1.477v-8.727h1.994v1.454h.091c.159-.504.432-.892.818-1.165a2.259 2.259 0 0 1 1.336-.414c.113 0 .24.005.38.017.144.007.264.021.358.04v1.892a2.114 2.114 0 0 0-.415-.08 3.88 3.88 0 0 0-.539-.04c-.375 0-.712.082-1.012.245-.295.159-.528.38-.699.664-.17.284-.255.612-.255.983V149h-2.057Zm11.063-5.693V145h-5.239v-1.693h5.239Zm5.779 9.148c-.739 0-1.373-.101-1.904-.302-.53-.197-.956-.462-1.278-.795a2.755 2.755 0 0 1-.671-1.108l1.853-.449c.083.171.204.339.363.506.159.17.373.31.642.42.273.114.616.171 1.029.171.583 0 1.066-.142 1.449-.426.382-.281.573-.743.573-1.387v-1.653h-.102c-.106.212-.261.43-.466.653a2.38 2.38 0 0 1-.801.563c-.329.151-.744.227-1.244.227a3.578 3.578 0 0 1-1.824-.472c-.542-.318-.974-.791-1.295-1.42-.319-.633-.478-1.424-.478-2.375 0-.958.159-1.767.478-2.426.321-.663.755-1.165 1.301-1.506a3.34 3.34 0 0 1 1.824-.517c.511 0 .931.087 1.261.261.333.171.598.377.795.62.197.238.347.464.449.676h.114v-1.443h2.028v8.869c0 .746-.178 1.364-.534 1.852-.356.489-.843.854-1.46 1.097-.618.242-1.318.364-2.102.364Zm.017-5.194c.435 0 .807-.106 1.113-.318.307-.212.54-.517.699-.915.159-.397.239-.875.239-1.431 0-.55-.08-1.031-.239-1.444-.155-.412-.386-.733-.693-.96-.303-.231-.676-.346-1.119-.346-.459 0-.841.119-1.148.358-.307.238-.538.566-.693.983a3.961 3.961 0 0 0-.233 1.409c0 .534.077 1.001.233 1.403.159.398.392.708.699.932.31.22.691.329 1.142.329Zm6.007 1.739v-8.727h1.995v1.454h.09c.16-.504.432-.892.819-1.165.39-.276.835-.414 1.335-.414.113 0 .24.005.381.017.143.007.263.021.357.04v1.892a2.117 2.117 0 0 0-.414-.08 3.906 3.906 0 0 0-.54-.04c-.375 0-.712.082-1.011.245a1.78 1.78 0 0 0-.699.664 1.869 1.869 0 0 0-.256.983V149h-2.057Zm8.519.176a3.639 3.639 0 0 1-1.494-.295 2.443 2.443 0 0 1-1.046-.887c-.254-.39-.38-.871-.38-1.443 0-.492.091-.899.272-1.221.182-.322.43-.58.745-.773a3.767 3.767 0 0 1 1.062-.438 8.628 8.628 0 0 1 1.233-.221c.511-.053.926-.101 1.244-.142.319-.046.55-.114.694-.205.147-.095.221-.24.221-.437v-.034c0-.428-.127-.76-.38-.995-.254-.235-.62-.352-1.097-.352-.504 0-.903.11-1.199.329-.292.22-.489.48-.591.779l-1.92-.273c.151-.53.401-.973.75-1.329.348-.36.774-.629 1.278-.807a4.89 4.89 0 0 1 1.671-.273c.42 0 .839.049 1.255.148.417.098.798.261 1.142.488.345.224.621.529.83.915.212.387.318.87.318 1.449V149h-1.977v-1.199h-.068a2.51 2.51 0 0 1-.529.682 2.552 2.552 0 0 1-.846.506c-.338.125-.733.187-1.188.187Zm.534-1.511c.413 0 .771-.082 1.074-.245a1.8 1.8 0 0 0 .699-.659c.167-.272.25-.57.25-.892v-1.028a.98.98 0 0 1-.33.148 4.739 4.739 0 0 1-.511.119c-.189.034-.377.064-.563.091l-.482.068c-.307.042-.582.11-.824.205a1.36 1.36 0 0 0-.574.397c-.14.167-.21.383-.21.648 0 .379.138.665.414.858.277.193.629.29 1.057.29Zm6.056 1.335v-11.636h2.05v4.352h.09c.11-.212.25-.438.45-.676.19-.243.45-.449.78-.62.33-.174.75-.261 1.26-.261.68 0 1.29.172 1.83.517.54.341.97.847 1.29 1.517.32.667.49 1.485.49 2.455 0 .958-.16 1.772-.48 2.443-.31.67-.74 1.182-1.28 1.534a3.31 3.31 0 0 1-1.84.528c-.5 0-.92-.083-1.25-.25a2.597 2.597 0 0 1-.79-.602c-.2-.239-.35-.464-.46-.676h-.12V149h-2.02Zm2.01-4.364c0 .565.08 1.059.24 1.483.17.425.4.756.7.995.31.234.68.352 1.12.352.45 0 .83-.121 1.14-.364.3-.246.54-.581.69-1.005.16-.428.24-.915.24-1.461 0-.541-.08-1.022-.23-1.443-.16-.42-.39-.75-.7-.988-.3-.239-.69-.358-1.14-.358-.44 0-.82.115-1.12.346-.31.231-.54.555-.7.972-.16.416-.24.907-.24 1.471Z"/>
  <g filter="url(#c)">
    <path fill="#fff" d="M1283.5 138.15c.48-.18 1.43-.07 1.68.47s.4 1.24.41 1.07c-.02-.517.02-1.034.13-1.54.11-.324.37-.579.69-.69.3-.094.61-.115.92-.06.31.064.59.242.77.5.23.583.37 1.202.39 1.83a6.52 6.52 0 0 1 .27-1.58c.17-.236.41-.405.69-.48a2.8 2.8 0 0 1 1 0c.27.09.51.261.68.49.21.53.34 1.09.38 1.66 0 .14.07-.39.29-.74.18-.525.75-.807 1.27-.63.52.177.81.745.63 1.27v2.26c-.04.585-.12 1.167-.24 1.74-.17.507-.42.988-.72 1.43-.49.54-.89 1.15-1.19 1.81-.07.328-.11.664-.1 1 0 .311.04.62.12.92-.41.044-.82.044-1.23 0-.39-.06-.87-.84-1-1.08a.38.38 0 0 0-.34-.21.38.38 0 0 0-.34.21c-.22.38-.71 1.07-1 1.11-.67.08-2.06 0-3.14 0 0 0 .19-1-.23-1.36-.42-.36-.83-.78-1.14-1.06l-.83-.92a4.438 4.438 0 0 1-1.24-2c-.21-.94-.19-1.39 0-1.77a1.5 1.5 0 0 1 .85-.65 1.8 1.8 0 0 1 .88.06c.2.082.37.217.49.39.23.31.31.46.21.12s-.32-.59-.43-1a4.75 4.75 0 0 1-.38-1.53c.04-.474.37-.872.83-1"/>
    <path stroke="#0A090B" stroke-linejoin="round" stroke-width=".75" d="M1283.5 138.15c.48-.18 1.43-.07 1.68.47s.4 1.24.41 1.07c-.02-.517.02-1.034.13-1.54.11-.324.37-.579.69-.69.3-.094.61-.115.92-.06.31.064.59.242.77.5.23.583.37 1.202.39 1.83a6.52 6.52 0 0 1 .27-1.58c.17-.236.41-.405.69-.48a2.8 2.8 0 0 1 1 0c.27.09.51.261.68.49.21.53.34 1.09.38 1.66 0 .14.07-.39.29-.74.18-.525.75-.807 1.27-.63.52.177.81.745.63 1.27v2.26c-.04.585-.12 1.167-.24 1.74-.17.507-.42.988-.72 1.43-.49.54-.89 1.15-1.19 1.81-.07.328-.11.664-.1 1 0 .311.04.62.12.92-.41.044-.82.044-1.23 0-.39-.06-.87-.84-1-1.08a.38.38 0 0 0-.34-.21.38.38 0 0 0-.34.21c-.22.38-.71 1.07-1 1.11-.67.08-2.06 0-3.14 0 0 0 .19-1-.23-1.36-.42-.36-.83-.78-1.14-1.06l-.83-.92a4.438 4.438 0 0 1-1.24-2c-.21-.94-.19-1.39 0-1.77a1.5 1.5 0 0 1 .85-.65 1.8 1.8 0 0 1 .88.06c.2.082.37.217.49.39.23.31.31.46.21.12s-.32-.59-.43-1a4.75 4.75 0 0 1-.38-1.53c.02-.481.34-.897.8-1.04Z" clip-rule="evenodd"/>
    <path fill="#0A090B" d="M1291.25 145.826v-3.452a.375.375 0 0 0-.75 0v3.452a.375.375 0 0 0 .75 0Zm-1.98-.001-.02-3.454a.374.374 0 0 0-.75.004l.02 3.454a.374.374 0 0 0 .75-.004Zm-2.77-3.445.02 3.445c0 .208.17.376.38.375a.38.38 0 0 0 .37-.38l-.02-3.445a.376.376 0 0 0-.38-.375.38.38 0 0 0-.37.38Z"/>
  </g>
  <path fill="#000" d="M1314.36 149.17c-.87 0-1.62-.191-2.24-.573a3.866 3.866 0 0 1-1.44-1.586c-.33-.678-.5-1.458-.5-2.341 0-.886.17-1.668.51-2.346.34-.682.83-1.212 1.45-1.591.62-.383 1.36-.574 2.21-.574.71 0 1.34.131 1.88.392.55.258.99.623 1.32 1.097.32.469.51 1.019.55 1.647h-1.96c-.08-.42-.27-.77-.57-1.051-.3-.284-.69-.426-1.19-.426-.42 0-.79.114-1.11.341-.32.224-.56.546-.74.966-.18.42-.26.924-.26 1.511 0 .595.08 1.106.26 1.534.17.425.42.752.73.983.32.228.69.341 1.12.341.3 0 .57-.057.81-.17.25-.118.45-.286.61-.506.16-.22.28-.487.34-.801h1.96a3.479 3.479 0 0 1-.54 1.642c-.32.474-.75.845-1.29 1.114-.54.265-1.18.397-1.91.397Zm10.81-3.84v-5.057h2.06V149h-1.99v-1.551h-.09c-.2.488-.53.888-.98 1.199-.44.31-.99.466-1.65.466-.57 0-1.08-.127-1.52-.381a2.706 2.706 0 0 1-1.02-1.119c-.25-.493-.37-1.087-.37-1.784v-5.557h2.06v5.238c0 .553.15.993.45 1.319.31.325.7.488 1.2.488.3 0 .59-.074.88-.221.28-.148.51-.368.7-.659.18-.296.27-.665.27-1.108Zm4 3.67v-8.727h1.99v1.454h.09c.16-.504.43-.892.82-1.165.39-.276.83-.414 1.33-.414.12 0 .24.005.38.017.15.007.27.021.36.04v1.892a1.944 1.944 0 0 0-.41-.08c-.19-.026-.37-.04-.54-.04-.38 0-.71.082-1.01.245-.3.159-.53.38-.7.664a1.88 1.88 0 0 0-.26.983V149h-2.05Zm13.06-6.42-1.88.204a1.363 1.363 0 0 0-.28-.534c-.13-.167-.3-.301-.52-.403-.22-.103-.49-.154-.81-.154-.42 0-.78.093-1.08.279-.28.185-.43.426-.42.721-.01.254.09.46.28.619.19.16.51.29.95.393l1.49.318c.83.178 1.44.46 1.84.846.41.387.61.892.61 1.517 0 .55-.16 1.034-.48 1.455-.31.417-.75.742-1.31.977s-1.21.352-1.93.352c-1.07 0-1.93-.223-2.58-.67-.65-.451-1.04-1.078-1.17-1.881l2.01-.193c.09.394.28.691.58.892.29.201.68.301 1.15.301.49 0 .88-.1 1.18-.301.3-.201.45-.449.45-.744 0-.25-.1-.457-.29-.619-.19-.163-.49-.288-.89-.375l-1.49-.313c-.84-.174-1.45-.468-1.86-.881-.4-.416-.6-.943-.59-1.579-.01-.538.14-1.004.43-1.398.3-.398.72-.704 1.25-.92.53-.22 1.15-.33 1.85-.33 1.02 0 1.82.218 2.41.653.59.436.96 1.025 1.1 1.768Zm5.51 6.59c-.85 0-1.59-.187-2.22-.562-.62-.375-1.11-.9-1.45-1.574-.34-.674-.51-1.462-.51-2.364 0-.901.17-1.691.51-2.369.34-.678.83-1.204 1.45-1.579.63-.375 1.37-.563 2.22-.563.85 0 1.59.188 2.21.563.63.375 1.11.901 1.45 1.579.35.678.52 1.468.52 2.369 0 .902-.17 1.69-.52 2.364a3.749 3.749 0 0 1-1.45 1.574c-.62.375-1.36.562-2.21.562Zm.01-1.647c.46 0 .85-.127 1.16-.381.31-.258.54-.602.69-1.034.16-.432.23-.913.23-1.443 0-.534-.07-1.017-.23-1.449-.15-.436-.38-.782-.69-1.04-.31-.257-.7-.386-1.16-.386-.47 0-.87.129-1.18.386-.31.258-.55.604-.7 1.04-.15.432-.23.915-.23 1.449 0 .53.08 1.011.23 1.443.15.432.39.776.7 1.034.31.254.71.381 1.18.381Zm5.73 1.477v-8.727h2v1.454h.09c.16-.504.43-.892.82-1.165.39-.276.83-.414 1.33-.414.12 0 .24.005.38.017.15.007.27.021.36.04v1.892a1.944 1.944 0 0 0-.41-.08c-.19-.026-.37-.04-.54-.04-.38 0-.71.082-1.01.245-.3.159-.53.38-.7.664a1.88 1.88 0 0 0-.26.983V149h-2.06Zm11.07-5.693V145h-5.24v-1.693h5.24Zm5.78 9.148c-.74 0-1.38-.101-1.91-.302-.53-.197-.95-.462-1.28-.795a2.833 2.833 0 0 1-.67-1.108l1.86-.449c.08.171.2.339.36.506.16.17.37.31.64.42.28.114.62.171 1.03.171.58 0 1.07-.142 1.45-.426.38-.281.57-.743.57-1.387v-1.653h-.1c-.1.212-.26.43-.46.653-.21.224-.47.411-.81.563-.33.151-.74.227-1.24.227-.67 0-1.28-.157-1.82-.472-.55-.318-.98-.791-1.3-1.42-.32-.633-.48-1.424-.48-2.375 0-.958.16-1.767.48-2.426.32-.663.76-1.165 1.3-1.506a3.374 3.374 0 0 1 1.83-.517c.51 0 .93.087 1.26.261.33.171.6.377.79.62.2.238.35.464.45.676h.11v-1.443h2.03v8.869c0 .746-.17 1.364-.53 1.852-.36.489-.84.854-1.46 1.097-.62.242-1.32.364-2.1.364Zm.01-5.194c.44 0 .81-.106 1.12-.318.3-.212.54-.517.7-.915.16-.397.23-.875.23-1.431 0-.55-.07-1.031-.23-1.444-.16-.412-.39-.733-.7-.96-.3-.231-.67-.346-1.12-.346-.45 0-.84.119-1.14.358-.31.238-.54.566-.7.983-.15.412-.23.882-.23 1.409 0 .534.08 1.001.23 1.403.16.398.39.708.7.932.31.22.69.329 1.14.329Zm6.01 1.739v-8.727h2v1.454h.09c.16-.504.43-.892.81-1.165.39-.276.84-.414 1.34-.414.11 0 .24.005.38.017.14.007.26.021.36.04v1.892a2.233 2.233 0 0 0-.42-.08c-.18-.026-.36-.04-.54-.04-.37 0-.71.082-1.01.245-.29.159-.53.38-.7.664-.17.284-.25.612-.25.983V149h-2.06Zm8.52.176a3.62 3.62 0 0 1-1.49-.295 2.466 2.466 0 0 1-1.05-.887c-.25-.39-.38-.871-.38-1.443 0-.492.09-.899.27-1.221.18-.322.43-.58.75-.773.31-.193.67-.339 1.06-.438.4-.102.81-.176 1.23-.221.51-.053.93-.101 1.25-.142.31-.046.55-.114.69-.205.15-.095.22-.24.22-.437v-.034c0-.428-.13-.76-.38-.995s-.62-.352-1.1-.352c-.5 0-.9.11-1.19.329-.3.22-.49.48-.6.779l-1.92-.273c.16-.53.41-.973.75-1.329.35-.36.78-.629 1.28-.807a4.908 4.908 0 0 1 1.67-.273c.42 0 .84.049 1.26.148.41.098.8.261 1.14.488.34.224.62.529.83.915.21.387.32.87.32 1.449V149h-1.98v-1.199h-.07c-.12.243-.3.47-.53.682-.22.208-.5.377-.84.506-.34.125-.74.187-1.19.187Zm.53-1.511c.42 0 .77-.082 1.08-.245.3-.166.53-.386.7-.659.16-.272.25-.57.25-.892v-1.028c-.07.053-.18.102-.33.148-.15.045-.32.085-.51.119-.19.034-.38.064-.57.091l-.48.068c-.31.042-.58.11-.82.205a1.34 1.34 0 0 0-.58.397c-.14.167-.21.383-.21.648 0 .379.14.665.42.858.27.193.63.29 1.05.29Zm6.06 1.335v-11.636h2.05v4.352h.09c.11-.212.25-.438.45-.676.19-.243.45-.449.78-.62.33-.174.75-.261 1.26-.261.68 0 1.29.172 1.83.517.54.341.97.847 1.29 1.517.32.667.49 1.485.49 2.455 0 .958-.16 1.772-.48 2.443-.31.67-.74 1.182-1.28 1.534a3.31 3.31 0 0 1-1.84.528c-.5 0-.92-.083-1.25-.25a2.597 2.597 0 0 1-.79-.602c-.2-.239-.35-.464-.46-.676h-.12V149h-2.02Zm2.01-4.364c0 .565.08 1.059.24 1.483.17.425.4.756.7.995.31.234.68.352 1.12.352.45 0 .83-.121 1.14-.364.3-.246.54-.581.69-1.005.16-.428.24-.915.24-1.461 0-.541-.08-1.022-.23-1.443-.16-.42-.39-.75-.7-.988-.3-.239-.69-.358-1.14-.358-.44 0-.82.115-1.12.346-.31.231-.54.555-.7.972-.16.416-.24.907-.24 1.471Zm7.89 4.364v-11.636h2.05v4.352h.09c.1-.212.25-.438.45-.676.19-.243.45-.449.78-.62.33-.174.75-.261 1.26-.261.68 0 1.28.172 1.83.517.54.341.97.847 1.29 1.517.32.667.48 1.485.48 2.455 0 .958-.15 1.772-.47 2.443-.31.67-.74 1.182-1.28 1.534a3.31 3.31 0 0 1-1.84.528c-.5 0-.92-.083-1.25-.25a2.48 2.48 0 0 1-.79-.602c-.2-.239-.35-.464-.46-.676h-.12V149h-2.02Zm2.01-4.364c0 .565.08 1.059.24 1.483.16.425.4.756.7.995.31.234.68.352 1.11.352.46 0 .84-.121 1.15-.364.3-.246.53-.581.69-1.005.16-.428.24-.915.24-1.461 0-.541-.08-1.022-.24-1.443-.15-.42-.38-.75-.69-.988-.31-.239-.69-.358-1.15-.358-.44 0-.81.115-1.12.346a2.1 2.1 0 0 0-.69.972c-.16.416-.24.907-.24 1.471Zm11.66 4.534c-.88 0-1.63-.181-2.27-.545a3.699 3.699 0 0 1-1.46-1.557c-.34-.674-.51-1.468-.51-2.38 0-.898.17-1.686.51-2.364.34-.682.82-1.212 1.44-1.591.62-.383 1.34-.574 2.18-.574.54 0 1.04.087 1.52.261.48.171.91.436 1.27.796.37.36.67.818.88 1.375.21.553.32 1.212.32 1.977v.631h-7.16v-1.387h5.19c-.01-.393-.09-.744-.26-1.051-.17-.31-.4-.555-.7-.733a1.946 1.946 0 0 0-1.03-.267c-.42 0-.79.103-1.11.307a2.13 2.13 0 0 0-.75.796c-.17.325-.26.683-.26 1.074v1.21c0 .507.09.943.28 1.307.18.359.44.636.77.829.34.189.73.284 1.17.284.3 0 .57-.041.82-.125.24-.087.45-.214.63-.381.18-.166.31-.373.4-.619l1.92.216c-.12.508-.35.951-.69 1.33a3.4 3.4 0 0 1-1.3.875c-.52.204-1.13.306-1.8.306Zm8.68-.017c-.69 0-1.3-.176-1.85-.528-.54-.352-.97-.864-1.28-1.534-.31-.671-.47-1.485-.47-2.443 0-.97.16-1.788.48-2.455.32-.67.75-1.176 1.3-1.517a3.316 3.316 0 0 1 1.82-.517c.51 0 .93.087 1.26.261.33.171.59.377.79.62.19.238.34.464.45.676h.08v-4.352h2.06V149h-2.02v-1.375h-.12c-.11.212-.26.437-.46.676-.21.235-.47.436-.8.602-.33.167-.74.25-1.24.25Zm.57-1.687c.43 0 .81-.118 1.11-.352.31-.239.54-.57.7-.995.16-.424.24-.918.24-1.483 0-.564-.08-1.055-.24-1.471-.15-.417-.38-.741-.69-.972-.3-.231-.68-.346-1.12-.346-.46 0-.84.119-1.15.358-.31.238-.54.568-.69.988-.16.421-.23.902-.23 1.443 0 .546.07 1.033.23 1.461.16.424.39.759.7 1.005.31.243.69.364 1.14.364Z"/>
  <defs>
    <filter id="a" width="16.746" height="17.859" x="480.691" y="135.012" color-interpolation-filters="sRGB" filterUnits="userSpaceOnUse">
      <feFlood flood-opacity="0" result="BackgroundImageFix"/>
      <feColorMatrix in="SourceAlpha" result="hardAlpha" values="0 0 0 0 0 0 0 0 0 0 0 0 0 0 0 0 0 0 127 0"/>
      <feOffset dy="1"/>
      <feGaussianBlur stdDeviation=".4"/>
      <feColorMatrix values="0 0 0 0 0 0 0 0 0 0 0 0 0 0 0 0 0 0 0.5 0"/>
      <feBlend in2="BackgroundImageFix" result="effect1_dropShadow_101_5432"/>
      <feBlend in="SourceGraphic" in2="effect1_dropShadow_101_5432" result="shape"/>
    </filter>
    <filter id="b" width="17.468" height="17.695" x="889.221" y="134.975" color-interpolation-filters="sRGB" filterUnits="userSpaceOnUse">
      <feFlood flood-opacity="0" result="BackgroundImageFix"/>
      <feColorMatrix in="SourceAlpha" result="hardAlpha" values="0 0 0 0 0 0 0 0 0 0 0 0 0 0 0 0 0 0 127 0"/>
      <feOffset dy="1"/>
      <feGaussianBlur stdDeviation=".4"/>
      <feColorMatrix values="0 0 0 0 0 0 0 0 0 0 0 0 0 0 0 0 0 0 0.5 0"/>
      <feBlend in2="BackgroundImageFix" result="effect1_dropShadow_101_5432"/>
      <feBlend in="SourceGraphic" in2="effect1_dropShadow_101_5432" result="shape"/>
    </filter>
    <filter id="c" width="15.173" height="14.125" x="1279.75" y="136.995" color-interpolation-filters="sRGB" filterUnits="userSpaceOnUse">
      <feFlood flood-opacity="0" result="BackgroundImageFix"/>
      <feColorMatrix in="SourceAlpha" result="hardAlpha" values="0 0 0 0 0 0 0 0 0 0 0 0 0 0 0 0 0 0 127 0"/>
      <feOffset dy="1"/>
      <feGaussianBlur stdDeviation=".4"/>
      <feColorMatrix values="0 0 0 0 0 0 0 0 0 0 0 0 0 0 0 0 0 0 0.5 0"/>
      <feBlend in2="BackgroundImageFix" result="effect1_dropShadow_101_5432"/>
      <feBlend in="SourceGraphic" in2="effect1_dropShadow_101_5432" result="shape"/>
    </filter>
  </defs>
</svg>
