<svg xmlns="http://www.w3.org/2000/svg" width="1800" height="376" fill="none" viewBox="0 0 1800 376">
  <path fill="#1F2022" d="M81.722 103V85.546h11.352v2.65h-8.19v4.739h7.602v2.65h-7.603v4.764h8.259V103h-11.42Zm18.579.23c-1.028 0-1.949-.264-2.761-.792-.813-.529-1.455-1.296-1.926-2.302-.472-1.005-.708-2.227-.708-3.664 0-1.455.24-2.682.716-3.682.483-1.006 1.134-1.764 1.952-2.276a5.016 5.016 0 0 1 2.736-.775c.767 0 1.398.13 1.892.392.494.255.886.565 1.176.929.29.358.514.696.673 1.014h.128v-6.528h3.094V103h-3.034v-2.062h-.188a5.277 5.277 0 0 1-.69 1.014c-.301.352-.699.653-1.193.903-.495.25-1.117.375-1.867.375Zm.861-2.531c.654 0 1.21-.176 1.671-.529.46-.358.809-.855 1.048-1.491.238-.636.358-1.378.358-2.225 0-.846-.12-1.582-.358-2.207-.233-.625-.58-1.11-1.04-1.457-.454-.347-1.014-.52-1.679-.52-.687 0-1.261.179-1.722.537-.46.358-.806.852-1.04 1.483-.232.63-.349 1.352-.349 2.164 0 .819.117 1.549.35 2.19.238.637.588 1.14 1.048 1.509.466.364 1.037.546 1.713.546Zm17.022-3.205V89.91h3.086V103h-2.992v-2.327h-.136a3.944 3.944 0 0 1-1.458 1.799c-.67.465-1.497.698-2.48.698-.858 0-1.616-.19-2.275-.571-.654-.386-1.165-.946-1.534-1.679-.37-.738-.554-1.63-.554-2.676V89.91h3.085v7.858c0 .83.227 1.489.682 1.977.454.489 1.051.733 1.789.733.455 0 .895-.111 1.321-.332a2.685 2.685 0 0 0 1.049-.989c.278-.443.417-.997.417-1.662Zm11.248 5.762c-1.306 0-2.429-.287-3.366-.861a5.745 5.745 0 0 1-2.156-2.378c-.5-1.017-.75-2.188-.75-3.511 0-1.33.255-2.503.767-3.52.511-1.023 1.233-1.818 2.164-2.387.938-.573 2.046-.86 3.324-.86 1.063 0 2.003.196 2.821.588.824.386 1.48.934 1.969 1.645.489.704.767 1.528.835 2.471h-2.949a2.816 2.816 0 0 0-.852-1.576c-.443-.427-1.037-.64-1.781-.64-.631 0-1.185.17-1.662.512-.477.335-.849.818-1.117 1.448-.261.631-.392 1.387-.392 2.267 0 .893.131 1.66.392 2.302.262.636.628 1.127 1.1 1.474.477.341 1.037.511 1.679.511a2.81 2.81 0 0 0 1.219-.255 2.46 2.46 0 0 0 .912-.759c.244-.33.412-.73.502-1.201h2.949c-.074.926-.346 1.747-.818 2.463-.471.71-1.114 1.267-1.926 1.67-.813.398-1.767.597-2.864.597Zm11.189.008c-.83 0-1.577-.148-2.242-.443a3.65 3.65 0 0 1-1.568-1.33c-.381-.585-.571-1.306-.571-2.164 0-.739.136-1.35.409-1.833a3.167 3.167 0 0 1 1.117-1.159 5.62 5.62 0 0 1 1.593-.656 12.967 12.967 0 0 1 1.85-.332c.767-.08 1.389-.151 1.866-.213.478-.069.824-.17 1.04-.307.222-.142.332-.361.332-.656v-.052c0-.642-.19-1.139-.571-1.491-.38-.352-.929-.529-1.644-.529-.756 0-1.356.165-1.799.495-.437.33-.733.719-.886 1.167l-2.881-.409c.227-.795.602-1.46 1.125-1.994a4.895 4.895 0 0 1 1.918-1.21c.755-.273 1.591-.41 2.505-.41.631 0 1.259.075 1.884.222a5.3 5.3 0 0 1 1.713.733c.517.335.932.793 1.244 1.372.319.58.478 1.304.478 2.174V103h-2.966v-1.798h-.103a3.756 3.756 0 0 1-.792 1.022c-.335.313-.759.566-1.27.759-.506.187-1.099.281-1.781.281Zm.801-2.267c.619 0 1.156-.122 1.611-.366.454-.25.804-.58 1.048-.989.25-.409.375-.855.375-1.338v-1.543c-.097.08-.261.154-.494.222a7.052 7.052 0 0 1-.767.179c-.285.051-.566.096-.844.136l-.725.103c-.46.062-.872.164-1.235.306a2.047 2.047 0 0 0-.861.597c-.21.25-.316.574-.316.972 0 .568.208.997.623 1.286.414.29.943.435 1.585.435Zm15.03-11.088v2.386h-7.526V89.91h7.526Zm-5.668-3.136h3.085v12.29c0 .414.063.733.188.954.131.216.301.364.511.443.211.08.444.12.699.12.193 0 .37-.015.529-.043.164-.028.289-.054.375-.077l.519 2.412a6.95 6.95 0 0 1-.707.188c-.301.068-.67.108-1.108.119-.773.023-1.469-.094-2.088-.349a3.247 3.247 0 0 1-1.474-1.211c-.358-.545-.534-1.227-.529-2.045V86.773ZM158.312 103V89.91h3.085V103h-3.085Zm1.551-14.949a1.8 1.8 0 0 1-1.261-.486c-.352-.33-.529-.724-.529-1.184 0-.466.177-.861.529-1.185a1.78 1.78 0 0 1 1.261-.494c.495 0 .915.165 1.262.494.352.324.528.719.528 1.185 0 .46-.176.855-.528 1.184a1.781 1.781 0 0 1-1.262.486Zm9.697 15.205c-1.278 0-2.386-.282-3.324-.844-.937-.563-1.664-1.35-2.182-2.361-.511-1.011-.767-2.193-.767-3.545 0-1.353.256-2.537.767-3.554.518-1.017 1.245-1.807 2.182-2.37.938-.562 2.046-.843 3.324-.843 1.279 0 2.387.28 3.324.843.938.563 1.662 1.353 2.173 2.37.517 1.017.776 2.201.776 3.554 0 1.352-.259 2.534-.776 3.545-.511 1.011-1.235 1.798-2.173 2.361-.937.562-2.045.844-3.324.844Zm.017-2.472c.693 0 1.273-.19 1.739-.571.466-.386.812-.903 1.04-1.551.233-.648.349-1.37.349-2.165 0-.801-.116-1.525-.349-2.173-.228-.653-.574-1.173-1.04-1.56-.466-.386-1.046-.58-1.739-.58-.71 0-1.301.194-1.773.58-.465.387-.815.907-1.048 1.56-.227.648-.341 1.372-.341 2.173 0 .796.114 1.517.341 2.165.233.648.583 1.165 1.048 1.551.472.381 1.063.571 1.773.571Zm11.24-5.455V103h-3.086V89.91h2.949v2.224h.154a3.74 3.74 0 0 1 1.44-1.748c.665-.431 1.486-.647 2.463-.647.904 0 1.69.193 2.361.58.676.385 1.199.945 1.568 1.678.375.733.56 1.622.554 2.668V103h-3.085v-7.858c0-.875-.227-1.56-.682-2.054-.449-.494-1.071-.741-1.866-.741-.54 0-1.02.119-1.441.358a2.483 2.483 0 0 0-.98 1.014c-.233.443-.349.98-.349 1.61Z"/>
  <path stroke="#000" stroke-linecap="round" stroke-width="2" d="M92 145.09V145m8.962 8.962c-1.895 1.896-7.445-.58-12.395-5.53-4.95-4.95-7.425-10.499-5.53-12.395 1.896-1.895 7.445.581 12.395 5.53 4.95 4.95 7.426 10.5 5.53 12.395Zm-17.925.001c-1.895-1.896.58-7.446 5.53-12.396 4.95-4.949 10.5-7.425 12.396-5.53 1.895 1.896-.581 7.446-5.53 12.395-4.95 4.95-10.5 7.426-12.396 5.531Z"/>
  <path fill="#000" d="M119.568 151.176a3.639 3.639 0 0 1-1.494-.295 2.443 2.443 0 0 1-1.046-.887c-.253-.39-.38-.871-.38-1.443 0-.492.091-.899.272-1.221.182-.322.43-.58.745-.773a3.767 3.767 0 0 1 1.062-.438 8.628 8.628 0 0 1 1.233-.221 51.91 51.91 0 0 0 1.245-.142c.318-.046.549-.114.693-.205.147-.095.221-.24.221-.437v-.034c0-.428-.127-.76-.38-.995-.254-.235-.62-.352-1.097-.352-.504 0-.903.11-1.199.329-.291.22-.488.48-.591.779l-1.92-.273c.151-.53.401-.973.75-1.329.348-.36.774-.629 1.278-.807a4.89 4.89 0 0 1 1.671-.273c.42 0 .839.049 1.255.148.417.098.798.261 1.142.488.345.224.622.529.83.915.212.387.318.87.318 1.449V151h-1.977v-1.199h-.068a2.49 2.49 0 0 1-1.375 1.188c-.337.125-.733.187-1.188.187Zm.534-1.511c.413 0 .771-.082 1.074-.245a1.8 1.8 0 0 0 .699-.659c.167-.272.25-.57.25-.892v-1.028a.97.97 0 0 1-.33.148 4.739 4.739 0 0 1-.511.119 17.23 17.23 0 0 1-.562.091l-.483.068c-.307.042-.582.11-.824.205a1.36 1.36 0 0 0-.574.397c-.14.167-.21.383-.21.648 0 .379.138.665.414.858.277.193.629.29 1.057.29Zm10.32-7.392v1.591h-5.017v-1.591h5.017Zm-3.778-2.091h2.057v8.193c0 .277.041.489.125.636.087.144.2.243.341.296.14.053.295.079.465.079.129 0 .247-.009.353-.028.11-.019.193-.036.25-.051l.346 1.608a4.662 4.662 0 0 1-.471.125 3.86 3.86 0 0 1-.739.079 3.348 3.348 0 0 1-1.392-.233 2.169 2.169 0 0 1-.983-.806c-.239-.364-.356-.819-.352-1.364v-8.534Zm9.032 10.988c-.853 0-1.591-.187-2.216-.562a3.825 3.825 0 0 1-1.455-1.574c-.341-.674-.511-1.462-.511-2.364 0-.901.17-1.691.511-2.369a3.814 3.814 0 0 1 1.455-1.579c.625-.375 1.363-.563 2.216-.563.852 0 1.59.188 2.215.563a3.774 3.774 0 0 1 1.449 1.579c.345.678.517 1.468.517 2.369 0 .902-.172 1.69-.517 2.364a3.785 3.785 0 0 1-1.449 1.574c-.625.375-1.363.562-2.215.562Zm.011-1.647c.462 0 .848-.127 1.159-.381.311-.258.542-.602.693-1.034.155-.432.233-.913.233-1.443 0-.534-.078-1.017-.233-1.449-.151-.436-.382-.782-.693-1.04-.311-.257-.697-.386-1.159-.386-.474 0-.868.129-1.182.386-.311.258-.544.604-.699 1.04a4.37 4.37 0 0 0-.227 1.449c0 .53.076 1.011.227 1.443.155.432.388.776.699 1.034.314.254.708.381 1.182.381Zm5.736 1.477v-8.727h1.966v1.483h.102c.182-.5.483-.89.904-1.171.42-.284.922-.426 1.505-.426.591 0 1.089.144 1.495.432.409.284.697.672.863 1.165h.091c.193-.485.519-.872.977-1.159.463-.292 1.01-.438 1.643-.438.803 0 1.458.254 1.965.761.508.508.762 1.249.762 2.222V151h-2.063v-5.54c0-.541-.144-.937-.432-1.187-.287-.254-.64-.381-1.056-.381-.497 0-.885.155-1.165.466-.277.307-.415.706-.415 1.199V151h-2.017v-5.625c0-.451-.136-.811-.409-1.08-.269-.268-.621-.403-1.057-.403a1.5 1.5 0 0 0-.807.227 1.589 1.589 0 0 0-.579.631 1.968 1.968 0 0 0-.216.943V151h-2.057Z"/>
  <path stroke="#000" stroke-linecap="round" stroke-linejoin="round" stroke-width="2" d="M92.139 199.487c1.391-1.02 5.231-2.449 9.461 0v-15.304m-19.2-.279v15.583c1.391-1.02 5.231-2.449 9.46 0v-15.026m-9.46-.596c1.391-1.02 5.231-2.449 9.46 0m.279 0c1.391-1.02 5.231-2.449 9.461 0"/>
  <path fill="#000" d="M117.148 197v-11.636h2.057v4.352h.085c.106-.212.255-.438.449-.676.193-.243.454-.449.784-.62.329-.174.75-.261 1.261-.261.674 0 1.282.172 1.824.517.545.341.977.847 1.295 1.517.322.667.483 1.485.483 2.455 0 .958-.157 1.772-.471 2.443-.315.67-.743 1.182-1.284 1.534a3.307 3.307 0 0 1-1.841.528c-.5 0-.915-.083-1.245-.25a2.526 2.526 0 0 1-.795-.602 3.922 3.922 0 0 1-.46-.676h-.12V197h-2.022Zm2.017-4.364c0 .565.079 1.059.238 1.483.163.425.396.756.699.995.307.234.678.352 1.114.352.454 0 .835-.121 1.142-.364.307-.246.538-.581.693-1.005.159-.428.239-.915.239-1.461a4.16 4.16 0 0 0-.233-1.443c-.155-.42-.387-.75-.693-.988-.307-.239-.69-.358-1.148-.358-.439 0-.813.115-1.119.346-.307.231-.54.555-.699.972-.156.416-.233.907-.233 1.471Zm11.597 4.534c-.853 0-1.591-.187-2.216-.562a3.825 3.825 0 0 1-1.455-1.574c-.341-.674-.511-1.462-.511-2.364 0-.901.17-1.691.511-2.369a3.814 3.814 0 0 1 1.455-1.579c.625-.375 1.363-.563 2.216-.563.852 0 1.591.188 2.216.563a3.774 3.774 0 0 1 1.449 1.579c.344.678.517 1.468.517 2.369 0 .902-.173 1.69-.517 2.364a3.785 3.785 0 0 1-1.449 1.574c-.625.375-1.364.562-2.216.562Zm.011-1.647c.462 0 .849-.127 1.159-.381.311-.258.542-.602.693-1.034.156-.432.233-.913.233-1.443 0-.534-.077-1.017-.233-1.449-.151-.436-.382-.782-.693-1.04-.31-.257-.697-.386-1.159-.386-.473 0-.867.129-1.182.386-.31.258-.543.604-.699 1.04a4.37 4.37 0 0 0-.227 1.449c0 .53.076 1.011.227 1.443.156.432.389.776.699 1.034.315.254.709.381 1.182.381Zm9.543 1.647c-.852 0-1.591-.187-2.216-.562a3.816 3.816 0 0 1-1.454-1.574c-.341-.674-.512-1.462-.512-2.364 0-.901.171-1.691.512-2.369a3.805 3.805 0 0 1 1.454-1.579c.625-.375 1.364-.563 2.216-.563.852 0 1.591.188 2.216.563a3.774 3.774 0 0 1 1.449 1.579c.345.678.517 1.468.517 2.369 0 .902-.172 1.69-.517 2.364a3.785 3.785 0 0 1-1.449 1.574c-.625.375-1.364.562-2.216.562Zm.011-1.647c.463 0 .849-.127 1.16-.381.31-.258.541-.602.693-1.034.155-.432.233-.913.233-1.443 0-.534-.078-1.017-.233-1.449-.152-.436-.383-.782-.693-1.04-.311-.257-.697-.386-1.16-.386-.473 0-.867.129-1.181.386-.311.258-.544.604-.699 1.04a4.345 4.345 0 0 0-.227 1.449c0 .53.075 1.011.227 1.443.155.432.388.776.699 1.034.314.254.708.381 1.181.381Zm7.612-1.262-.006-2.483h.33l3.136-3.505h2.403l-3.858 4.295h-.426l-1.579 1.693ZM146.064 197v-11.636h2.057V197h-2.057Zm5.477 0-2.841-3.972 1.386-1.448 3.915 5.42h-2.46Zm8.304-5.693V193h-5.238v-1.693h5.238Zm6.262 5.915c-.936 0-1.739-.237-2.409-.711-.667-.477-1.18-1.164-1.54-2.062-.356-.902-.534-1.987-.534-3.256.004-1.269.184-2.348.54-3.238.36-.894.873-1.576 1.54-2.046.67-.47 1.471-.704 2.403-.704.932 0 1.733.234 2.404.704.67.47 1.183 1.152 1.539 2.046.36.893.54 1.973.54 3.238 0 1.273-.18 2.36-.54 3.262-.356.897-.869 1.583-1.539 2.056-.667.474-1.468.711-2.404.711Zm0-1.779c.727 0 1.301-.358 1.722-1.074.424-.719.636-1.778.636-3.176 0-.924-.097-1.701-.29-2.329-.193-.629-.466-1.103-.818-1.421a1.79 1.79 0 0 0-1.25-.483c-.723 0-1.295.36-1.716 1.08-.42.716-.632 1.767-.636 3.153-.004.928.089 1.709.278 2.341.193.633.466 1.11.818 1.432.353.318.771.477 1.256.477Zm10.924-10.079V197h-2.108v-9.585h-.068l-2.722 1.738v-1.931l2.892-1.858h2.006Z"/>
  <path stroke="#000" stroke-linecap="round" stroke-linejoin="round" stroke-width="2" d="M91.726 245.229v-14.812m0 14.812-1.458-1.458a4.387 4.387 0 0 0-3.103-1.285h-3.669a1.096 1.096 0 0 1-1.096-1.097v-11.52c0-.606.491-1.098 1.097-1.098h4.216a4.39 4.39 0 0 1 3.104 1.286l.909.909.909-.909a4.39 4.39 0 0 1 3.103-1.286h4.765c.606 0 1.097.492 1.097 1.098v11.52c0 .606-.491 1.097-1.097 1.097h-4.217c-1.164 0-2.28.462-3.103 1.285l-1.457 1.458Z"/>
  <path fill="#000" d="M117.148 243v-11.636h2.057v4.352h.085c.106-.212.255-.438.449-.676.193-.243.454-.449.784-.62.329-.174.75-.261 1.261-.261.674 0 1.282.172 1.824.517.545.341.977.847 1.295 1.517.322.667.483 1.485.483 2.455 0 .958-.157 1.772-.471 2.443-.315.67-.743 1.182-1.284 1.534a3.307 3.307 0 0 1-1.841.528c-.5 0-.915-.083-1.245-.25a2.526 2.526 0 0 1-.795-.602 3.922 3.922 0 0 1-.46-.676h-.12V243h-2.022Zm2.017-4.364c0 .565.079 1.059.238 1.483.163.425.396.756.699.995.307.234.678.352 1.114.352.454 0 .835-.121 1.142-.364.307-.246.538-.581.693-1.005.159-.428.239-.915.239-1.461a4.16 4.16 0 0 0-.233-1.443c-.155-.42-.387-.75-.693-.988-.307-.239-.69-.358-1.148-.358-.439 0-.813.115-1.119.346-.307.231-.54.555-.699.972-.156.416-.233.907-.233 1.471Zm11.597 4.534c-.853 0-1.591-.187-2.216-.562a3.825 3.825 0 0 1-1.455-1.574c-.341-.674-.511-1.462-.511-2.364 0-.901.17-1.691.511-2.369a3.814 3.814 0 0 1 1.455-1.579c.625-.375 1.363-.563 2.216-.563.852 0 1.591.188 2.216.563a3.774 3.774 0 0 1 1.449 1.579c.344.678.517 1.468.517 2.369 0 .902-.173 1.69-.517 2.364a3.785 3.785 0 0 1-1.449 1.574c-.625.375-1.364.562-2.216.562Zm.011-1.647c.462 0 .849-.127 1.159-.381.311-.258.542-.602.693-1.034.156-.432.233-.913.233-1.443 0-.534-.077-1.017-.233-1.449-.151-.436-.382-.782-.693-1.04-.31-.257-.697-.386-1.159-.386-.473 0-.867.129-1.182.386-.31.258-.543.604-.699 1.04a4.37 4.37 0 0 0-.227 1.449c0 .53.076 1.011.227 1.443.156.432.389.776.699 1.034.315.254.709.381 1.182.381Zm9.543 1.647c-.852 0-1.591-.187-2.216-.562a3.816 3.816 0 0 1-1.454-1.574c-.341-.674-.512-1.462-.512-2.364 0-.901.171-1.691.512-2.369a3.805 3.805 0 0 1 1.454-1.579c.625-.375 1.364-.563 2.216-.563.852 0 1.591.188 2.216.563a3.774 3.774 0 0 1 1.449 1.579c.345.678.517 1.468.517 2.369 0 .902-.172 1.69-.517 2.364a3.785 3.785 0 0 1-1.449 1.574c-.625.375-1.364.562-2.216.562Zm.011-1.647c.463 0 .849-.127 1.16-.381.31-.258.541-.602.693-1.034.155-.432.233-.913.233-1.443 0-.534-.078-1.017-.233-1.449-.152-.436-.383-.782-.693-1.04-.311-.257-.697-.386-1.16-.386-.473 0-.867.129-1.181.386-.311.258-.544.604-.699 1.04a4.345 4.345 0 0 0-.227 1.449c0 .53.075 1.011.227 1.443.155.432.388.776.699 1.034.314.254.708.381 1.181.381Zm7.612-1.262-.006-2.483h.33l3.136-3.505h2.403l-3.858 4.295h-.426l-1.579 1.693ZM146.064 243v-11.636h2.057V243h-2.057Zm5.477 0-2.841-3.972 1.386-1.448 3.915 5.42h-2.46Zm8.304-5.693V239h-5.238v-1.693h5.238Zm6.262 5.915c-.936 0-1.739-.237-2.409-.711-.667-.477-1.18-1.164-1.54-2.062-.356-.902-.534-1.987-.534-3.256.004-1.269.184-2.348.54-3.238.36-.894.873-1.576 1.54-2.046.67-.47 1.471-.704 2.403-.704.932 0 1.733.234 2.404.704.67.47 1.183 1.152 1.539 2.046.36.893.54 1.973.54 3.238 0 1.273-.18 2.36-.54 3.262-.356.897-.869 1.583-1.539 2.056-.667.474-1.468.711-2.404.711Zm0-1.779c.727 0 1.301-.358 1.722-1.074.424-.719.636-1.778.636-3.176 0-.924-.097-1.701-.29-2.329-.193-.629-.466-1.103-.818-1.421a1.79 1.79 0 0 0-1.25-.483c-.723 0-1.295.36-1.716 1.08-.42.716-.632 1.767-.636 3.153-.004.928.089 1.709.278 2.341.193.633.466 1.11.818 1.432.353.318.771.477 1.256.477Zm6.191 1.557v-1.523l4.04-3.96c.386-.39.708-.737.966-1.04.257-.303.45-.596.579-.88.129-.285.193-.588.193-.909 0-.368-.083-.682-.25-.944a1.661 1.661 0 0 0-.687-.613 2.218 2.218 0 0 0-.995-.216c-.382 0-.717.079-1.005.238a1.646 1.646 0 0 0-.671.665c-.155.288-.233.631-.233 1.029h-2.005c0-.739.168-1.381.505-1.927a3.42 3.42 0 0 1 1.392-1.267c.595-.299 1.277-.448 2.046-.448.78 0 1.466.145 2.057.437.591.292 1.049.691 1.375 1.199.329.507.494 1.087.494 1.739 0 .435-.083.863-.25 1.284-.167.42-.46.886-.881 1.397-.416.512-1.002 1.131-1.755 1.858l-2.006 2.04v.08h5.068V243h-7.977Z"/>
  <path stroke="#000" stroke-linecap="round" stroke-width="2" d="M88.571 273.4v19.2m8.915-10.972h-4.8m4.8-4.114h-4.8m-7.543 0H82.4m2.743 4.114H82.4m2.743 4.115H82.4m4.114 6.857h12.343a2.743 2.743 0 0 0 2.743-2.743v-13.714a2.743 2.743 0 0 0-2.743-2.743H86.514a2.743 2.743 0 0 0-2.743 2.743v13.714a2.743 2.743 0 0 0 2.743 2.743Z"/>
  <path fill="#000" d="M117.148 289v-11.636h2.057v4.352h.085c.106-.212.255-.438.449-.676.193-.243.454-.449.784-.62.329-.174.75-.261 1.261-.261.674 0 1.282.172 1.824.517.545.341.977.847 1.295 1.517.322.667.483 1.485.483 2.455 0 .958-.157 1.772-.471 2.443-.315.67-.743 1.182-1.284 1.534a3.307 3.307 0 0 1-1.841.528c-.5 0-.915-.083-1.245-.25a2.526 2.526 0 0 1-.795-.602 3.922 3.922 0 0 1-.46-.676h-.12V289h-2.022Zm2.017-4.364c0 .565.079 1.059.238 1.483.163.425.396.756.699.995.307.234.678.352 1.114.352.454 0 .835-.121 1.142-.364.307-.246.538-.581.693-1.005.159-.428.239-.915.239-1.461a4.16 4.16 0 0 0-.233-1.443c-.155-.42-.387-.75-.693-.988-.307-.239-.69-.358-1.148-.358-.439 0-.813.115-1.119.346-.307.231-.54.555-.699.972-.156.416-.233.907-.233 1.471Zm11.597 4.534c-.853 0-1.591-.187-2.216-.562a3.825 3.825 0 0 1-1.455-1.574c-.341-.674-.511-1.462-.511-2.364 0-.901.17-1.691.511-2.369a3.814 3.814 0 0 1 1.455-1.579c.625-.375 1.363-.563 2.216-.563.852 0 1.591.188 2.216.563a3.774 3.774 0 0 1 1.449 1.579c.344.678.517 1.468.517 2.369 0 .902-.173 1.69-.517 2.364a3.785 3.785 0 0 1-1.449 1.574c-.625.375-1.364.562-2.216.562Zm.011-1.647c.462 0 .849-.127 1.159-.381.311-.258.542-.602.693-1.034.156-.432.233-.913.233-1.443 0-.534-.077-1.017-.233-1.449-.151-.436-.382-.782-.693-1.04-.31-.257-.697-.386-1.159-.386-.473 0-.867.129-1.182.386-.31.258-.543.604-.699 1.04a4.37 4.37 0 0 0-.227 1.449c0 .53.076 1.011.227 1.443.156.432.389.776.699 1.034.315.254.709.381 1.182.381Zm9.543 1.647c-.852 0-1.591-.187-2.216-.562a3.816 3.816 0 0 1-1.454-1.574c-.341-.674-.512-1.462-.512-2.364 0-.901.171-1.691.512-2.369a3.805 3.805 0 0 1 1.454-1.579c.625-.375 1.364-.563 2.216-.563.852 0 1.591.188 2.216.563a3.774 3.774 0 0 1 1.449 1.579c.345.678.517 1.468.517 2.369 0 .902-.172 1.69-.517 2.364a3.785 3.785 0 0 1-1.449 1.574c-.625.375-1.364.562-2.216.562Zm.011-1.647c.463 0 .849-.127 1.16-.381.31-.258.541-.602.693-1.034.155-.432.233-.913.233-1.443 0-.534-.078-1.017-.233-1.449-.152-.436-.383-.782-.693-1.04-.311-.257-.697-.386-1.16-.386-.473 0-.867.129-1.181.386-.311.258-.544.604-.699 1.04a4.345 4.345 0 0 0-.227 1.449c0 .53.075 1.011.227 1.443.155.432.388.776.699 1.034.314.254.708.381 1.181.381Zm7.612-1.262-.006-2.483h.33l3.136-3.505h2.403l-3.858 4.295h-.426l-1.579 1.693ZM146.064 289v-11.636h2.057V289h-2.057Zm5.477 0-2.841-3.972 1.386-1.448 3.915 5.42h-2.46Zm8.304-5.693V285h-5.238v-1.693h5.238Zm6.262 5.915c-.936 0-1.739-.237-2.409-.711-.667-.477-1.18-1.164-1.54-2.062-.356-.902-.534-1.987-.534-3.256.004-1.269.184-2.348.54-3.238.36-.894.873-1.576 1.54-2.046.67-.47 1.471-.704 2.403-.704.932 0 1.733.234 2.404.704.67.47 1.183 1.152 1.539 2.046.36.893.54 1.973.54 3.238 0 1.273-.18 2.36-.54 3.262-.356.897-.869 1.583-1.539 2.056-.667.474-1.468.711-2.404.711Zm0-1.779c.727 0 1.301-.358 1.722-1.074.424-.719.636-1.778.636-3.176 0-.924-.097-1.701-.29-2.329-.193-.629-.466-1.103-.818-1.421a1.79 1.79 0 0 0-1.25-.483c-.723 0-1.295.36-1.716 1.08-.42.716-.632 1.767-.636 3.153-.004.928.089 1.709.278 2.341.193.633.466 1.11.818 1.432.353.318.771.477 1.256.477Zm10.367 1.716c-.818 0-1.545-.14-2.182-.42-.632-.281-1.132-.671-1.5-1.171a3.037 3.037 0 0 1-.585-1.733h2.136c.019.315.123.589.313.824.189.231.441.411.755.54.315.129.667.193 1.057.193.417 0 .786-.072 1.108-.216a1.82 1.82 0 0 0 .756-.614c.182-.261.271-.562.267-.903a1.567 1.567 0 0 0-.273-.932c-.185-.269-.454-.479-.807-.63-.348-.152-.769-.228-1.261-.228h-1.028v-1.625h1.028c.405 0 .76-.07 1.063-.21.306-.14.547-.337.721-.591.174-.257.26-.555.256-.892a1.547 1.547 0 0 0-.222-.858 1.5 1.5 0 0 0-.63-.574 2.08 2.08 0 0 0-.949-.204 2.5 2.5 0 0 0-.989.193 1.8 1.8 0 0 0-.733.551 1.398 1.398 0 0 0-.295.841h-2.029a2.95 2.95 0 0 1 .563-1.716 3.63 3.63 0 0 1 1.454-1.159c.606-.28 1.286-.42 2.04-.42.777 0 1.451.145 2.023.437.576.288 1.021.676 1.335 1.165.314.488.472 1.028.472 1.619.003.655-.19 1.205-.58 1.648-.386.443-.894.733-1.523.869v.091c.819.114 1.445.417 1.881.909.439.489.657 1.097.653 1.824 0 .652-.185 1.235-.556 1.75-.368.511-.875.913-1.523 1.205-.644.291-1.383.437-2.216.437Z"/>
  <path stroke="#000" stroke-linecap="round" stroke-linejoin="round" stroke-width="2" d="M454.492 148.692h-14.03a2.954 2.954 0 0 0-2.954 2.954m16.984-2.954v4.431c0 .816-.661 1.477-1.476 1.477h-12.554a2.954 2.954 0 0 1-2.954-2.954m16.984-2.954v-11.815c0-.816-.661-1.477-1.476-1.477h-10.708m-4.8 16.246v-13.292a2.953 2.953 0 0 1 2.954-2.954h1.846m3.75 4.431h4.05m-4.05 4.43h4.05m-7.8 4.339v-13.2"/>
  <path fill="#000" d="M471.148 151v-11.636h2.057v4.352h.085c.106-.212.255-.438.449-.676.193-.243.454-.449.784-.62.329-.174.75-.261 1.261-.261.674 0 1.282.172 1.824.517.545.341.977.847 1.295 1.517.322.667.483 1.485.483 2.455 0 .958-.157 1.772-.471 2.443-.315.67-.743 1.182-1.284 1.534a3.307 3.307 0 0 1-1.841.528c-.5 0-.915-.083-1.245-.25a2.526 2.526 0 0 1-.795-.602 3.922 3.922 0 0 1-.46-.676h-.12V151h-2.022Zm2.017-4.364c0 .565.079 1.059.238 1.483.163.425.396.756.699.995.307.234.678.352 1.114.352.454 0 .835-.121 1.142-.364.307-.246.538-.581.693-1.005.159-.428.239-.915.239-1.461a4.16 4.16 0 0 0-.233-1.443c-.155-.42-.387-.75-.693-.988-.307-.239-.69-.358-1.148-.358-.439 0-.813.115-1.119.346-.307.231-.54.555-.699.972-.156.416-.233.907-.233 1.471Zm11.597 4.534c-.853 0-1.591-.187-2.216-.562a3.825 3.825 0 0 1-1.455-1.574c-.341-.674-.511-1.462-.511-2.364 0-.901.17-1.691.511-2.369a3.814 3.814 0 0 1 1.455-1.579c.625-.375 1.363-.563 2.216-.563.852 0 1.591.188 2.216.563a3.774 3.774 0 0 1 1.449 1.579c.344.678.517 1.468.517 2.369 0 .902-.173 1.69-.517 2.364a3.785 3.785 0 0 1-1.449 1.574c-.625.375-1.364.562-2.216.562Zm.011-1.647c.462 0 .849-.127 1.159-.381.311-.258.542-.602.693-1.034.156-.432.233-.913.233-1.443 0-.534-.077-1.017-.233-1.449-.151-.436-.382-.782-.693-1.04-.31-.257-.697-.386-1.159-.386-.473 0-.867.129-1.182.386-.31.258-.543.604-.699 1.04a4.37 4.37 0 0 0-.227 1.449c0 .53.076 1.011.227 1.443.156.432.389.776.699 1.034.315.254.709.381 1.182.381Zm9.543 1.647c-.852 0-1.591-.187-2.216-.562a3.816 3.816 0 0 1-1.454-1.574c-.341-.674-.512-1.462-.512-2.364 0-.901.171-1.691.512-2.369a3.805 3.805 0 0 1 1.454-1.579c.625-.375 1.364-.563 2.216-.563.852 0 1.591.188 2.216.563a3.774 3.774 0 0 1 1.449 1.579c.345.678.517 1.468.517 2.369 0 .902-.172 1.69-.517 2.364a3.785 3.785 0 0 1-1.449 1.574c-.625.375-1.364.562-2.216.562Zm.011-1.647c.463 0 .849-.127 1.16-.381.31-.258.541-.602.693-1.034.155-.432.233-.913.233-1.443 0-.534-.078-1.017-.233-1.449-.152-.436-.383-.782-.693-1.04-.311-.257-.697-.386-1.16-.386-.473 0-.867.129-1.181.386-.311.258-.544.604-.699 1.04a4.345 4.345 0 0 0-.227 1.449c0 .53.075 1.011.227 1.443.155.432.388.776.699 1.034.314.254.708.381 1.181.381Zm7.612-1.262-.006-2.483h.33l3.136-3.505h2.403l-3.858 4.295h-.426l-1.579 1.693ZM500.064 151v-11.636h2.057V151h-2.057Zm5.477 0-2.841-3.972 1.386-1.448 3.915 5.42h-2.46Zm8.304-5.693V147h-5.238v-1.693h5.238Zm6.262 5.915c-.936 0-1.739-.237-2.409-.711-.667-.477-1.18-1.164-1.54-2.062-.356-.902-.534-1.987-.534-3.256.004-1.269.184-2.348.54-3.238.36-.894.873-1.576 1.54-2.046.67-.47 1.471-.704 2.403-.704.932 0 1.733.234 2.404.704.67.47 1.183 1.152 1.539 2.046.36.893.54 1.973.54 3.238 0 1.273-.18 2.36-.54 3.262-.356.897-.869 1.583-1.539 2.056-.667.474-1.468.711-2.404.711Zm0-1.779c.727 0 1.301-.358 1.722-1.074.424-.719.636-1.778.636-3.176 0-.924-.097-1.701-.29-2.329-.193-.629-.466-1.103-.818-1.421a1.79 1.79 0 0 0-1.25-.483c-.723 0-1.295.36-1.716 1.08-.42.716-.632 1.767-.636 3.153-.004.928.089 1.709.278 2.341.193.633.466 1.11.818 1.432.353.318.771.477 1.256.477Zm5.981-.602v-1.676l4.937-7.801h1.398v2.386h-.852l-3.324 5.267v.091h6.892v1.733h-9.051Zm5.551 2.159v-2.67l.022-.75v-8.216h1.989V151h-2.011Z"/>
  <path stroke="#000" stroke-linecap="round" stroke-linejoin="round" stroke-width="2" d="M454.492 194.692h-14.03a2.954 2.954 0 0 0-2.954 2.954m16.984-2.954v4.431c0 .816-.661 1.477-1.476 1.477h-12.554a2.954 2.954 0 0 1-2.954-2.954m16.984-2.954v-11.815c0-.816-.661-1.477-1.476-1.477h-10.708m-4.8 16.246v-13.292a2.953 2.953 0 0 1 2.954-2.954h1.846m0 13.2v-13.2"/>
  <path fill="#000" d="M471.148 197v-11.636h2.057v4.352h.085c.106-.212.255-.438.449-.676.193-.243.454-.449.784-.62.329-.174.75-.261 1.261-.261.674 0 1.282.172 1.824.517.545.341.977.847 1.295 1.517.322.667.483 1.485.483 2.455 0 .958-.157 1.772-.471 2.443-.315.67-.743 1.182-1.284 1.534a3.307 3.307 0 0 1-1.841.528c-.5 0-.915-.083-1.245-.25a2.526 2.526 0 0 1-.795-.602 3.922 3.922 0 0 1-.46-.676h-.12V197h-2.022Zm2.017-4.364c0 .565.079 1.059.238 1.483.163.425.396.756.699.995.307.234.678.352 1.114.352.454 0 .835-.121 1.142-.364.307-.246.538-.581.693-1.005.159-.428.239-.915.239-1.461a4.16 4.16 0 0 0-.233-1.443c-.155-.42-.387-.75-.693-.988-.307-.239-.69-.358-1.148-.358-.439 0-.813.115-1.119.346-.307.231-.54.555-.699.972-.156.416-.233.907-.233 1.471Zm11.597 4.534c-.853 0-1.591-.187-2.216-.562a3.825 3.825 0 0 1-1.455-1.574c-.341-.674-.511-1.462-.511-2.364 0-.901.17-1.691.511-2.369a3.814 3.814 0 0 1 1.455-1.579c.625-.375 1.363-.563 2.216-.563.852 0 1.591.188 2.216.563a3.774 3.774 0 0 1 1.449 1.579c.344.678.517 1.468.517 2.369 0 .902-.173 1.69-.517 2.364a3.785 3.785 0 0 1-1.449 1.574c-.625.375-1.364.562-2.216.562Zm.011-1.647c.462 0 .849-.127 1.159-.381.311-.258.542-.602.693-1.034.156-.432.233-.913.233-1.443 0-.534-.077-1.017-.233-1.449-.151-.436-.382-.782-.693-1.04-.31-.257-.697-.386-1.159-.386-.473 0-.867.129-1.182.386-.31.258-.543.604-.699 1.04a4.37 4.37 0 0 0-.227 1.449c0 .53.076 1.011.227 1.443.156.432.389.776.699 1.034.315.254.709.381 1.182.381Zm9.543 1.647c-.852 0-1.591-.187-2.216-.562a3.816 3.816 0 0 1-1.454-1.574c-.341-.674-.512-1.462-.512-2.364 0-.901.171-1.691.512-2.369a3.805 3.805 0 0 1 1.454-1.579c.625-.375 1.364-.563 2.216-.563.852 0 1.591.188 2.216.563a3.774 3.774 0 0 1 1.449 1.579c.345.678.517 1.468.517 2.369 0 .902-.172 1.69-.517 2.364a3.785 3.785 0 0 1-1.449 1.574c-.625.375-1.364.562-2.216.562Zm.011-1.647c.463 0 .849-.127 1.16-.381.31-.258.541-.602.693-1.034.155-.432.233-.913.233-1.443 0-.534-.078-1.017-.233-1.449-.152-.436-.383-.782-.693-1.04-.311-.257-.697-.386-1.16-.386-.473 0-.867.129-1.181.386-.311.258-.544.604-.699 1.04a4.345 4.345 0 0 0-.227 1.449c0 .53.075 1.011.227 1.443.155.432.388.776.699 1.034.314.254.708.381 1.181.381Zm7.612-1.262-.006-2.483h.33l3.136-3.505h2.403l-3.858 4.295h-.426l-1.579 1.693ZM500.064 197v-11.636h2.057V197h-2.057Zm5.477 0-2.841-3.972 1.386-1.448 3.915 5.42h-2.46Zm8.304-5.693V193h-5.238v-1.693h5.238Zm6.262 5.915c-.936 0-1.739-.237-2.409-.711-.667-.477-1.18-1.164-1.54-2.062-.356-.902-.534-1.987-.534-3.256.004-1.269.184-2.348.54-3.238.36-.894.873-1.576 1.54-2.046.67-.47 1.471-.704 2.403-.704.932 0 1.733.234 2.404.704.67.47 1.183 1.152 1.539 2.046.36.893.54 1.973.54 3.238 0 1.273-.18 2.36-.54 3.262-.356.897-.869 1.583-1.539 2.056-.667.474-1.468.711-2.404.711Zm0-1.779c.727 0 1.301-.358 1.722-1.074.424-.719.636-1.778.636-3.176 0-.924-.097-1.701-.29-2.329-.193-.629-.466-1.103-.818-1.421a1.79 1.79 0 0 0-1.25-.483c-.723 0-1.295.36-1.716 1.08-.42.716-.632 1.767-.636 3.153-.004.928.089 1.709.278 2.341.193.633.466 1.11.818 1.432.353.318.771.477 1.256.477Zm10.236 1.716c-.757 0-1.435-.142-2.034-.426a3.63 3.63 0 0 1-1.426-1.182 3.134 3.134 0 0 1-.557-1.716h2.046c.038.477.244.868.619 1.171.375.299.826.449 1.352.449a2.13 2.13 0 0 0 1.103-.285c.322-.189.575-.452.761-.789.186-.337.276-.722.273-1.154a2.329 2.329 0 0 0-.279-1.17 2.08 2.08 0 0 0-.778-.801 2.173 2.173 0 0 0-1.137-.296 2.713 2.713 0 0 0-1.028.193 2.11 2.11 0 0 0-.801.523l-1.903-.312.607-6h6.75v1.761h-5.005l-.335 3.085h.068c.216-.254.521-.464.915-.63a3.212 3.212 0 0 1 1.295-.256c.705 0 1.333.167 1.886.5.553.329.989.784 1.307 1.364.318.579.477 1.242.477 1.988 0 .769-.178 1.455-.534 2.057a3.78 3.78 0 0 1-1.471 1.415c-.625.341-1.349.511-2.171.511Z"/>
  <path stroke="#000" stroke-linecap="round" stroke-linejoin="round" stroke-width="2" d="M454.492 240.692h-14.03a2.954 2.954 0 0 0-2.954 2.954m16.984-2.954v4.431c0 .816-.661 1.477-1.476 1.477h-12.554a2.954 2.954 0 0 1-2.954-2.954m16.984-2.954v-11.815c0-.816-.661-1.477-1.476-1.477h-12.554a2.953 2.953 0 0 0-2.954 2.954v13.292"/>
  <path fill="#000" d="M471.148 243v-11.636h2.057v4.352h.085c.106-.212.255-.438.449-.676.193-.243.454-.449.784-.62.329-.174.75-.261 1.261-.261.674 0 1.282.172 1.824.517.545.341.977.847 1.295 1.517.322.667.483 1.485.483 2.455 0 .958-.157 1.772-.471 2.443-.315.67-.743 1.182-1.284 1.534a3.307 3.307 0 0 1-1.841.528c-.5 0-.915-.083-1.245-.25a2.526 2.526 0 0 1-.795-.602 3.922 3.922 0 0 1-.46-.676h-.12V243h-2.022Zm2.017-4.364c0 .565.079 1.059.238 1.483.163.425.396.756.699.995.307.234.678.352 1.114.352.454 0 .835-.121 1.142-.364.307-.246.538-.581.693-1.005.159-.428.239-.915.239-1.461a4.16 4.16 0 0 0-.233-1.443c-.155-.42-.387-.75-.693-.988-.307-.239-.69-.358-1.148-.358-.439 0-.813.115-1.119.346-.307.231-.54.555-.699.972-.156.416-.233.907-.233 1.471Zm11.597 4.534c-.853 0-1.591-.187-2.216-.562a3.825 3.825 0 0 1-1.455-1.574c-.341-.674-.511-1.462-.511-2.364 0-.901.17-1.691.511-2.369a3.814 3.814 0 0 1 1.455-1.579c.625-.375 1.363-.563 2.216-.563.852 0 1.591.188 2.216.563a3.774 3.774 0 0 1 1.449 1.579c.344.678.517 1.468.517 2.369 0 .902-.173 1.69-.517 2.364a3.785 3.785 0 0 1-1.449 1.574c-.625.375-1.364.562-2.216.562Zm.011-1.647c.462 0 .849-.127 1.159-.381.311-.258.542-.602.693-1.034.156-.432.233-.913.233-1.443 0-.534-.077-1.017-.233-1.449-.151-.436-.382-.782-.693-1.04-.31-.257-.697-.386-1.159-.386-.473 0-.867.129-1.182.386-.31.258-.543.604-.699 1.04a4.37 4.37 0 0 0-.227 1.449c0 .53.076 1.011.227 1.443.156.432.389.776.699 1.034.315.254.709.381 1.182.381Zm9.543 1.647c-.852 0-1.591-.187-2.216-.562a3.816 3.816 0 0 1-1.454-1.574c-.341-.674-.512-1.462-.512-2.364 0-.901.171-1.691.512-2.369a3.805 3.805 0 0 1 1.454-1.579c.625-.375 1.364-.563 2.216-.563.852 0 1.591.188 2.216.563a3.774 3.774 0 0 1 1.449 1.579c.345.678.517 1.468.517 2.369 0 .902-.172 1.69-.517 2.364a3.785 3.785 0 0 1-1.449 1.574c-.625.375-1.364.562-2.216.562Zm.011-1.647c.463 0 .849-.127 1.16-.381.31-.258.541-.602.693-1.034.155-.432.233-.913.233-1.443 0-.534-.078-1.017-.233-1.449-.152-.436-.383-.782-.693-1.04-.311-.257-.697-.386-1.16-.386-.473 0-.867.129-1.181.386-.311.258-.544.604-.699 1.04a4.345 4.345 0 0 0-.227 1.449c0 .53.075 1.011.227 1.443.155.432.388.776.699 1.034.314.254.708.381 1.181.381Zm7.612-1.262-.006-2.483h.33l3.136-3.505h2.403l-3.858 4.295h-.426l-1.579 1.693ZM500.064 243v-11.636h2.057V243h-2.057Zm5.477 0-2.841-3.972 1.386-1.448 3.915 5.42h-2.46Zm8.304-5.693V239h-5.238v-1.693h5.238Zm6.262 5.915c-.936 0-1.739-.237-2.409-.711-.667-.477-1.18-1.164-1.54-2.062-.356-.902-.534-1.987-.534-3.256.004-1.269.184-2.348.54-3.238.36-.894.873-1.576 1.54-2.046.67-.47 1.471-.704 2.403-.704.932 0 1.733.234 2.404.704.67.47 1.183 1.152 1.539 2.046.36.893.54 1.973.54 3.238 0 1.273-.18 2.36-.54 3.262-.356.897-.869 1.583-1.539 2.056-.667.474-1.468.711-2.404.711Zm0-1.779c.727 0 1.301-.358 1.722-1.074.424-.719.636-1.778.636-3.176 0-.924-.097-1.701-.29-2.329-.193-.629-.466-1.103-.818-1.421a1.79 1.79 0 0 0-1.25-.483c-.723 0-1.295.36-1.716 1.08-.42.716-.632 1.767-.636 3.153-.004.928.089 1.709.278 2.341.193.633.466 1.11.818 1.432.353.318.771.477 1.256.477Zm10.452 1.716c-.557-.004-1.1-.1-1.63-.29a3.823 3.823 0 0 1-1.432-.937c-.425-.436-.762-1.013-1.012-1.733-.25-.724-.373-1.619-.369-2.688 0-.996.106-1.884.318-2.664.212-.781.517-1.44.915-1.978a4.047 4.047 0 0 1 1.437-1.238 4.155 4.155 0 0 1 1.893-.426c.731 0 1.378.143 1.943.431a3.667 3.667 0 0 1 1.375 1.182c.348.496.564 1.057.647 1.682h-2.073a1.88 1.88 0 0 0-.654-1.068c-.326-.269-.738-.404-1.238-.404-.807 0-1.429.351-1.864 1.052-.432.7-.65 1.662-.654 2.886h.08c.186-.333.426-.619.722-.858a3.28 3.28 0 0 1 1-.551c.375-.133.77-.199 1.187-.199.682 0 1.294.163 1.835.489a3.53 3.53 0 0 1 1.296 1.346c.318.568.475 1.22.471 1.955.004.765-.17 1.452-.522 2.062a3.796 3.796 0 0 1-1.472 1.432c-.629.349-1.362.521-2.199.517Zm-.011-1.704c.413 0 .782-.101 1.108-.302.326-.2.583-.471.773-.812.189-.341.282-.724.278-1.148a2.26 2.26 0 0 0-.273-1.131 2.085 2.085 0 0 0-.755-.801 2.071 2.071 0 0 0-1.103-.295 2.1 2.1 0 0 0-1.551.665 2.29 2.29 0 0 0-.636 1.579c.004.406.098.779.284 1.12.185.34.441.613.767.818.326.204.695.307 1.108.307Z"/>
  <path stroke="#000" stroke-linecap="round" stroke-linejoin="round" stroke-width="2" d="M436.4 283.259h9.34m.519 9.341v-19.2m-4.929 6.746v-3.373m-1.687 1.686h3.373m-3.373 9.99h3.373m6.357-3.373h3.373m-3.373-3.114h3.373M438.994 292.6h14.011a2.595 2.595 0 0 0 2.595-2.595v-14.011a2.595 2.595 0 0 0-2.595-2.594h-14.011a2.595 2.595 0 0 0-2.594 2.594v14.011a2.595 2.595 0 0 0 2.594 2.595Z"/>
  <path fill="#000" d="M474.864 289.17c-.872 0-1.62-.191-2.245-.573a3.832 3.832 0 0 1-1.437-1.586c-.334-.678-.5-1.458-.5-2.341 0-.886.17-1.668.511-2.346a3.819 3.819 0 0 1 1.443-1.591c.625-.383 1.364-.574 2.216-.574.709 0 1.336.131 1.881.392.549.258.987.623 1.312 1.097.326.469.512 1.019.557 1.647h-1.966a1.88 1.88 0 0 0-.568-1.051c-.295-.284-.691-.426-1.187-.426-.421 0-.79.114-1.108.341-.318.224-.567.546-.745.966-.174.42-.261.924-.261 1.511 0 .595.087 1.106.261 1.534.175.425.419.752.733.983.319.228.692.341 1.12.341.303 0 .574-.057.812-.17.243-.118.445-.286.608-.506.163-.22.275-.487.335-.801h1.966a3.43 3.43 0 0 1-.545 1.642 3.235 3.235 0 0 1-1.284 1.114c-.542.265-1.178.397-1.909.397Zm7.759.006a3.643 3.643 0 0 1-1.495-.295 2.44 2.44 0 0 1-1.045-.887c-.254-.39-.381-.871-.381-1.443 0-.492.091-.899.273-1.221.182-.322.43-.58.744-.773a3.785 3.785 0 0 1 1.063-.438 8.579 8.579 0 0 1 1.233-.221c.511-.053.926-.101 1.244-.142.318-.046.549-.114.693-.205.148-.095.222-.24.222-.437v-.034c0-.428-.127-.76-.381-.995s-.619-.352-1.097-.352c-.503 0-.903.11-1.198.329-.292.22-.489.48-.591.779l-1.921-.273c.152-.53.402-.973.75-1.329.349-.36.775-.629 1.279-.807a4.88 4.88 0 0 1 1.67-.273c.421 0 .839.049 1.256.148.416.098.797.261 1.142.488.344.224.621.529.829.915.212.387.319.87.319 1.449V289h-1.978v-1.199h-.068c-.125.243-.301.47-.528.682a2.557 2.557 0 0 1-.847.506c-.337.125-.733.187-1.187.187Zm.534-1.511c.413 0 .77-.082 1.074-.245.303-.166.535-.386.698-.659.167-.272.25-.57.25-.892v-1.028a.973.973 0 0 1-.329.148 4.76 4.76 0 0 1-.512.119c-.189.034-.376.064-.562.091l-.483.068a3.6 3.6 0 0 0-.824.205 1.367 1.367 0 0 0-.574.397c-.14.167-.21.383-.21.648 0 .379.138.665.415.858.276.193.629.29 1.057.29Zm8.019-10.301V289h-2.057v-11.636h2.057Zm5.741 11.806c-.871 0-1.619-.191-2.244-.573a3.832 3.832 0 0 1-1.437-1.586c-.334-.678-.5-1.458-.5-2.341 0-.886.17-1.668.511-2.346a3.819 3.819 0 0 1 1.443-1.591c.625-.383 1.364-.574 2.216-.574.708 0 1.335.131 1.881.392.549.258.986.623 1.312 1.097.326.469.512 1.019.557 1.647h-1.966a1.88 1.88 0 0 0-.568-1.051c-.296-.284-.691-.426-1.188-.426-.42 0-.789.114-1.108.341-.318.224-.566.546-.744.966-.174.42-.261.924-.261 1.511 0 .595.087 1.106.261 1.534.174.425.419.752.733.983a1.87 1.87 0 0 0 1.119.341c.303 0 .574-.057.813-.17.242-.118.445-.286.608-.506.163-.22.275-.487.335-.801h1.966a3.43 3.43 0 0 1-.545 1.642 3.232 3.232 0 0 1-1.285 1.114c-.541.265-1.178.397-1.909.397Zm10.81-3.84v-5.057h2.057V289h-1.994v-1.551h-.091a2.63 2.63 0 0 1-.972 1.199c-.447.31-.998.466-1.653.466-.572 0-1.078-.127-1.517-.381a2.648 2.648 0 0 1-1.023-1.119c-.246-.493-.369-1.087-.369-1.784v-5.557h2.057v5.238c0 .553.151.993.454 1.319.303.325.701.488 1.193.488.304 0 .597-.074.881-.221a1.8 1.8 0 0 0 .699-.659c.186-.296.278-.665.278-1.108Zm6.049-7.966V289h-2.057v-11.636h2.057Zm4.447 11.812a3.643 3.643 0 0 1-1.495-.295 2.44 2.44 0 0 1-1.045-.887c-.254-.39-.381-.871-.381-1.443 0-.492.091-.899.273-1.221.182-.322.43-.58.744-.773a3.785 3.785 0 0 1 1.063-.438 8.579 8.579 0 0 1 1.233-.221c.511-.053.926-.101 1.244-.142.318-.046.549-.114.693-.205.148-.095.222-.24.222-.437v-.034c0-.428-.127-.76-.381-.995s-.619-.352-1.097-.352c-.503 0-.903.11-1.198.329-.292.22-.489.48-.591.779l-1.921-.273c.152-.53.402-.973.75-1.329.349-.36.775-.629 1.279-.807a4.88 4.88 0 0 1 1.67-.273c.421 0 .839.049 1.256.148.416.098.797.261 1.142.488.344.224.621.529.829.915.212.387.319.87.319 1.449V289h-1.978v-1.199h-.068c-.125.243-.301.47-.528.682a2.557 2.557 0 0 1-.847.506c-.337.125-.733.187-1.187.187Zm.534-1.511c.413 0 .77-.082 1.074-.245.303-.166.535-.386.698-.659.167-.272.25-.57.25-.892v-1.028a.973.973 0 0 1-.329.148 4.76 4.76 0 0 1-.512.119c-.189.034-.376.064-.562.091l-.483.068a3.6 3.6 0 0 0-.824.205 1.367 1.367 0 0 0-.574.397c-.14.167-.21.383-.21.648 0 .379.138.665.415.858.276.193.629.29 1.057.29Zm10.32-7.392v1.591h-5.017v-1.591h5.017Zm-3.779-2.091h2.057v8.193c0 .277.042.489.125.636a.676.676 0 0 0 .341.296c.14.053.295.079.466.079.129 0 .246-.009.352-.028.11-.019.193-.036.25-.051l.347 1.608c-.11.038-.267.079-.472.125a3.857 3.857 0 0 1-.738.079 3.35 3.35 0 0 1-1.393-.233 2.166 2.166 0 0 1-.982-.806c-.239-.364-.357-.819-.353-1.364v-8.534Zm9.032 10.988c-.852 0-1.591-.187-2.216-.562a3.825 3.825 0 0 1-1.455-1.574c-.34-.674-.511-1.462-.511-2.364 0-.901.171-1.691.511-2.369a3.814 3.814 0 0 1 1.455-1.579c.625-.375 1.364-.563 2.216-.563.852 0 1.591.188 2.216.563a3.774 3.774 0 0 1 1.449 1.579c.344.678.517 1.468.517 2.369 0 .902-.173 1.69-.517 2.364a3.785 3.785 0 0 1-1.449 1.574c-.625.375-1.364.562-2.216.562Zm.011-1.647c.462 0 .849-.127 1.159-.381.311-.258.542-.602.694-1.034a4.25 4.25 0 0 0 .232-1.443c0-.534-.077-1.017-.232-1.449-.152-.436-.383-.782-.694-1.04-.31-.257-.697-.386-1.159-.386-.473 0-.867.129-1.182.386-.31.258-.543.604-.698 1.04a4.345 4.345 0 0 0-.228 1.449c0 .53.076 1.011.228 1.443.155.432.388.776.698 1.034.315.254.709.381 1.182.381Zm5.736 1.477v-8.727h1.995v1.454h.091c.159-.504.431-.892.818-1.165.39-.276.835-.414 1.335-.414.114 0 .241.005.381.017.144.007.263.021.358.04v1.892a2.13 2.13 0 0 0-.415-.08 3.906 3.906 0 0 0-.54-.04c-.375 0-.712.082-1.011.245a1.78 1.78 0 0 0-.699.664 1.869 1.869 0 0 0-.256.983V289h-2.057Zm11.063-5.693V285h-5.238v-1.693h5.238Zm6.262 5.915c-.936 0-1.739-.237-2.409-.711-.667-.477-1.18-1.164-1.54-2.062-.356-.902-.534-1.987-.534-3.256.004-1.269.184-2.348.54-3.238.36-.894.873-1.576 1.54-2.046.67-.47 1.471-.704 2.403-.704.932 0 1.733.234 2.404.704.67.47 1.183 1.152 1.539 2.046.36.893.54 1.973.54 3.238 0 1.273-.18 2.36-.54 3.262-.356.897-.869 1.583-1.539 2.056-.667.474-1.468.711-2.404.711Zm0-1.779c.727 0 1.301-.358 1.722-1.074.424-.719.636-1.778.636-3.176 0-.924-.097-1.701-.29-2.329-.193-.629-.466-1.103-.818-1.421a1.79 1.79 0 0 0-1.25-.483c-.723 0-1.295.36-1.716 1.08-.42.716-.632 1.767-.636 3.153-.004.928.089 1.709.278 2.341.193.633.466 1.11.818 1.432.353.318.771.477 1.256.477Zm10.924-10.079V289h-2.108v-9.585h-.068l-2.722 1.738v-1.931l2.892-1.858h2.006Z"/>
  <path stroke="#000" stroke-linecap="round" stroke-linejoin="round" stroke-width="2" d="m829.375 150.625 11.25-11.25m-9.375 4.375v-2.5m0 0v-2.5m0 2.5h-2.5m2.5 0h2.5m2.5 8.125h5M827.703 155h14.594a2.703 2.703 0 0 0 2.703-2.703v-14.594a2.703 2.703 0 0 0-2.703-2.703h-14.594a2.703 2.703 0 0 0-2.703 2.703v14.594a2.703 2.703 0 0 0 2.703 2.703Z"/>
  <path fill="#000" d="M863.864 151.17c-.872 0-1.62-.191-2.245-.573a3.832 3.832 0 0 1-1.437-1.586c-.334-.678-.5-1.458-.5-2.341 0-.886.17-1.668.511-2.346a3.819 3.819 0 0 1 1.443-1.591c.625-.383 1.364-.574 2.216-.574.709 0 1.336.131 1.881.392.549.258.987.623 1.312 1.097.326.469.512 1.019.557 1.647h-1.966a1.88 1.88 0 0 0-.568-1.051c-.295-.284-.691-.426-1.187-.426-.421 0-.79.114-1.108.341-.318.224-.567.546-.745.966-.174.42-.261.924-.261 1.511 0 .595.087 1.106.261 1.534.175.425.419.752.733.983.319.228.692.341 1.12.341.303 0 .574-.057.812-.17.243-.118.445-.286.608-.506.163-.22.275-.487.335-.801h1.966a3.43 3.43 0 0 1-.545 1.642 3.235 3.235 0 0 1-1.284 1.114c-.542.265-1.178.397-1.909.397Zm7.759.006a3.643 3.643 0 0 1-1.495-.295 2.44 2.44 0 0 1-1.045-.887c-.254-.39-.381-.871-.381-1.443 0-.492.091-.899.273-1.221.182-.322.43-.58.744-.773a3.785 3.785 0 0 1 1.063-.438 8.579 8.579 0 0 1 1.233-.221c.511-.053.926-.101 1.244-.142.318-.046.549-.114.693-.205.148-.095.222-.24.222-.437v-.034c0-.428-.127-.76-.381-.995s-.619-.352-1.097-.352c-.503 0-.903.11-1.198.329-.292.22-.489.48-.591.779l-1.921-.273c.152-.53.402-.973.75-1.329.349-.36.775-.629 1.279-.807a4.88 4.88 0 0 1 1.67-.273c.421 0 .839.049 1.256.148.416.098.797.261 1.142.488.344.224.621.529.829.915.212.387.319.87.319 1.449V151h-1.978v-1.199h-.068c-.125.243-.301.47-.528.682a2.557 2.557 0 0 1-.847.506c-.337.125-.733.187-1.187.187Zm.534-1.511c.413 0 .77-.082 1.074-.245.303-.166.535-.386.698-.659.167-.272.25-.57.25-.892v-1.028a.973.973 0 0 1-.329.148 4.76 4.76 0 0 1-.512.119c-.189.034-.376.064-.562.091l-.483.068a3.6 3.6 0 0 0-.824.205 1.367 1.367 0 0 0-.574.397c-.14.167-.21.383-.21.648 0 .379.138.665.415.858.276.193.629.29 1.057.29Zm8.019-10.301V151h-2.057v-11.636h2.057Zm5.741 11.806c-.871 0-1.619-.191-2.244-.573a3.832 3.832 0 0 1-1.437-1.586c-.334-.678-.5-1.458-.5-2.341 0-.886.17-1.668.511-2.346a3.819 3.819 0 0 1 1.443-1.591c.625-.383 1.364-.574 2.216-.574.708 0 1.335.131 1.881.392.549.258.986.623 1.312 1.097.326.469.512 1.019.557 1.647h-1.966a1.88 1.88 0 0 0-.568-1.051c-.296-.284-.691-.426-1.188-.426-.42 0-.789.114-1.108.341-.318.224-.566.546-.744.966-.174.42-.261.924-.261 1.511 0 .595.087 1.106.261 1.534.174.425.419.752.733.983a1.87 1.87 0 0 0 1.119.341c.303 0 .574-.057.813-.17.242-.118.445-.286.608-.506.163-.22.275-.487.335-.801h1.966a3.43 3.43 0 0 1-.545 1.642 3.232 3.232 0 0 1-1.285 1.114c-.541.265-1.178.397-1.909.397Zm10.81-3.84v-5.057h2.057V151h-1.994v-1.551h-.091a2.63 2.63 0 0 1-.972 1.199c-.447.31-.998.466-1.653.466-.572 0-1.078-.127-1.517-.381a2.648 2.648 0 0 1-1.023-1.119c-.246-.493-.369-1.087-.369-1.784v-5.557h2.057v5.238c0 .553.151.993.454 1.319.303.325.701.488 1.193.488.304 0 .597-.074.881-.221a1.8 1.8 0 0 0 .699-.659c.186-.296.278-.665.278-1.108Zm6.049-7.966V151h-2.057v-11.636h2.057Zm4.447 11.812a3.643 3.643 0 0 1-1.495-.295 2.44 2.44 0 0 1-1.045-.887c-.254-.39-.381-.871-.381-1.443 0-.492.091-.899.273-1.221.182-.322.43-.58.744-.773a3.785 3.785 0 0 1 1.063-.438 8.579 8.579 0 0 1 1.233-.221c.511-.053.926-.101 1.244-.142.318-.046.549-.114.693-.205.148-.095.222-.24.222-.437v-.034c0-.428-.127-.76-.381-.995s-.619-.352-1.097-.352c-.503 0-.903.11-1.198.329-.292.22-.489.48-.591.779l-1.921-.273c.152-.53.402-.973.75-1.329.349-.36.775-.629 1.279-.807a4.88 4.88 0 0 1 1.67-.273c.421 0 .839.049 1.256.148.416.098.797.261 1.142.488.344.224.621.529.829.915.212.387.319.87.319 1.449V151h-1.978v-1.199h-.068c-.125.243-.301.47-.528.682a2.557 2.557 0 0 1-.847.506c-.337.125-.733.187-1.187.187Zm.534-1.511c.413 0 .77-.082 1.074-.245.303-.166.535-.386.698-.659.167-.272.25-.57.25-.892v-1.028a.973.973 0 0 1-.329.148 4.76 4.76 0 0 1-.512.119c-.189.034-.376.064-.562.091l-.483.068a3.6 3.6 0 0 0-.824.205 1.367 1.367 0 0 0-.574.397c-.14.167-.21.383-.21.648 0 .379.138.665.415.858.276.193.629.29 1.057.29Zm10.32-7.392v1.591h-5.017v-1.591h5.017Zm-3.779-2.091h2.057v8.193c0 .277.042.489.125.636a.676.676 0 0 0 .341.296c.14.053.295.079.466.079.129 0 .246-.009.352-.028.11-.019.193-.036.25-.051l.347 1.608c-.11.038-.267.079-.472.125a3.857 3.857 0 0 1-.738.079 3.35 3.35 0 0 1-1.393-.233 2.166 2.166 0 0 1-.982-.806c-.239-.364-.357-.819-.353-1.364v-8.534Zm9.032 10.988c-.852 0-1.591-.187-2.216-.562a3.825 3.825 0 0 1-1.455-1.574c-.34-.674-.511-1.462-.511-2.364 0-.901.171-1.691.511-2.369a3.814 3.814 0 0 1 1.455-1.579c.625-.375 1.364-.563 2.216-.563.852 0 1.591.188 2.216.563a3.774 3.774 0 0 1 1.449 1.579c.344.678.517 1.468.517 2.369 0 .902-.173 1.69-.517 2.364a3.785 3.785 0 0 1-1.449 1.574c-.625.375-1.364.562-2.216.562Zm.011-1.647c.462 0 .849-.127 1.159-.381.311-.258.542-.602.694-1.034a4.25 4.25 0 0 0 .232-1.443c0-.534-.077-1.017-.232-1.449-.152-.436-.383-.782-.694-1.04-.31-.257-.697-.386-1.159-.386-.473 0-.867.129-1.182.386-.31.258-.543.604-.698 1.04a4.345 4.345 0 0 0-.228 1.449c0 .53.076 1.011.228 1.443.155.432.388.776.698 1.034.315.254.709.381 1.182.381Zm5.736 1.477v-8.727h1.995v1.454h.091c.159-.504.431-.892.818-1.165.39-.276.835-.414 1.335-.414.114 0 .241.005.381.017.144.007.263.021.358.04v1.892a2.13 2.13 0 0 0-.415-.08 3.906 3.906 0 0 0-.54-.04c-.375 0-.712.082-1.011.245a1.78 1.78 0 0 0-.699.664 1.869 1.869 0 0 0-.256.983V151h-2.057Zm11.063-5.693V147h-5.238v-1.693h5.238Zm6.262 5.915c-.936 0-1.739-.237-2.409-.711-.667-.477-1.18-1.164-1.54-2.062-.356-.902-.534-1.987-.534-3.256.004-1.269.184-2.348.54-3.238.36-.894.873-1.576 1.54-2.046.67-.47 1.471-.704 2.403-.704.932 0 1.733.234 2.404.704.67.47 1.183 1.152 1.539 2.046.36.893.54 1.973.54 3.238 0 1.273-.18 2.36-.54 3.262-.356.897-.869 1.583-1.539 2.056-.667.474-1.468.711-2.404.711Zm0-1.779c.727 0 1.301-.358 1.722-1.074.424-.719.636-1.778.636-3.176 0-.924-.097-1.701-.29-2.329-.193-.629-.466-1.103-.818-1.421a1.79 1.79 0 0 0-1.25-.483c-.723 0-1.295.36-1.716 1.08-.42.716-.632 1.767-.636 3.153-.004.928.089 1.709.278 2.341.193.633.466 1.11.818 1.432.353.318.771.477 1.256.477Zm6.191 1.557v-1.523l4.04-3.96c.386-.39.708-.737.966-1.04.257-.303.45-.596.579-.88.129-.285.193-.588.193-.909 0-.368-.083-.682-.25-.944a1.661 1.661 0 0 0-.687-.613 2.218 2.218 0 0 0-.995-.216c-.382 0-.717.079-1.005.238a1.646 1.646 0 0 0-.671.665c-.155.288-.233.631-.233 1.029h-2.005c0-.739.168-1.381.505-1.927a3.42 3.42 0 0 1 1.392-1.267c.595-.299 1.277-.448 2.046-.448.78 0 1.466.145 2.057.437.591.292 1.049.691 1.375 1.199.329.507.494 1.087.494 1.739 0 .435-.083.863-.25 1.284-.167.42-.46.886-.881 1.397-.416.512-1.002 1.131-1.755 1.858l-2.006 2.04v.08h5.068V151h-7.977Z"/>
  <path stroke="#000" stroke-linecap="round" stroke-linejoin="round" stroke-width="2" d="m826.583 200.6 7.365-12.888m2.63 0 6.838 12.888m-16.053-6.838c1.928 2.902 4.753 4.734 7.9 4.734 3.148 0 5.973-1.832 7.901-4.734m-7.901-11.047a2.63 2.63 0 1 0 0 5.26 2.63 2.63 0 0 0 0-5.26Zm0 0V181.4"/>
  <path fill="#000" d="M863.864 197.17c-.872 0-1.62-.191-2.245-.573a3.832 3.832 0 0 1-1.437-1.586c-.334-.678-.5-1.458-.5-2.341 0-.886.17-1.668.511-2.346a3.819 3.819 0 0 1 1.443-1.591c.625-.383 1.364-.574 2.216-.574.709 0 1.336.131 1.881.392.549.258.987.623 1.312 1.097.326.469.512 1.019.557 1.647h-1.966a1.88 1.88 0 0 0-.568-1.051c-.295-.284-.691-.426-1.187-.426-.421 0-.79.114-1.108.341-.318.224-.567.546-.745.966-.174.42-.261.924-.261 1.511 0 .595.087 1.106.261 1.534.175.425.419.752.733.983.319.228.692.341 1.12.341.303 0 .574-.057.812-.17.243-.118.445-.286.608-.506.163-.22.275-.487.335-.801h1.966a3.43 3.43 0 0 1-.545 1.642 3.235 3.235 0 0 1-1.284 1.114c-.542.265-1.178.397-1.909.397Zm9.054 0c-.852 0-1.591-.187-2.216-.562a3.816 3.816 0 0 1-1.454-1.574c-.341-.674-.512-1.462-.512-2.364 0-.901.171-1.691.512-2.369a3.805 3.805 0 0 1 1.454-1.579c.625-.375 1.364-.563 2.216-.563.852 0 1.591.188 2.216.563a3.774 3.774 0 0 1 1.449 1.579c.344.678.517 1.468.517 2.369 0 .902-.173 1.69-.517 2.364a3.785 3.785 0 0 1-1.449 1.574c-.625.375-1.364.562-2.216.562Zm.011-1.647c.462 0 .849-.127 1.159-.381.311-.258.542-.602.694-1.034.155-.432.233-.913.233-1.443 0-.534-.078-1.017-.233-1.449-.152-.436-.383-.782-.694-1.04-.31-.257-.697-.386-1.159-.386-.473 0-.867.129-1.181.386-.311.258-.544.604-.699 1.04a4.345 4.345 0 0 0-.228 1.449c0 .53.076 1.011.228 1.443.155.432.388.776.699 1.034.314.254.708.381 1.181.381Zm5.737 1.477v-8.727h1.965v1.483h.103c.182-.5.483-.89.903-1.171.421-.284.923-.426 1.506-.426.591 0 1.089.144 1.494.432.409.284.697.672.864 1.165h.091c.193-.485.519-.872.977-1.159.462-.292 1.009-.438 1.642-.438.803 0 1.458.254 1.966.761.508.508.761 1.249.761 2.222V197h-2.062v-5.54c0-.541-.144-.937-.432-1.187a1.54 1.54 0 0 0-1.057-.381c-.496 0-.884.155-1.165.466-.276.307-.414.706-.414 1.199V197h-2.017v-5.625c0-.451-.137-.811-.41-1.08-.268-.268-.621-.403-1.056-.403-.296 0-.565.076-.807.227a1.584 1.584 0 0 0-.58.631 1.968 1.968 0 0 0-.216.943V197h-2.056Zm14.179 3.273v-12h2.023v1.443h.119c.106-.212.256-.438.449-.676.193-.243.454-.449.784-.62.329-.174.75-.261 1.261-.261a3.32 3.32 0 0 1 1.824.517c.546.341.977.847 1.296 1.517.322.667.483 1.485.483 2.455 0 .958-.158 1.772-.472 2.443-.314.67-.742 1.182-1.284 1.534a3.304 3.304 0 0 1-1.841.528c-.5 0-.915-.083-1.244-.25a2.519 2.519 0 0 1-.796-.602 3.922 3.922 0 0 1-.46-.676h-.085v4.648h-2.057Zm2.017-7.637c0 .565.08 1.059.239 1.483.163.425.395.756.698.995.307.234.679.352 1.114.352.455 0 .835-.121 1.142-.364.307-.246.538-.581.693-1.005.159-.428.239-.915.239-1.461a4.16 4.16 0 0 0-.233-1.443c-.155-.42-.386-.75-.693-.988-.307-.239-.69-.358-1.148-.358-.439 0-.812.115-1.119.346-.307.231-.54.555-.699.972-.155.416-.233.907-.233 1.471Zm10.314 4.54a3.639 3.639 0 0 1-1.494-.295 2.44 2.44 0 0 1-1.045-.887c-.254-.39-.381-.871-.381-1.443 0-.492.091-.899.273-1.221.181-.322.43-.58.744-.773a3.767 3.767 0 0 1 1.062-.438 8.628 8.628 0 0 1 1.233-.221 51.91 51.91 0 0 0 1.245-.142c.318-.046.549-.114.693-.205.148-.095.221-.24.221-.437v-.034c0-.428-.126-.76-.38-.995s-.62-.352-1.097-.352c-.504 0-.903.11-1.199.329-.291.22-.488.48-.591.779l-1.92-.273c.151-.53.401-.973.75-1.329.348-.36.775-.629 1.278-.807a4.89 4.89 0 0 1 1.671-.273c.42 0 .839.049 1.255.148.417.098.798.261 1.143.488.344.224.621.529.829.915.212.387.318.87.318 1.449V197h-1.977v-1.199h-.068a2.49 2.49 0 0 1-1.375 1.188c-.337.125-.733.187-1.188.187Zm.534-1.511c.413 0 .771-.082 1.074-.245a1.8 1.8 0 0 0 .699-.659c.167-.272.25-.57.25-.892v-1.028a.973.973 0 0 1-.329.148 4.76 4.76 0 0 1-.512.119 17.23 17.23 0 0 1-.562.091l-.483.068c-.307.042-.582.11-.824.205a1.36 1.36 0 0 0-.574.397c-.14.167-.21.383-.21.648 0 .379.138.665.415.858.276.193.628.29 1.056.29Zm12.86-5.085-1.875.204a1.52 1.52 0 0 0-.278-.534 1.376 1.376 0 0 0-.523-.403c-.22-.103-.489-.154-.807-.154-.428 0-.788.093-1.079.279-.288.185-.43.426-.426.721a.754.754 0 0 0 .278.619c.193.16.511.29.954.393l1.489.318c.826.178 1.44.46 1.841.846.405.387.61.892.614 1.517a2.377 2.377 0 0 1-.483 1.455c-.315.417-.752.742-1.313.977-.56.235-1.204.352-1.932.352-1.068 0-1.928-.223-2.579-.67-.652-.451-1.04-1.078-1.165-1.881l2.006-.193c.091.394.284.691.579.892.296.201.68.301 1.154.301.488 0 .88-.1 1.176-.301.299-.201.449-.449.449-.744a.774.774 0 0 0-.29-.619c-.189-.163-.485-.288-.886-.375l-1.489-.313c-.837-.174-1.456-.468-1.858-.881-.402-.416-.6-.943-.597-1.579-.003-.538.142-1.004.438-1.398.299-.398.714-.704 1.244-.92.534-.22 1.15-.33 1.847-.33 1.023 0 1.827.218 2.415.653.59.436.956 1.025 1.096 1.768Zm8.601 0-1.875.204a1.504 1.504 0 0 0-.278-.534 1.376 1.376 0 0 0-.523-.403c-.219-.103-.488-.154-.807-.154-.428 0-.787.093-1.079.279-.288.185-.43.426-.426.721a.754.754 0 0 0 .278.619c.193.16.512.29.955.393l1.488.318c.826.178 1.44.46 1.841.846.406.387.61.892.614 1.517a2.377 2.377 0 0 1-.483 1.455c-.314.417-.752.742-1.313.977-.56.235-1.204.352-1.931.352-1.069 0-1.928-.223-2.58-.67-.651-.451-1.04-1.078-1.165-1.881l2.006-.193c.091.394.284.691.58.892.295.201.679.301 1.153.301.489 0 .881-.1 1.176-.301.299-.201.449-.449.449-.744a.774.774 0 0 0-.29-.619c-.189-.163-.485-.288-.886-.375l-1.489-.313c-.837-.174-1.456-.468-1.858-.881-.401-.416-.6-.943-.596-1.579-.004-.538.142-1.004.437-1.398.299-.398.714-.704 1.244-.92.535-.22 1.15-.33 1.847-.33 1.023 0 1.828.218 2.415.653.591.436.956 1.025 1.096 1.768Zm-102.765 50.387a1.001 1.001 0 0 0 1.988.226l-1.988-.226Zm2.114-9.768-.643-.766a1.004 1.004 0 0 0-.351.654l.994.112Zm2.883-1.113a1 1 0 0 0-1.286-1.532l1.286 1.532Zm14.203 11.107a1.001 1.001 0 0 0 1.988-.226l-1.988.226Zm-.126-9.994.994-.112a1.004 1.004 0 0 0-.351-.654l-.643.766Zm-1.597-2.645a1 1 0 0 0-1.286 1.532l1.286-1.532ZM831.12 241.32a2.36 2.36 0 0 1-2.36 2.36v2a4.36 4.36 0 0 0 4.36-4.36h-2Zm-2.36 2.36a2.36 2.36 0 0 1-2.36-2.36h-2a4.36 4.36 0 0 0 4.36 4.36v-2Zm-2.36-2.36a2.36 2.36 0 0 1 2.36-2.36v-2a4.36 4.36 0 0 0-4.36 4.36h2Zm2.36-2.36a2.36 2.36 0 0 1 2.36 2.36h2a4.36 4.36 0 0 0-4.36-4.36v2Zm4.195 2.141A2.36 2.36 0 0 1 835 239.92v-2a4.36 4.36 0 0 0-3.776 2.179l1.731 1.002ZM835 239.92a2.36 2.36 0 0 1 2.045 1.181l1.731-1.002A4.36 4.36 0 0 0 835 237.92v2Zm8.6 1.4a2.36 2.36 0 0 1-2.36 2.36v2a4.36 4.36 0 0 0 4.36-4.36h-2Zm-2.36 2.36a2.36 2.36 0 0 1-2.36-2.36h-2a4.36 4.36 0 0 0 4.36 4.36v-2Zm-2.36-2.36a2.36 2.36 0 0 1 2.36-2.36v-2a4.36 4.36 0 0 0-4.36 4.36h2Zm2.36-2.36a2.36 2.36 0 0 1 2.36 2.36h2a4.36 4.36 0 0 0-4.36-4.36v2Zm-14.846 2.233 1.12-9.881-1.988-.225-1.12 9.88 1.988.226Zm.769-9.228 2.24-1.879-1.286-1.532-2.24 1.879 1.286 1.532Zm18.431 9.002-1.12-9.88-1.988.225 1.12 9.881 1.988-.226Zm-1.471-10.534-2.24-1.879-1.286 1.532 2.24 1.879 1.286-1.532Zm19.729 16.022c-.738 0-1.373-.101-1.903-.302-.53-.197-.957-.462-1.279-.795a2.752 2.752 0 0 1-.67-1.108l1.852-.449c.084.171.205.339.364.506.159.17.373.31.642.42.273.114.615.171 1.028.171.584 0 1.067-.142 1.449-.426.383-.281.574-.743.574-1.387v-1.653h-.102c-.106.212-.262.43-.466.653a2.39 2.39 0 0 1-.801.563c-.33.151-.745.227-1.245.227-.67 0-1.278-.157-1.823-.472-.542-.318-.974-.791-1.296-1.42-.318-.633-.477-1.424-.477-2.375 0-.958.159-1.767.477-2.426.322-.663.756-1.165 1.301-1.506a3.344 3.344 0 0 1 1.824-.517c.512 0 .932.087 1.261.261.334.171.599.377.796.62.197.238.347.464.449.676h.113v-1.443h2.029v8.869c0 .746-.178 1.364-.534 1.852-.356.489-.843.854-1.46 1.097-.618.242-1.319.364-2.103.364Zm.017-5.194c.436 0 .807-.106 1.114-.318.307-.212.54-.517.699-.915.159-.397.238-.875.238-1.431 0-.55-.079-1.031-.238-1.444-.155-.412-.387-.733-.693-.96-.303-.231-.676-.346-1.12-.346-.458 0-.841.119-1.147.358-.307.238-.538.566-.694.983a3.984 3.984 0 0 0-.233 1.409c0 .534.078 1.001.233 1.403.16.398.392.708.699.932.311.22.692.329 1.142.329Zm8.065-9.897V243h-2.057v-11.636h2.057Zm4.446 11.812a3.639 3.639 0 0 1-1.494-.295 2.443 2.443 0 0 1-1.046-.887c-.254-.39-.38-.871-.38-1.443 0-.492.091-.899.272-1.221.182-.322.43-.58.745-.773a3.767 3.767 0 0 1 1.062-.438 8.628 8.628 0 0 1 1.233-.221c.511-.053.926-.101 1.244-.142.319-.046.55-.114.694-.205.147-.095.221-.24.221-.437v-.034c0-.428-.127-.76-.38-.995-.254-.235-.62-.352-1.097-.352-.504 0-.903.11-1.199.329-.292.22-.489.48-.591.779l-1.92-.273c.151-.53.401-.973.75-1.329.348-.36.774-.629 1.278-.807a4.89 4.89 0 0 1 1.671-.273c.42 0 .839.049 1.255.148.417.098.798.261 1.142.488.345.224.621.529.83.915.212.387.318.87.318 1.449V243h-1.977v-1.199h-.068a2.51 2.51 0 0 1-.529.682 2.552 2.552 0 0 1-.846.506c-.338.125-.733.187-1.188.187Zm.534-1.511c.413 0 .771-.082 1.074-.245a1.8 1.8 0 0 0 .699-.659c.167-.272.25-.57.25-.892v-1.028a.98.98 0 0 1-.33.148 4.739 4.739 0 0 1-.511.119c-.189.034-.377.064-.563.091l-.482.068c-.307.042-.582.11-.824.205a1.36 1.36 0 0 0-.574.397c-.14.167-.21.383-.21.648 0 .379.138.665.414.858.277.193.629.29 1.057.29Zm12.86-5.085-1.875.204a1.52 1.52 0 0 0-.278-.534 1.384 1.384 0 0 0-.523-.403c-.22-.103-.489-.154-.807-.154-.428 0-.788.093-1.08.279-.287.185-.43.426-.426.721a.752.752 0 0 0 .279.619c.193.16.511.29.954.393l1.489.318c.826.178 1.439.46 1.841.846.405.387.61.892.613 1.517a2.364 2.364 0 0 1-.483 1.455c-.314.417-.751.742-1.312.977s-1.205.352-1.932.352c-1.068 0-1.928-.223-2.579-.67-.652-.451-1.04-1.078-1.165-1.881l2.006-.193c.09.394.284.691.579.892.296.201.68.301 1.153.301.489 0 .881-.1 1.177-.301.299-.201.448-.449.448-.744a.773.773 0 0 0-.289-.619c-.19-.163-.485-.288-.887-.375l-1.488-.313c-.837-.174-1.457-.468-1.858-.881-.402-.416-.601-.943-.597-1.579-.004-.538.142-1.004.438-1.398.299-.398.714-.704 1.244-.92.534-.22 1.15-.33 1.847-.33 1.022 0 1.827.218 2.414.653.591.436.957 1.025 1.097 1.768Zm8.601 0-1.875.204a1.52 1.52 0 0 0-.278-.534 1.376 1.376 0 0 0-.523-.403c-.22-.103-.489-.154-.807-.154-.428 0-.788.093-1.079.279-.288.185-.43.426-.426.721a.754.754 0 0 0 .278.619c.193.16.511.29.954.393l1.489.318c.826.178 1.44.46 1.841.846.405.387.61.892.614 1.517a2.377 2.377 0 0 1-.483 1.455c-.315.417-.752.742-1.313.977-.56.235-1.204.352-1.932.352-1.068 0-1.928-.223-2.579-.67-.652-.451-1.04-1.078-1.165-1.881l2.006-.193c.091.394.284.691.579.892.296.201.68.301 1.154.301.488 0 .88-.1 1.176-.301.299-.201.449-.449.449-.744a.774.774 0 0 0-.29-.619c-.189-.163-.485-.288-.886-.375l-1.489-.313c-.837-.174-1.456-.468-1.858-.881-.402-.416-.6-.943-.597-1.579-.003-.538.142-1.004.438-1.398.299-.398.714-.704 1.244-.92.534-.22 1.15-.33 1.847-.33 1.023 0 1.827.218 2.415.653.59.436.956 1.025 1.096 1.768Zm5.567 6.59c-.875 0-1.63-.181-2.267-.545a3.692 3.692 0 0 1-1.46-1.557c-.341-.674-.511-1.468-.511-2.38 0-.898.17-1.686.511-2.364a3.872 3.872 0 0 1 1.443-1.591c.618-.383 1.343-.574 2.176-.574a4.41 4.41 0 0 1 1.523.261c.481.171.905.436 1.273.796.371.36.663.818.875 1.375.212.553.318 1.212.318 1.977v.631h-7.153v-1.387h5.181a2.213 2.213 0 0 0-.255-1.051c-.167-.31-.4-.555-.699-.733a1.966 1.966 0 0 0-1.034-.267c-.421 0-.79.103-1.108.307a2.114 2.114 0 0 0-.744.796 2.28 2.28 0 0 0-.268 1.074v1.21c0 .507.093.943.279 1.307.185.359.445.636.778.829.334.189.724.284 1.171.284.299 0 .57-.041.812-.125.243-.087.453-.214.631-.381.178-.166.312-.373.403-.619l1.921.216a2.991 2.991 0 0 1-.693 1.33 3.392 3.392 0 0 1-1.296.875c-.526.204-1.129.306-1.807.306Zm12.339-6.59-1.875.204a1.507 1.507 0 0 0-.279-.534 1.372 1.372 0 0 0-.522-.403c-.22-.103-.489-.154-.807-.154-.428 0-.788.093-1.08.279-.288.185-.43.426-.426.721a.752.752 0 0 0 .279.619c.193.16.511.29.954.393l1.489.318c.826.178 1.439.46 1.841.846.405.387.61.892.613 1.517a2.364 2.364 0 0 1-.483 1.455c-.314.417-.752.742-1.312.977-.561.235-1.205.352-1.932.352-1.068 0-1.928-.223-2.58-.67-.651-.451-1.039-1.078-1.164-1.881l2.005-.193c.091.394.284.691.58.892.295.201.68.301 1.153.301.489 0 .881-.1 1.176-.301.3-.201.449-.449.449-.744a.773.773 0 0 0-.289-.619c-.19-.163-.485-.288-.887-.375l-1.488-.313c-.838-.174-1.457-.468-1.858-.881-.402-.416-.601-.943-.597-1.579-.004-.538.142-1.004.438-1.398.299-.398.714-.704 1.244-.92.534-.22 1.149-.33 1.846-.33 1.023 0 1.828.218 2.415.653.591.436.957 1.025 1.097 1.768Zm6.993.727V239h-5.239v-1.693h5.239Zm6.262 5.915c-.936 0-1.739-.237-2.409-.711-.667-.477-1.18-1.164-1.54-2.062-.356-.902-.534-1.987-.534-3.256.004-1.269.184-2.348.54-3.238.36-.894.873-1.576 1.539-2.046.671-.47 1.472-.704 2.404-.704.932 0 1.733.234 2.403.704.671.47 1.184 1.152 1.54 2.046.36.893.54 1.973.54 3.238 0 1.273-.18 2.36-.54 3.262-.356.897-.869 1.583-1.54 2.056-.666.474-1.468.711-2.403.711Zm0-1.779c.727 0 1.301-.358 1.721-1.074.425-.719.637-1.778.637-3.176 0-.924-.097-1.701-.29-2.329-.193-.629-.466-1.103-.818-1.421a1.79 1.79 0 0 0-1.25-.483c-.724 0-1.296.36-1.716 1.08-.421.716-.633 1.767-.636 3.153-.004.928.089 1.709.278 2.341.193.633.466 1.11.818 1.432.352.318.771.477 1.256.477Zm10.924-10.079V243h-2.108v-9.585h-.069l-2.721 1.738v-1.931l2.892-1.858h2.006ZM831.12 283a2.36 2.36 0 0 1-2.36 2.36v2a4.36 4.36 0 0 0 4.36-4.36h-2Zm-2.36 2.36a2.36 2.36 0 0 1-2.36-2.36h-2a4.36 4.36 0 0 0 4.36 4.36v-2ZM826.4 283a2.36 2.36 0 0 1 2.36-2.36v-2a4.36 4.36 0 0 0-4.36 4.36h2Zm2.36-2.36a2.36 2.36 0 0 1 2.36 2.36h2a4.36 4.36 0 0 0-4.36-4.36v2Zm4.195 2.141A2.36 2.36 0 0 1 835 281.6v-2a4.36 4.36 0 0 0-3.776 2.179l1.731 1.002ZM835 281.6a2.36 2.36 0 0 1 2.045 1.181l1.731-1.002A4.36 4.36 0 0 0 835 279.6v2Zm8.6 1.4a2.36 2.36 0 0 1-2.36 2.36v2a4.36 4.36 0 0 0 4.36-4.36h-2Zm-2.36 2.36a2.36 2.36 0 0 1-2.36-2.36h-2a4.36 4.36 0 0 0 4.36 4.36v-2Zm-2.36-2.36a2.36 2.36 0 0 1 2.36-2.36v-2a4.36 4.36 0 0 0-4.36 4.36h2Zm2.36-2.36a2.36 2.36 0 0 1 2.36 2.36h2a4.36 4.36 0 0 0-4.36-4.36v2Zm22.612 11.815c-.738 0-1.373-.101-1.903-.302-.53-.197-.957-.462-1.279-.795a2.752 2.752 0 0 1-.67-1.108l1.852-.449c.084.171.205.339.364.506.159.17.373.31.642.42.273.114.615.171 1.028.171.584 0 1.067-.142 1.449-.426.383-.281.574-.743.574-1.387v-1.653h-.102c-.106.212-.262.43-.466.653a2.39 2.39 0 0 1-.801.563c-.33.151-.745.227-1.245.227-.67 0-1.278-.157-1.823-.472-.542-.318-.974-.791-1.296-1.42-.318-.633-.477-1.424-.477-2.375 0-.958.159-1.767.477-2.426.322-.663.756-1.165 1.301-1.506a3.344 3.344 0 0 1 1.824-.517c.512 0 .932.087 1.261.261.334.171.599.377.796.62.197.238.347.464.449.676h.113v-1.443h2.029v8.869c0 .746-.178 1.364-.534 1.852-.356.489-.843.854-1.46 1.097-.618.242-1.319.364-2.103.364Zm.017-5.194c.436 0 .807-.106 1.114-.318.307-.212.54-.517.699-.915.159-.397.238-.875.238-1.431 0-.55-.079-1.031-.238-1.444-.155-.412-.387-.733-.693-.96-.303-.231-.676-.346-1.12-.346-.458 0-.841.119-1.147.358-.307.238-.538.566-.694.983a3.984 3.984 0 0 0-.233 1.409c0 .534.078 1.001.233 1.403.16.398.392.708.699.932.311.22.692.329 1.142.329Zm8.065-9.897V289h-2.057v-11.636h2.057Zm4.446 11.812a3.639 3.639 0 0 1-1.494-.295 2.443 2.443 0 0 1-1.046-.887c-.254-.39-.38-.871-.38-1.443 0-.492.091-.899.272-1.221.182-.322.43-.58.745-.773a3.767 3.767 0 0 1 1.062-.438 8.628 8.628 0 0 1 1.233-.221c.511-.053.926-.101 1.244-.142.319-.046.55-.114.694-.205.147-.095.221-.24.221-.437v-.034c0-.428-.127-.76-.38-.995-.254-.235-.62-.352-1.097-.352-.504 0-.903.11-1.199.329-.292.22-.489.48-.591.779l-1.92-.273c.151-.53.401-.973.75-1.329.348-.36.774-.629 1.278-.807a4.89 4.89 0 0 1 1.671-.273c.42 0 .839.049 1.255.148.417.098.798.261 1.142.488.345.224.621.529.83.915.212.387.318.87.318 1.449V289h-1.977v-1.199h-.068a2.51 2.51 0 0 1-.529.682 2.552 2.552 0 0 1-.846.506c-.338.125-.733.187-1.188.187Zm.534-1.511c.413 0 .771-.082 1.074-.245a1.8 1.8 0 0 0 .699-.659c.167-.272.25-.57.25-.892v-1.028a.98.98 0 0 1-.33.148 4.739 4.739 0 0 1-.511.119c-.189.034-.377.064-.563.091l-.482.068c-.307.042-.582.11-.824.205a1.36 1.36 0 0 0-.574.397c-.14.167-.21.383-.21.648 0 .379.138.665.414.858.277.193.629.29 1.057.29Zm12.86-5.085-1.875.204a1.52 1.52 0 0 0-.278-.534 1.384 1.384 0 0 0-.523-.403c-.22-.103-.489-.154-.807-.154-.428 0-.788.093-1.08.279-.287.185-.43.426-.426.721a.752.752 0 0 0 .279.619c.193.16.511.29.954.393l1.489.318c.826.178 1.439.46 1.841.846.405.387.61.892.613 1.517a2.364 2.364 0 0 1-.483 1.455c-.314.417-.751.742-1.312.977s-1.205.352-1.932.352c-1.068 0-1.928-.223-2.579-.67-.652-.451-1.04-1.078-1.165-1.881l2.006-.193c.09.394.284.691.579.892.296.201.68.301 1.153.301.489 0 .881-.1 1.177-.301.299-.201.448-.449.448-.744a.773.773 0 0 0-.289-.619c-.19-.163-.485-.288-.887-.375l-1.488-.313c-.837-.174-1.457-.468-1.858-.881-.402-.416-.601-.943-.597-1.579-.004-.538.142-1.004.438-1.398.299-.398.714-.704 1.244-.92.534-.22 1.15-.33 1.847-.33 1.022 0 1.827.218 2.414.653.591.436.957 1.025 1.097 1.768Zm8.601 0-1.875.204a1.52 1.52 0 0 0-.278-.534 1.376 1.376 0 0 0-.523-.403c-.22-.103-.489-.154-.807-.154-.428 0-.788.093-1.079.279-.288.185-.43.426-.426.721a.754.754 0 0 0 .278.619c.193.16.511.29.954.393l1.489.318c.826.178 1.44.46 1.841.846.405.387.61.892.614 1.517a2.377 2.377 0 0 1-.483 1.455c-.315.417-.752.742-1.313.977-.56.235-1.204.352-1.932.352-1.068 0-1.928-.223-2.579-.67-.652-.451-1.04-1.078-1.165-1.881l2.006-.193c.091.394.284.691.579.892.296.201.68.301 1.154.301.488 0 .88-.1 1.176-.301.299-.201.449-.449.449-.744a.774.774 0 0 0-.29-.619c-.189-.163-.485-.288-.886-.375l-1.489-.313c-.837-.174-1.456-.468-1.858-.881-.402-.416-.6-.943-.597-1.579-.003-.538.142-1.004.438-1.398.299-.398.714-.704 1.244-.92.534-.22 1.15-.33 1.847-.33 1.023 0 1.827.218 2.415.653.59.436.956 1.025 1.096 1.768Zm5.567 6.59c-.875 0-1.63-.181-2.267-.545a3.692 3.692 0 0 1-1.46-1.557c-.341-.674-.511-1.468-.511-2.38 0-.898.17-1.686.511-2.364a3.872 3.872 0 0 1 1.443-1.591c.618-.383 1.343-.574 2.176-.574a4.41 4.41 0 0 1 1.523.261c.481.171.905.436 1.273.796.371.36.663.818.875 1.375.212.553.318 1.212.318 1.977v.631h-7.153v-1.387h5.181a2.213 2.213 0 0 0-.255-1.051c-.167-.31-.4-.555-.699-.733a1.966 1.966 0 0 0-1.034-.267c-.421 0-.79.103-1.108.307a2.114 2.114 0 0 0-.744.796 2.28 2.28 0 0 0-.268 1.074v1.21c0 .507.093.943.279 1.307.185.359.445.636.778.829.334.189.724.284 1.171.284.299 0 .57-.041.812-.125.243-.087.453-.214.631-.381.178-.166.312-.373.403-.619l1.921.216a2.991 2.991 0 0 1-.693 1.33 3.392 3.392 0 0 1-1.296.875c-.526.204-1.129.306-1.807.306Zm12.339-6.59-1.875.204a1.507 1.507 0 0 0-.279-.534 1.372 1.372 0 0 0-.522-.403c-.22-.103-.489-.154-.807-.154-.428 0-.788.093-1.08.279-.288.185-.43.426-.426.721a.752.752 0 0 0 .279.619c.193.16.511.29.954.393l1.489.318c.826.178 1.439.46 1.841.846.405.387.61.892.613 1.517a2.364 2.364 0 0 1-.483 1.455c-.314.417-.752.742-1.312.977-.561.235-1.205.352-1.932.352-1.068 0-1.928-.223-2.58-.67-.651-.451-1.039-1.078-1.164-1.881l2.005-.193c.091.394.284.691.58.892.295.201.68.301 1.153.301.489 0 .881-.1 1.176-.301.3-.201.449-.449.449-.744a.773.773 0 0 0-.289-.619c-.19-.163-.485-.288-.887-.375l-1.488-.313c-.838-.174-1.457-.468-1.858-.881-.402-.416-.601-.943-.597-1.579-.004-.538.142-1.004.438-1.398.299-.398.714-.704 1.244-.92.534-.22 1.149-.33 1.846-.33 1.023 0 1.828.218 2.415.653.591.436.957 1.025 1.097 1.768Zm6.993.727V285h-5.239v-1.693h5.239Zm6.262 5.915c-.936 0-1.739-.237-2.409-.711-.667-.477-1.18-1.164-1.54-2.062-.356-.902-.534-1.987-.534-3.256.004-1.269.184-2.348.54-3.238.36-.894.873-1.576 1.539-2.046.671-.47 1.472-.704 2.404-.704.932 0 1.733.234 2.403.704.671.47 1.184 1.152 1.54 2.046.36.893.54 1.973.54 3.238 0 1.273-.18 2.36-.54 3.262-.356.897-.869 1.583-1.54 2.056-.666.474-1.468.711-2.403.711Zm0-1.779c.727 0 1.301-.358 1.721-1.074.425-.719.637-1.778.637-3.176 0-.924-.097-1.701-.29-2.329-.193-.629-.466-1.103-.818-1.421a1.79 1.79 0 0 0-1.25-.483c-.724 0-1.296.36-1.716 1.08-.421.716-.633 1.767-.636 3.153-.004.928.089 1.709.278 2.341.193.633.466 1.11.818 1.432.352.318.771.477 1.256.477Zm10.924-10.079V289h-2.108v-9.585h-.069l-2.721 1.738v-1.931l2.892-1.858h2.006Z"/>
  <path stroke="#000" stroke-linecap="round" stroke-linejoin="round" stroke-width="2" d="m1217.52 150.4 1.17-1.247c1.67 1.694 3.99 2.354 6.56 2.354 5.1 0 9.23-4.131 9.23-9.226a9.221 9.221 0 0 0-2.66-6.484l1.16-.997m-7.23 16.707v3.693m0 0h-5.49m5.49 0h5.24m-.27-13.2c0 3.314-2.68 6-6 6-3.31 0-6-2.686-6-6s2.69-6 6-6c3.32 0 6 2.686 6 6Z"/>
  <path fill="#000" d="M1254.85 154.455c-.74 0-1.37-.101-1.9-.302-.53-.197-.96-.462-1.28-.795a2.72 2.72 0 0 1-.67-1.108l1.85-.449c.09.171.21.339.37.506.16.17.37.31.64.42.27.114.61.171 1.03.171.58 0 1.06-.142 1.45-.426.38-.281.57-.743.57-1.387v-1.653h-.1c-.11.212-.26.43-.47.653-.2.224-.47.411-.8.563-.33.151-.74.227-1.24.227a3.59 3.59 0 0 1-1.83-.472c-.54-.318-.97-.791-1.29-1.42-.32-.633-.48-1.424-.48-2.375 0-.958.16-1.767.48-2.426.32-.663.75-1.165 1.3-1.506a3.316 3.316 0 0 1 1.82-.517c.51 0 .93.087 1.26.261.34.171.6.377.8.62.19.238.34.464.45.676h.11v-1.443h2.03v8.869c0 .746-.18 1.364-.54 1.852-.35.489-.84.854-1.46 1.097-.61.242-1.31.364-2.1.364Zm.02-5.194c.43 0 .81-.106 1.11-.318.31-.212.54-.517.7-.915.16-.397.24-.875.24-1.431 0-.55-.08-1.031-.24-1.444-.15-.412-.38-.733-.69-.96-.3-.231-.68-.346-1.12-.346-.46 0-.84.119-1.15.358-.31.238-.54.566-.69.983-.16.412-.23.882-.23 1.409 0 .534.07 1.001.23 1.403.16.398.39.708.7.932.31.22.69.329 1.14.329Zm8.06-9.897V151h-2.05v-11.636h2.05Zm5.75 11.806c-.86 0-1.6-.187-2.22-.562-.63-.375-1.11-.9-1.45-1.574-.35-.674-.52-1.462-.52-2.364 0-.901.17-1.691.52-2.369.34-.678.82-1.204 1.45-1.579.62-.375 1.36-.563 2.22-.563.85 0 1.59.188 2.21.563.63.375 1.11.901 1.45 1.579.34.678.52 1.468.52 2.369 0 .902-.18 1.69-.52 2.364a3.749 3.749 0 0 1-1.45 1.574c-.62.375-1.36.562-2.21.562Zm.01-1.647c.46 0 .85-.127 1.16-.381.31-.258.54-.602.69-1.034.15-.432.23-.913.23-1.443 0-.534-.08-1.017-.23-1.449-.15-.436-.38-.782-.69-1.04-.31-.257-.7-.386-1.16-.386-.48 0-.87.129-1.18.386-.32.258-.55.604-.7 1.04-.16.432-.23.915-.23 1.449 0 .53.07 1.011.23 1.443.15.432.38.776.7 1.034.31.254.7.381 1.18.381Zm5.82 1.477v-11.636h2.06v4.352h.09c.1-.212.25-.438.44-.676.2-.243.46-.449.79-.62.33-.174.75-.261 1.26-.261.67 0 1.28.172 1.82.517.55.341.98.847 1.3 1.517.32.667.48 1.485.48 2.455 0 .958-.15 1.772-.47 2.443-.31.67-.74 1.182-1.28 1.534a3.31 3.31 0 0 1-1.84.528c-.5 0-.92-.083-1.25-.25a2.48 2.48 0 0 1-.79-.602c-.2-.239-.35-.464-.46-.676h-.12V151h-2.03Zm2.02-4.364c0 .565.08 1.059.24 1.483.16.425.4.756.7.995.31.234.68.352 1.11.352.46 0 .84-.121 1.14-.364.31-.246.54-.581.7-1.005.16-.428.24-.915.24-1.461 0-.541-.08-1.022-.24-1.443-.15-.42-.38-.75-.69-.988-.31-.239-.69-.358-1.15-.358-.44 0-.81.115-1.12.346-.3.231-.54.555-.7.972-.15.416-.23.907-.23 1.471Zm11.65 4.534c-.87 0-1.63-.181-2.26-.545a3.699 3.699 0 0 1-1.46-1.557c-.34-.674-.51-1.468-.51-2.38 0-.898.17-1.686.51-2.364.34-.682.82-1.212 1.44-1.591.62-.383 1.34-.574 2.18-.574.53 0 1.04.087 1.52.261.48.171.9.436 1.27.796.37.36.67.818.88 1.375.21.553.32 1.212.32 1.977v.631h-7.16v-1.387h5.18c0-.393-.09-.744-.25-1.051-.17-.31-.4-.555-.7-.733-.3-.178-.64-.267-1.03-.267-.43 0-.79.103-1.11.307a2.13 2.13 0 0 0-.75.796c-.17.325-.26.683-.26 1.074v1.21c0 .507.09.943.27 1.307.19.359.45.636.78.829.34.189.73.284 1.17.284.3 0 .57-.041.82-.125.24-.087.45-.214.63-.381.17-.166.31-.373.4-.619l1.92.216c-.12.508-.35.951-.69 1.33a3.4 3.4 0 0 1-1.3.875c-.52.204-1.13.306-1.81.306Zm10.74-5.863V147h-5.24v-1.693h5.24Zm6.26 5.915c-.94 0-1.74-.237-2.41-.711-.67-.477-1.18-1.164-1.54-2.062-.36-.902-.54-1.987-.54-3.256.01-1.269.19-2.348.54-3.238.36-.894.88-1.576 1.54-2.046.67-.47 1.48-.704 2.41-.704.93 0 1.73.234 2.4.704.67.47 1.18 1.152 1.54 2.046.36.893.54 1.973.54 3.238 0 1.273-.18 2.36-.54 3.262-.36.897-.87 1.583-1.54 2.056-.67.474-1.47.711-2.4.711Zm0-1.779c.72 0 1.3-.358 1.72-1.074.42-.719.64-1.778.64-3.176 0-.924-.1-1.701-.29-2.329-.2-.629-.47-1.103-.82-1.421a1.807 1.807 0 0 0-1.25-.483c-.73 0-1.3.36-1.72 1.08-.42.716-.63 1.767-.64 3.153 0 .928.09 1.709.28 2.341.2.633.47 1.11.82 1.432.35.318.77.477 1.26.477Zm10.92-10.079V151h-2.11v-9.585h-.07l-2.72 1.738v-1.931l2.9-1.858h2Z"/>
  <path stroke="#000" stroke-linecap="round" stroke-linejoin="round" stroke-width="2" d="m1216.4 199.206 1.32-1.412c1.89 1.918 4.52 2.665 7.43 2.665 5.77 0 10.45-4.678 10.45-10.447 0-2.862-1.15-5.455-3.01-7.341l1.32-1.13m-2.56 8.153a6.794 6.794 0 0 1-6.8 6.794 6.792 6.792 0 0 1-6.79-6.794 6.792 6.792 0 0 1 6.79-6.794c3.76 0 6.8 3.042 6.8 6.794Z"/>
  <path fill="#000" d="M1254.85 200.455c-.74 0-1.37-.101-1.9-.302-.53-.197-.96-.462-1.28-.795a2.72 2.72 0 0 1-.67-1.108l1.85-.449c.09.171.21.339.37.506.16.17.37.31.64.42.27.114.61.171 1.03.171.58 0 1.06-.142 1.45-.426.38-.281.57-.743.57-1.387v-1.653h-.1c-.11.212-.26.43-.47.653-.2.224-.47.411-.8.563-.33.151-.74.227-1.24.227a3.59 3.59 0 0 1-1.83-.472c-.54-.318-.97-.791-1.29-1.42-.32-.633-.48-1.424-.48-2.375 0-.958.16-1.767.48-2.426.32-.663.75-1.165 1.3-1.506a3.316 3.316 0 0 1 1.82-.517c.51 0 .93.087 1.26.261.34.171.6.377.8.62.19.238.34.464.45.676h.11v-1.443h2.03v8.869c0 .746-.18 1.364-.54 1.852-.35.489-.84.854-1.46 1.097-.61.242-1.31.364-2.1.364Zm.02-5.194c.43 0 .81-.106 1.11-.318.31-.212.54-.517.7-.915.16-.397.24-.875.24-1.431 0-.55-.08-1.031-.24-1.444-.15-.412-.38-.733-.69-.96-.3-.231-.68-.346-1.12-.346-.46 0-.84.119-1.15.358-.31.238-.54.566-.69.983-.16.412-.23.882-.23 1.409 0 .534.07 1.001.23 1.403.16.398.39.708.7.932.31.22.69.329 1.14.329Zm8.06-9.897V197h-2.05v-11.636h2.05Zm5.75 11.806c-.86 0-1.6-.187-2.22-.562-.63-.375-1.11-.9-1.45-1.574-.35-.674-.52-1.462-.52-2.364 0-.901.17-1.691.52-2.369.34-.678.82-1.204 1.45-1.579.62-.375 1.36-.563 2.22-.563.85 0 1.59.188 2.21.563.63.375 1.11.901 1.45 1.579.34.678.52 1.468.52 2.369 0 .902-.18 1.69-.52 2.364a3.749 3.749 0 0 1-1.45 1.574c-.62.375-1.36.562-2.21.562Zm.01-1.647c.46 0 .85-.127 1.16-.381.31-.258.54-.602.69-1.034.15-.432.23-.913.23-1.443 0-.534-.08-1.017-.23-1.449-.15-.436-.38-.782-.69-1.04-.31-.257-.7-.386-1.16-.386-.48 0-.87.129-1.18.386-.32.258-.55.604-.7 1.04-.16.432-.23.915-.23 1.449 0 .53.07 1.011.23 1.443.15.432.38.776.7 1.034.31.254.7.381 1.18.381Zm5.82 1.477v-11.636h2.06v4.352h.09c.1-.212.25-.438.44-.676.2-.243.46-.449.79-.62.33-.174.75-.261 1.26-.261.67 0 1.28.172 1.82.517.55.341.98.847 1.3 1.517.32.667.48 1.485.48 2.455 0 .958-.15 1.772-.47 2.443-.31.67-.74 1.182-1.28 1.534a3.31 3.31 0 0 1-1.84.528c-.5 0-.92-.083-1.25-.25a2.48 2.48 0 0 1-.79-.602c-.2-.239-.35-.464-.46-.676h-.12V197h-2.03Zm2.02-4.364c0 .565.08 1.059.24 1.483.16.425.4.756.7.995.31.234.68.352 1.11.352.46 0 .84-.121 1.14-.364.31-.246.54-.581.7-1.005.16-.428.24-.915.24-1.461 0-.541-.08-1.022-.24-1.443-.15-.42-.38-.75-.69-.988-.31-.239-.69-.358-1.15-.358-.44 0-.81.115-1.12.346-.3.231-.54.555-.7.972-.15.416-.23.907-.23 1.471Zm11.65 4.534c-.87 0-1.63-.181-2.26-.545a3.699 3.699 0 0 1-1.46-1.557c-.34-.674-.51-1.468-.51-2.38 0-.898.17-1.686.51-2.364.34-.682.82-1.212 1.44-1.591.62-.383 1.34-.574 2.18-.574.53 0 1.04.087 1.52.261.48.171.9.436 1.27.796.37.36.67.818.88 1.375.21.553.32 1.212.32 1.977v.631h-7.16v-1.387h5.18c0-.393-.09-.744-.25-1.051-.17-.31-.4-.555-.7-.733-.3-.178-.64-.267-1.03-.267-.43 0-.79.103-1.11.307a2.13 2.13 0 0 0-.75.796c-.17.325-.26.683-.26 1.074v1.21c0 .507.09.943.27 1.307.19.359.45.636.78.829.34.189.73.284 1.17.284.3 0 .57-.041.82-.125.24-.087.45-.214.63-.381.17-.166.31-.373.4-.619l1.92.216c-.12.508-.35.951-.69 1.33a3.4 3.4 0 0 1-1.3.875c-.52.204-1.13.306-1.81.306Zm10.74-5.863V193h-5.24v-1.693h5.24Zm6.26 5.915c-.94 0-1.74-.237-2.41-.711-.67-.477-1.18-1.164-1.54-2.062-.36-.902-.54-1.987-.54-3.256.01-1.269.19-2.348.54-3.238.36-.894.88-1.576 1.54-2.046.67-.47 1.48-.704 2.41-.704.93 0 1.73.234 2.4.704.67.47 1.18 1.152 1.54 2.046.36.893.54 1.973.54 3.238 0 1.273-.18 2.36-.54 3.262-.36.897-.87 1.583-1.54 2.056-.67.474-1.47.711-2.4.711Zm0-1.779c.72 0 1.3-.358 1.72-1.074.42-.719.64-1.778.64-3.176 0-.924-.1-1.701-.29-2.329-.2-.629-.47-1.103-.82-1.421a1.807 1.807 0 0 0-1.25-.483c-.73 0-1.3.36-1.72 1.08-.42.716-.63 1.767-.64 3.153 0 .928.09 1.709.28 2.341.2.633.47 1.11.82 1.432.35.318.77.477 1.26.477Zm6.19 1.557v-1.523l4.04-3.96c.38-.39.71-.737.96-1.04.26-.303.45-.596.58-.88.13-.285.2-.588.2-.909 0-.368-.09-.682-.25-.944a1.7 1.7 0 0 0-.69-.613 2.21 2.21 0 0 0-1-.216c-.38 0-.71.079-1 .238-.29.156-.51.377-.67.665-.16.288-.23.631-.23 1.029h-2.01c0-.739.17-1.381.51-1.927.33-.545.8-.967 1.39-1.267.59-.299 1.27-.448 2.04-.448.78 0 1.47.145 2.06.437.59.292 1.05.691 1.37 1.199.33.507.5 1.087.5 1.739 0 .435-.08.863-.25 1.284-.17.42-.46.886-.88 1.397-.42.512-1 1.131-1.76 1.858l-2 2.04v.08h5.07V197h-7.98Z"/>
  <path stroke="#000" stroke-width="2" d="m1219.43 236.968 5.93 3.536c.32.188.71.188 1.03 0l9.58-5.711a.496.496 0 0 0 0-.859l-9.58-5.711a1.011 1.011 0 0 0-1.03 0l-9.58 5.711a.504.504 0 0 0 0 .859l3.65 2.175Zm0 0v6.244c0 .342.18.66.46.843l4.95 3.146c.64.403 1.44.416 2.09.034l5.39-3.184c.31-.18.5-.507.5-.861v-6.222"/>
  <path fill="#000" d="M1254.85 246.455c-.74 0-1.37-.101-1.9-.302-.53-.197-.96-.462-1.28-.795a2.72 2.72 0 0 1-.67-1.108l1.85-.449c.09.171.21.339.37.506.16.17.37.31.64.42.27.114.61.171 1.03.171.58 0 1.06-.142 1.45-.426.38-.281.57-.743.57-1.387v-1.653h-.1c-.11.212-.26.43-.47.653-.2.224-.47.411-.8.563-.33.151-.74.227-1.24.227a3.59 3.59 0 0 1-1.83-.472c-.54-.318-.97-.791-1.29-1.42-.32-.633-.48-1.424-.48-2.375 0-.958.16-1.767.48-2.426.32-.663.75-1.165 1.3-1.506a3.316 3.316 0 0 1 1.82-.517c.51 0 .93.087 1.26.261.34.171.6.377.8.62.19.238.34.464.45.676h.11v-1.443h2.03v8.869c0 .746-.18 1.364-.54 1.852-.35.489-.84.854-1.46 1.097-.61.242-1.31.364-2.1.364Zm.02-5.194c.43 0 .81-.106 1.11-.318.31-.212.54-.517.7-.915.16-.397.24-.875.24-1.431 0-.55-.08-1.031-.24-1.444-.15-.412-.38-.733-.69-.96-.3-.231-.68-.346-1.12-.346-.46 0-.84.119-1.15.358-.31.238-.54.566-.69.983-.16.412-.23.882-.23 1.409 0 .534.07 1.001.23 1.403.16.398.39.708.7.932.31.22.69.329 1.14.329Zm6.01 1.739v-8.727h1.99v1.454h.09c.16-.504.43-.892.82-1.165.39-.276.84-.414 1.34-.414.11 0 .24.005.38.017.14.007.26.021.35.04v1.892a1.944 1.944 0 0 0-.41-.08c-.19-.026-.37-.04-.54-.04-.38 0-.71.082-1.01.245-.3.159-.53.38-.7.664a1.88 1.88 0 0 0-.26.983V243h-2.05Zm8.52.176c-.56 0-1.06-.098-1.5-.295a2.381 2.381 0 0 1-1.04-.887c-.26-.39-.38-.871-.38-1.443 0-.492.09-.899.27-1.221.18-.322.43-.58.74-.773a3.88 3.88 0 0 1 1.06-.438c.4-.102.81-.176 1.24-.221.51-.053.92-.101 1.24-.142.32-.046.55-.114.7-.205.14-.095.22-.24.22-.437v-.034c0-.428-.13-.76-.38-.995-.26-.235-.62-.352-1.1-.352-.5 0-.9.11-1.2.329-.29.22-.49.48-.59.779l-1.92-.273c.15-.53.4-.973.75-1.329.35-.36.77-.629 1.28-.807.5-.182 1.06-.273 1.67-.273.42 0 .84.049 1.25.148.42.098.8.261 1.15.488.34.224.62.529.83.915.21.387.31.87.31 1.449V243h-1.97v-1.199h-.07c-.13.243-.3.47-.53.682-.22.208-.51.377-.85.506-.33.125-.73.187-1.18.187Zm.53-1.511c.41 0 .77-.082 1.07-.245.31-.166.54-.386.7-.659.17-.272.25-.57.25-.892v-1.028c-.06.053-.17.102-.33.148-.15.045-.32.085-.51.119-.19.034-.38.064-.56.091l-.48.068c-.31.042-.59.11-.83.205-.24.094-.43.227-.57.397-.14.167-.21.383-.21.648 0 .379.14.665.41.858.28.193.63.29 1.06.29Zm9.2 1.488c-.69 0-1.3-.176-1.84-.528-.54-.352-.97-.864-1.28-1.534-.32-.671-.48-1.485-.48-2.443 0-.97.16-1.788.48-2.455.32-.67.76-1.176 1.3-1.517a3.374 3.374 0 0 1 1.83-.517c.51 0 .93.087 1.26.261.33.171.59.377.78.62.19.238.34.464.45.676h.09v-4.352h2.06V243h-2.02v-1.375h-.13c-.11.212-.26.437-.46.676-.2.235-.47.436-.8.602-.32.167-.74.25-1.24.25Zm.57-1.687c.44 0 .81-.118 1.12-.352.3-.239.54-.57.7-.995.16-.424.24-.918.24-1.483 0-.564-.08-1.055-.24-1.471-.16-.417-.39-.741-.7-.972-.3-.231-.67-.346-1.12-.346-.45 0-.84.119-1.14.358-.31.238-.54.568-.7.988-.15.421-.23.902-.23 1.443a4.4 4.4 0 0 0 .23 1.461c.16.424.4.759.7 1.005.31.243.69.364 1.14.364Zm11.65-2.136v-5.057h2.06V243h-2v-1.551h-.09c-.19.488-.52.888-.97 1.199-.44.31-1 .466-1.65.466-.57 0-1.08-.127-1.52-.381a2.706 2.706 0 0 1-1.02-1.119c-.25-.493-.37-1.087-.37-1.784v-5.557h2.06v5.238c0 .553.15.993.45 1.319.3.325.7.488 1.19.488.31 0 .6-.074.89-.221.28-.148.51-.368.69-.659.19-.296.28-.665.28-1.108Zm6.51 3.846c-.56 0-1.06-.098-1.5-.295a2.381 2.381 0 0 1-1.04-.887c-.26-.39-.38-.871-.38-1.443 0-.492.09-.899.27-1.221.18-.322.43-.58.74-.773a3.88 3.88 0 0 1 1.06-.438c.4-.102.81-.176 1.24-.221.51-.053.92-.101 1.24-.142.32-.046.55-.114.7-.205.14-.095.22-.24.22-.437v-.034c0-.428-.13-.76-.38-.995-.26-.235-.62-.352-1.1-.352-.5 0-.9.11-1.2.329-.29.22-.49.48-.59.779l-1.92-.273c.15-.53.4-.973.75-1.329.35-.36.77-.629 1.28-.807.5-.182 1.06-.273 1.67-.273.42 0 .84.049 1.25.148.42.098.8.261 1.15.488.34.224.62.529.83.915.21.387.31.87.31 1.449V243h-1.97v-1.199h-.07c-.13.243-.3.47-.53.682-.22.208-.51.377-.85.506-.33.125-.73.187-1.18.187Zm.53-1.511c.41 0 .77-.082 1.07-.245.31-.166.54-.386.7-.659.17-.272.25-.57.25-.892v-1.028c-.06.053-.17.102-.33.148-.15.045-.32.085-.51.119-.19.034-.38.064-.56.091l-.48.068c-.31.042-.59.11-.83.205-.24.094-.43.227-.57.397-.14.167-.21.383-.21.648 0 .379.14.665.41.858.28.193.63.29 1.06.29Zm10.32-7.392v1.591h-5.02v-1.591h5.02Zm-3.78-2.091h2.06v8.193c0 .277.04.489.12.636.09.144.2.243.34.296.14.053.3.079.47.079a2.607 2.607 0 0 0 .6-.079l.35 1.608c-.11.038-.27.079-.47.125-.2.045-.45.072-.74.079-.52.015-.98-.062-1.39-.233a2.187 2.187 0 0 1-.99-.806c-.24-.364-.35-.819-.35-1.364v-8.534Zm5.32 10.818v-8.727h2.06V243h-2.06Zm1.03-9.966c-.32 0-.6-.108-.84-.324a1.058 1.058 0 0 1-.35-.79c0-.31.12-.573.35-.789.24-.22.52-.33.84-.33.33 0 .61.11.84.33.24.216.36.479.36.789 0 .307-.12.571-.36.79-.23.216-.51.324-.84.324Zm6.77 10.136c-.85 0-1.59-.187-2.22-.562-.62-.375-1.11-.9-1.45-1.574-.34-.674-.51-1.462-.51-2.364 0-.901.17-1.691.51-2.369.34-.678.83-1.204 1.45-1.579.63-.375 1.37-.563 2.22-.563.85 0 1.59.188 2.21.563.63.375 1.11.901 1.45 1.579.35.678.52 1.468.52 2.369 0 .902-.17 1.69-.52 2.364a3.749 3.749 0 0 1-1.45 1.574c-.62.375-1.36.562-2.21.562Zm.01-1.647c.46 0 .85-.127 1.16-.381.31-.258.54-.602.69-1.034.16-.432.24-.913.24-1.443 0-.534-.08-1.017-.24-1.449-.15-.436-.38-.782-.69-1.04-.31-.257-.7-.386-1.16-.386-.47 0-.87.129-1.18.386-.31.258-.55.604-.7 1.04-.15.432-.23.915-.23 1.449 0 .53.08 1.011.23 1.443.15.432.39.776.7 1.034.31.254.71.381 1.18.381Zm7.79-3.637V243h-2.05v-8.727h1.96v1.483h.1c.21-.489.53-.877.96-1.165.45-.288 1-.432 1.65-.432.6 0 1.12.129 1.57.386.45.258.8.631 1.05 1.12.25.488.37 1.081.37 1.778V243h-2.06v-5.239c0-.583-.15-1.039-.46-1.369-.3-.33-.71-.494-1.24-.494-.36 0-.68.079-.96.238-.28.156-.49.381-.65.676-.16.296-.24.654-.24 1.074Zm12.81-.579V239h-5.24v-1.693h5.24Zm5.79 5.863c-.88 0-1.62-.191-2.25-.573a3.866 3.866 0 0 1-1.44-1.586c-.33-.678-.5-1.458-.5-2.341 0-.886.17-1.668.52-2.346.34-.682.82-1.212 1.44-1.591.62-.383 1.36-.574 2.21-.574.71 0 1.34.131 1.89.392.54.258.98.623 1.31 1.097.32.469.51 1.019.55 1.647h-1.96c-.08-.42-.27-.77-.57-1.051-.29-.284-.69-.426-1.19-.426-.42 0-.79.114-1.1.341-.32.224-.57.546-.75.966-.17.42-.26.924-.26 1.511 0 .595.09 1.106.26 1.534.18.425.42.752.73.983.32.228.7.341 1.12.341.31 0 .58-.057.82-.17.24-.118.44-.286.6-.506.17-.22.28-.487.34-.801h1.96a3.372 3.372 0 0 1-.54 1.642c-.32.474-.74.845-1.28 1.114-.55.265-1.18.397-1.91.397Zm7.76.006c-.56 0-1.06-.098-1.5-.295a2.381 2.381 0 0 1-1.04-.887c-.26-.39-.39-.871-.39-1.443 0-.492.1-.899.28-1.221.18-.322.43-.58.74-.773a3.88 3.88 0 0 1 1.06-.438c.4-.102.81-.176 1.24-.221.51-.053.92-.101 1.24-.142.32-.046.55-.114.69-.205.15-.095.23-.24.23-.437v-.034c0-.428-.13-.76-.38-.995-.26-.235-.62-.352-1.1-.352-.5 0-.9.11-1.2.329-.29.22-.49.48-.59.779l-1.92-.273c.15-.53.4-.973.75-1.329.35-.36.77-.629 1.28-.807.5-.182 1.06-.273 1.67-.273.42 0 .84.049 1.25.148.42.098.8.261 1.15.488.34.224.62.529.82.915.22.387.32.87.32 1.449V243h-1.97v-1.199h-.07c-.13.243-.3.47-.53.682-.22.208-.51.377-.85.506-.33.125-.73.187-1.18.187Zm.53-1.511c.41 0 .77-.082 1.07-.245.31-.166.54-.386.7-.659.17-.272.25-.57.25-.892v-1.028c-.06.053-.17.102-.33.148-.15.045-.32.085-.51.119-.19.034-.38.064-.56.091l-.48.068c-.31.042-.59.11-.83.205-.24.094-.43.227-.57.397-.14.167-.21.383-.21.648 0 .379.14.665.41.858.28.193.63.29 1.06.29Zm5.96 4.608v-12h2.02v1.443h.12c.11-.212.26-.438.45-.676.2-.243.46-.449.79-.62.33-.174.75-.261 1.26-.261.67 0 1.28.172 1.82.517.55.341.98.847 1.3 1.517.32.667.48 1.485.48 2.455 0 .958-.16 1.772-.47 2.443-.32.67-.74 1.182-1.29 1.534-.54.352-1.15.528-1.84.528-.5 0-.91-.083-1.24-.25-.33-.166-.6-.367-.8-.602a4.367 4.367 0 0 1-.46-.676h-.08v4.648h-2.06Zm2.02-7.637c0 .565.08 1.059.24 1.483.16.425.39.756.7.995.3.234.67.352 1.11.352.45 0 .83-.121 1.14-.364.31-.246.54-.581.69-1.005.16-.428.24-.915.24-1.461 0-.541-.07-1.022-.23-1.443-.16-.42-.39-.75-.69-.988-.31-.239-.69-.358-1.15-.358-.44 0-.81.115-1.12.346-.31.231-.54.555-.7.972-.15.416-.23.907-.23 1.471Zm13.09-1.329V239h-5.24v-1.693h5.24Zm6.26 5.915c-.93 0-1.74-.237-2.41-.711-.66-.477-1.18-1.164-1.54-2.062-.35-.902-.53-1.987-.53-3.256 0-1.269.18-2.348.54-3.238.36-.894.87-1.576 1.54-2.046.67-.47 1.47-.704 2.4-.704.93 0 1.74.234 2.41.704.67.47 1.18 1.152 1.54 2.046.36.893.54 1.973.54 3.238 0 1.273-.18 2.36-.54 3.262-.36.897-.87 1.583-1.54 2.056-.67.474-1.47.711-2.41.711Zm0-1.779c.73 0 1.3-.358 1.72-1.074.43-.719.64-1.778.64-3.176 0-.924-.1-1.701-.29-2.329-.19-.629-.46-1.103-.82-1.421a1.79 1.79 0 0 0-1.25-.483c-.72 0-1.29.36-1.71 1.08-.42.716-.64 1.767-.64 3.153 0 .928.09 1.709.28 2.341.19.633.46 1.11.82 1.432.35.318.77.477 1.25.477Zm10.93-10.079V243h-2.11v-9.585h-.07l-2.72 1.738v-1.931l2.89-1.858h2.01Zm-158.55 57.89-.51-.861.51.861Zm.49-.861h-1 1Zm-7.97 4.011-.54.844.54-.844Zm2.09.034.5.861-.5-.861Zm-11.16-13.301-.51-.859.51.859Zm0 .859-.51.859.51-.859Zm10.61 5.711.51.859-.51-.859Zm-1.02 0 .51-.859-.51.859Zm10.61-6.57.51-.859-.51.859Zm0 .859-.52-.859.52.859Zm-16.08 9.262.53-.844-.53.844Zm6.49-15.833-.51.859.51-.859Zm-1.02 0 .51.859-.51-.859Zm11.71 6.125a1.001 1.001 0 0 0-2 0h2Zm-2 5.4c0 .552.45 1 1 1s1-.448 1-1h-2Zm-9.2-10.666 9.58 5.712 1.03-1.718-9.59-5.712-1.02 1.718Zm9.58 4.853-9.58 5.711 1.02 1.718 9.59-5.711-1.03-1.718Zm-19.16.859 9.58-5.712-1.02-1.718-9.59 5.712 1.03 1.718Zm9.58 4.852-5.93-3.536-1.03 1.718 5.94 3.536 1.02-1.718Zm-5.93-3.536-3.65-2.175-1.03 1.718 3.65 2.175 1.03-1.718Zm-1.52.859v6.243h2v-6.243h-2Zm.93 7.931 4.95 3.146 1.07-1.688-4.95-3.146-1.07 1.688Zm8.08 3.197 5.4-3.184-1.02-1.722-5.39 3.184 1.01 1.722Zm6.38-4.906v-6.222h-2v6.222h2Zm-.98 1.722c.61-.36.98-1.015.98-1.722h-2l1.02 1.722Zm-8.53 3.133c.95.605 2.16.625 3.13.051l-1.01-1.722c-.33.191-.73.184-1.05-.017l-1.07 1.688Zm-9.04-14.97a1.505 1.505 0 0 0 0 2.577l1.03-1.718c.32.194.32.665 0 .859l-1.03-1.718Zm10.61 6.57-1.02 1.718c.63.376 1.41.376 2.04 0l-1.02-1.718Zm9.58-4.852a.504.504 0 0 1 0-.859l1.03 1.718c.97-.582.97-1.995 0-2.577l-1.03 1.718Zm-17.03 8.418c0 .685.35 1.321.93 1.688l1.07-1.688h-2Zm8.47-15.848a1.986 1.986 0 0 0-2.04 0l1.02 1.718 1.02-1.718Zm8.18 6.984v5.4h2v-5.4h-2Zm19.65 12.905c-.74 0-1.37-.101-1.9-.302-.53-.197-.96-.462-1.28-.795a2.72 2.72 0 0 1-.67-1.108l1.85-.449c.09.171.21.339.37.506.16.17.37.31.64.42.27.114.61.171 1.03.171.58 0 1.06-.142 1.45-.426.38-.281.57-.743.57-1.387v-1.653h-.1c-.11.212-.26.43-.47.653-.2.224-.47.411-.8.563-.33.151-.74.227-1.24.227a3.59 3.59 0 0 1-1.83-.472c-.54-.318-.97-.791-1.29-1.42-.32-.633-.48-1.424-.48-2.375 0-.958.16-1.767.48-2.426.32-.663.75-1.165 1.3-1.506a3.316 3.316 0 0 1 1.82-.517c.51 0 .93.087 1.26.261.34.171.6.377.8.62.19.238.34.464.45.676h.11v-1.443h2.03v8.869c0 .746-.18 1.364-.54 1.852-.35.489-.84.854-1.46 1.097-.61.242-1.31.364-2.1.364Zm.02-5.194c.43 0 .81-.106 1.11-.318.31-.212.54-.517.7-.915.16-.397.24-.875.24-1.431 0-.55-.08-1.031-.24-1.444-.15-.412-.38-.733-.69-.96-.3-.231-.68-.346-1.12-.346-.46 0-.84.119-1.15.358-.31.238-.54.566-.69.983-.16.412-.23.882-.23 1.409 0 .534.07 1.001.23 1.403.16.398.39.708.7.932.31.22.69.329 1.14.329Zm6.01 1.739v-8.727h1.99v1.454h.09c.16-.504.43-.892.82-1.165.39-.276.84-.414 1.34-.414.11 0 .24.005.38.017.14.007.26.021.35.04v1.892a1.944 1.944 0 0 0-.41-.08c-.19-.026-.37-.04-.54-.04-.38 0-.71.082-1.01.245-.3.159-.53.38-.7.664a1.88 1.88 0 0 0-.26.983V289h-2.05Zm8.52.176c-.56 0-1.06-.098-1.5-.295a2.381 2.381 0 0 1-1.04-.887c-.26-.39-.38-.871-.38-1.443 0-.492.09-.899.27-1.221.18-.322.43-.58.74-.773a3.88 3.88 0 0 1 1.06-.438c.4-.102.81-.176 1.24-.221.51-.053.92-.101 1.24-.142.32-.046.55-.114.7-.205.14-.095.22-.24.22-.437v-.034c0-.428-.13-.76-.38-.995-.26-.235-.62-.352-1.1-.352-.5 0-.9.11-1.2.329-.29.22-.49.48-.59.779l-1.92-.273c.15-.53.4-.973.75-1.329.35-.36.77-.629 1.28-.807.5-.182 1.06-.273 1.67-.273.42 0 .84.049 1.25.148.42.098.8.261 1.15.488.34.224.62.529.83.915.21.387.31.87.31 1.449V289h-1.97v-1.199h-.07c-.13.243-.3.47-.53.682-.22.208-.51.377-.85.506-.33.125-.73.187-1.18.187Zm.53-1.511c.41 0 .77-.082 1.07-.245.31-.166.54-.386.7-.659.17-.272.25-.57.25-.892v-1.028c-.06.053-.17.102-.33.148-.15.045-.32.085-.51.119-.19.034-.38.064-.56.091l-.48.068c-.31.042-.59.11-.83.205-.24.094-.43.227-.57.397-.14.167-.21.383-.21.648 0 .379.14.665.41.858.28.193.63.29 1.06.29Zm9.2 1.488c-.69 0-1.3-.176-1.84-.528-.54-.352-.97-.864-1.28-1.534-.32-.671-.48-1.485-.48-2.443 0-.97.16-1.788.48-2.455.32-.67.76-1.176 1.3-1.517a3.374 3.374 0 0 1 1.83-.517c.51 0 .93.087 1.26.261.33.171.59.377.78.62.19.238.34.464.45.676h.09v-4.352h2.06V289h-2.02v-1.375h-.13c-.11.212-.26.437-.46.676-.2.235-.47.436-.8.602-.32.167-.74.25-1.24.25Zm.57-1.687c.44 0 .81-.118 1.12-.352.3-.239.54-.57.7-.995.16-.424.24-.918.24-1.483 0-.564-.08-1.055-.24-1.471-.16-.417-.39-.741-.7-.972-.3-.231-.67-.346-1.12-.346-.45 0-.84.119-1.14.358-.31.238-.54.568-.7.988-.15.421-.23.902-.23 1.443a4.4 4.4 0 0 0 .23 1.461c.16.424.4.759.7 1.005.31.243.69.364 1.14.364Zm11.65-2.136v-5.057h2.06V289h-2v-1.551h-.09c-.19.488-.52.888-.97 1.199-.44.31-1 .466-1.65.466-.57 0-1.08-.127-1.52-.381a2.706 2.706 0 0 1-1.02-1.119c-.25-.493-.37-1.087-.37-1.784v-5.557h2.06v5.238c0 .553.15.993.45 1.319.3.325.7.488 1.19.488.31 0 .6-.074.89-.221.28-.148.51-.368.69-.659.19-.296.28-.665.28-1.108Zm6.51 3.846c-.56 0-1.06-.098-1.5-.295a2.381 2.381 0 0 1-1.04-.887c-.26-.39-.38-.871-.38-1.443 0-.492.09-.899.27-1.221.18-.322.43-.58.74-.773a3.88 3.88 0 0 1 1.06-.438c.4-.102.81-.176 1.24-.221.51-.053.92-.101 1.24-.142.32-.046.55-.114.7-.205.14-.095.22-.24.22-.437v-.034c0-.428-.13-.76-.38-.995-.26-.235-.62-.352-1.1-.352-.5 0-.9.11-1.2.329-.29.22-.49.48-.59.779l-1.92-.273c.15-.53.4-.973.75-1.329.35-.36.77-.629 1.28-.807.5-.182 1.06-.273 1.67-.273.42 0 .84.049 1.25.148.42.098.8.261 1.15.488.34.224.62.529.83.915.21.387.31.87.31 1.449V289h-1.97v-1.199h-.07c-.13.243-.3.47-.53.682-.22.208-.51.377-.85.506-.33.125-.73.187-1.18.187Zm.53-1.511c.41 0 .77-.082 1.07-.245.31-.166.54-.386.7-.659.17-.272.25-.57.25-.892v-1.028c-.06.053-.17.102-.33.148-.15.045-.32.085-.51.119-.19.034-.38.064-.56.091l-.48.068c-.31.042-.59.11-.83.205-.24.094-.43.227-.57.397-.14.167-.21.383-.21.648 0 .379.14.665.41.858.28.193.63.29 1.06.29Zm10.32-7.392v1.591h-5.02v-1.591h5.02Zm-3.78-2.091h2.06v8.193c0 .277.04.489.12.636.09.144.2.243.34.296.14.053.3.079.47.079a2.607 2.607 0 0 0 .6-.079l.35 1.608c-.11.038-.27.079-.47.125-.2.045-.45.072-.74.079-.52.015-.98-.062-1.39-.233a2.187 2.187 0 0 1-.99-.806c-.24-.364-.35-.819-.35-1.364v-8.534Zm5.32 10.818v-8.727h2.06V289h-2.06Zm1.03-9.966c-.32 0-.6-.108-.84-.324a1.058 1.058 0 0 1-.35-.79c0-.31.12-.573.35-.789.24-.22.52-.33.84-.33.33 0 .61.11.84.33.24.216.36.479.36.789 0 .307-.12.571-.36.79-.23.216-.51.324-.84.324Zm6.77 10.136c-.85 0-1.59-.187-2.22-.562-.62-.375-1.11-.9-1.45-1.574-.34-.674-.51-1.462-.51-2.364 0-.901.17-1.691.51-2.369.34-.678.83-1.204 1.45-1.579.63-.375 1.37-.563 2.22-.563.85 0 1.59.188 2.21.563.63.375 1.11.901 1.45 1.579.35.678.52 1.468.52 2.369 0 .902-.17 1.69-.52 2.364a3.749 3.749 0 0 1-1.45 1.574c-.62.375-1.36.562-2.21.562Zm.01-1.647c.46 0 .85-.127 1.16-.381.31-.258.54-.602.69-1.034.16-.432.24-.913.24-1.443 0-.534-.08-1.017-.24-1.449-.15-.436-.38-.782-.69-1.04-.31-.257-.7-.386-1.16-.386-.47 0-.87.129-1.18.386-.31.258-.55.604-.7 1.04-.15.432-.23.915-.23 1.449 0 .53.08 1.011.23 1.443.15.432.39.776.7 1.034.31.254.71.381 1.18.381Zm7.79-3.637V289h-2.05v-8.727h1.96v1.483h.1c.21-.489.53-.877.96-1.165.45-.288 1-.432 1.65-.432.6 0 1.12.129 1.57.386.45.258.8.631 1.05 1.12.25.488.37 1.081.37 1.778V289h-2.06v-5.239c0-.583-.15-1.039-.46-1.369-.3-.33-.71-.494-1.24-.494-.36 0-.68.079-.96.238-.28.156-.49.381-.65.676-.16.296-.24.654-.24 1.074Zm12.81-.579V285h-5.24v-1.693h5.24Zm5.79 5.863c-.88 0-1.62-.191-2.25-.573a3.866 3.866 0 0 1-1.44-1.586c-.33-.678-.5-1.458-.5-2.341 0-.886.17-1.668.52-2.346.34-.682.82-1.212 1.44-1.591.62-.383 1.36-.574 2.21-.574.71 0 1.34.131 1.89.392.54.258.98.623 1.31 1.097.32.469.51 1.019.55 1.647h-1.96c-.08-.42-.27-.77-.57-1.051-.29-.284-.69-.426-1.19-.426-.42 0-.79.114-1.1.341-.32.224-.57.546-.75.966-.17.42-.26.924-.26 1.511 0 .595.09 1.106.26 1.534.18.425.42.752.73.983.32.228.7.341 1.12.341.31 0 .58-.057.82-.17.24-.118.44-.286.6-.506.17-.22.28-.487.34-.801h1.96a3.372 3.372 0 0 1-.54 1.642c-.32.474-.74.845-1.28 1.114-.55.265-1.18.397-1.91.397Zm7.76.006c-.56 0-1.06-.098-1.5-.295a2.381 2.381 0 0 1-1.04-.887c-.26-.39-.39-.871-.39-1.443 0-.492.1-.899.28-1.221.18-.322.43-.58.74-.773a3.88 3.88 0 0 1 1.06-.438c.4-.102.81-.176 1.24-.221.51-.053.92-.101 1.24-.142.32-.046.55-.114.69-.205.15-.095.23-.24.23-.437v-.034c0-.428-.13-.76-.38-.995-.26-.235-.62-.352-1.1-.352-.5 0-.9.11-1.2.329-.29.22-.49.48-.59.779l-1.92-.273c.15-.53.4-.973.75-1.329.35-.36.77-.629 1.28-.807.5-.182 1.06-.273 1.67-.273.42 0 .84.049 1.25.148.42.098.8.261 1.15.488.34.224.62.529.82.915.22.387.32.87.32 1.449V289h-1.97v-1.199h-.07c-.13.243-.3.47-.53.682-.22.208-.51.377-.85.506-.33.125-.73.187-1.18.187Zm.53-1.511c.41 0 .77-.082 1.07-.245.31-.166.54-.386.7-.659.17-.272.25-.57.25-.892v-1.028c-.06.053-.17.102-.33.148-.15.045-.32.085-.51.119-.19.034-.38.064-.56.091l-.48.068c-.31.042-.59.11-.83.205-.24.094-.43.227-.57.397-.14.167-.21.383-.21.648 0 .379.14.665.41.858.28.193.63.29 1.06.29Zm5.96 4.608v-12h2.02v1.443h.12c.11-.212.26-.438.45-.676.2-.243.46-.449.79-.62.33-.174.75-.261 1.26-.261.67 0 1.28.172 1.82.517.55.341.98.847 1.3 1.517.32.667.48 1.485.48 2.455 0 .958-.16 1.772-.47 2.443-.32.67-.74 1.182-1.29 1.534-.54.352-1.15.528-1.84.528-.5 0-.91-.083-1.24-.25-.33-.166-.6-.367-.8-.602a4.367 4.367 0 0 1-.46-.676h-.08v4.648h-2.06Zm2.02-7.637c0 .565.08 1.059.24 1.483.16.425.39.756.7.995.3.234.67.352 1.11.352.45 0 .83-.121 1.14-.364.31-.246.54-.581.69-1.005.16-.428.24-.915.24-1.461 0-.541-.07-1.022-.23-1.443-.16-.42-.39-.75-.69-.988-.31-.239-.69-.358-1.15-.358-.44 0-.81.115-1.12.346-.31.231-.54.555-.7.972-.15.416-.23.907-.23 1.471Zm13.09-1.329V285h-5.24v-1.693h5.24Zm6.26 5.915c-.93 0-1.74-.237-2.41-.711-.66-.477-1.18-1.164-1.54-2.062-.35-.902-.53-1.987-.53-3.256 0-1.269.18-2.348.54-3.238.36-.894.87-1.576 1.54-2.046.67-.47 1.47-.704 2.4-.704.93 0 1.74.234 2.41.704.67.47 1.18 1.152 1.54 2.046.36.893.54 1.973.54 3.238 0 1.273-.18 2.36-.54 3.262-.36.897-.87 1.583-1.54 2.056-.67.474-1.47.711-2.41.711Zm0-1.779c.73 0 1.3-.358 1.72-1.074.43-.719.64-1.778.64-3.176 0-.924-.1-1.701-.29-2.329-.19-.629-.46-1.103-.82-1.421a1.79 1.79 0 0 0-1.25-.483c-.72 0-1.29.36-1.71 1.08-.42.716-.64 1.767-.64 3.153 0 .928.09 1.709.28 2.341.19.633.46 1.11.82 1.432.35.318.77.477 1.25.477Zm6.19 1.557v-1.523l4.04-3.96c.39-.39.71-.737.97-1.04.26-.303.45-.596.58-.88.13-.285.19-.588.19-.909 0-.368-.08-.682-.25-.944a1.582 1.582 0 0 0-.69-.613 2.197 2.197 0 0 0-.99-.216c-.38 0-.72.079-1.01.238a1.7 1.7 0 0 0-.67.665c-.15.288-.23.631-.23 1.029h-2c0-.739.16-1.381.5-1.927.34-.545.8-.967 1.39-1.267.6-.299 1.28-.448 2.05-.448.78 0 1.46.145 2.06.437.59.292 1.04.691 1.37 1.199.33.507.49 1.087.49 1.739 0 .435-.08.863-.25 1.284-.16.42-.46.886-.88 1.397-.41.512-1 1.131-1.75 1.858l-2.01 2.04v.08h5.07V289h-7.98Z"/>
  <path stroke="#000" stroke-linecap="round" stroke-linejoin="round" stroke-width="2" d="m1657.96 150.986-1.85-1.842m4.61-.921-1.84-1.842m4.6-.921-1.84-1.842m4.6-.921-1.84-1.842m-8.08 13.363 12.9-12.894a1.3 1.3 0 0 0 0-1.842l-3.7-3.701a1.301 1.301 0 0 0-1.84 0l-12.9 12.895a1.3 1.3 0 0 0 0 1.842l3.7 3.7a1.3 1.3 0 0 0 1.84 0Z"/>
  <path fill="#000" d="M1685.06 151v-8.727h1.99v1.454h.09c.16-.504.43-.892.82-1.165.39-.276.84-.414 1.34-.414.11 0 .24.005.38.017.14.007.26.021.35.04v1.892a1.944 1.944 0 0 0-.41-.08c-.19-.026-.37-.04-.54-.04-.38 0-.71.082-1.01.245-.3.159-.53.38-.7.664a1.88 1.88 0 0 0-.26.983V151h-2.05Zm11.72-3.67v-5.057h2.06V151h-1.99v-1.551h-.1c-.19.488-.52.888-.97 1.199-.44.31-1 .466-1.65.466-.57 0-1.08-.127-1.52-.381a2.706 2.706 0 0 1-1.02-1.119c-.25-.493-.37-1.087-.37-1.784v-5.557h2.06v5.238c0 .553.15.993.45 1.319.3.325.7.488 1.2.488.3 0 .59-.074.88-.221.28-.148.51-.368.69-.659.19-.296.28-.665.28-1.108Zm6.05-7.966V151h-2.06v-11.636h2.06Zm5.8 11.806c-.87 0-1.63-.181-2.27-.545a3.699 3.699 0 0 1-1.46-1.557c-.34-.674-.51-1.468-.51-2.38 0-.898.17-1.686.51-2.364.35-.682.83-1.212 1.45-1.591.61-.383 1.34-.574 2.17-.574.54 0 1.05.087 1.53.261.48.171.9.436 1.27.796.37.36.66.818.87 1.375.22.553.32 1.212.32 1.977v.631h-7.15v-1.387h5.18c0-.393-.09-.744-.26-1.051-.16-.31-.4-.555-.7-.733a1.946 1.946 0 0 0-1.03-.267c-.42 0-.79.103-1.11.307-.32.201-.56.466-.74.796-.18.325-.26.683-.27 1.074v1.21c0 .507.09.943.28 1.307.19.359.45.636.78.829.33.189.72.284 1.17.284.3 0 .57-.041.81-.125.24-.087.45-.214.63-.381.18-.166.31-.373.41-.619l1.92.216c-.13.508-.36.951-.7 1.33-.33.375-.77.666-1.29.875-.53.204-1.13.306-1.81.306Zm5.44-.17v-8.727h2v1.454h.09c.16-.504.43-.892.81-1.165.39-.276.84-.414 1.34-.414.11 0 .24.005.38.017.14.007.26.021.36.04v1.892a2.233 2.233 0 0 0-.42-.08c-.18-.026-.36-.04-.54-.04-.37 0-.71.082-1.01.245-.29.159-.53.38-.7.664-.17.284-.25.612-.25.983V151h-2.06Z"/>
</svg>
