<svg xmlns="http://www.w3.org/2000/svg" width="1800" height="284" fill="none" viewBox="0 0 1800 284">
  <path fill="#1F2022" d="M91.207 90.344c-.08-.745-.414-1.324-1.005-1.739-.585-.415-1.347-.622-2.284-.622-.66 0-1.225.1-1.696.298-.472.2-.833.469-1.083.81-.25.34-.378.73-.383 1.168 0 .363.082.678.247.945.17.268.4.495.69.682.29.182.611.336.963.46.352.126.708.23 1.066.316l1.636.409c.659.153 1.293.36 1.9.622a6.656 6.656 0 0 1 1.645.989c.489.397.875.878 1.16 1.44.284.563.426 1.222.426 1.977 0 1.023-.262 1.924-.785 2.702-.522.773-1.278 1.378-2.266 1.815-.984.432-2.174.648-3.572.648-1.358 0-2.537-.21-3.537-.63-.994-.421-1.772-1.035-2.335-1.841-.556-.807-.858-1.79-.903-2.95h3.11c.046.609.234 1.114.563 1.518.33.403.759.704 1.287.903.534.199 1.13.298 1.79.298.687 0 1.29-.102 1.807-.306.523-.211.931-.5 1.227-.87a2.1 2.1 0 0 0 .452-1.312c-.006-.455-.14-.83-.4-1.125-.262-.301-.629-.551-1.1-.75a10.59 10.59 0 0 0-1.637-.546l-1.986-.511c-1.437-.37-2.573-.929-3.408-1.679-.83-.756-1.245-1.758-1.245-3.008 0-1.029.278-1.93.835-2.702.563-.773 1.327-1.372 2.293-1.799.966-.431 2.06-.647 3.281-.647 1.239 0 2.324.216 3.256.647.937.427 1.673 1.02 2.207 1.782.534.755.81 1.625.827 2.608h-3.043Zm8.33 4.986V103H96.45V85.546h3.017v6.587h.154a3.787 3.787 0 0 1 1.423-1.747c.648-.431 1.472-.647 2.472-.647.909 0 1.701.19 2.377.57.676.381 1.199.938 1.569 1.671.375.733.562 1.628.562 2.685V103h-3.085v-7.858c0-.88-.227-1.565-.682-2.054-.449-.494-1.08-.741-1.892-.741a2.98 2.98 0 0 0-1.466.358 2.509 2.509 0 0 0-1.006 1.014c-.238.443-.358.98-.358 1.61Zm14.68 7.934c-.83 0-1.577-.148-2.242-.443a3.657 3.657 0 0 1-1.568-1.33c-.38-.585-.571-1.306-.571-2.164 0-.739.137-1.35.409-1.833a3.167 3.167 0 0 1 1.117-1.159 5.626 5.626 0 0 1 1.594-.656 12.953 12.953 0 0 1 1.849-.332c.767-.08 1.389-.151 1.867-.213.477-.069.823-.17 1.039-.307.222-.142.333-.361.333-.656v-.052c0-.642-.191-1.139-.571-1.491-.381-.352-.929-.529-1.645-.529-.756 0-1.355.165-1.799.495-.437.33-.732.719-.886 1.167l-2.881-.409c.228-.795.603-1.46 1.125-1.994a4.895 4.895 0 0 1 1.918-1.21c.756-.273 1.591-.41 2.506-.41.63 0 1.258.075 1.883.222a5.3 5.3 0 0 1 1.713.733 3.69 3.69 0 0 1 1.245 1.372c.318.58.477 1.304.477 2.174V103h-2.966v-1.798h-.102a3.78 3.78 0 0 1-.793 1.022c-.335.313-.758.566-1.27.759-.505.187-1.099.281-1.781.281Zm.801-2.267c.619 0 1.156-.122 1.611-.366.454-.25.804-.58 1.048-.989.25-.409.375-.855.375-1.338v-1.543c-.096.08-.261.154-.494.222a6.997 6.997 0 0 1-.767.179c-.284.051-.566.096-.844.136l-.724.103a5.368 5.368 0 0 0-1.236.306 2.047 2.047 0 0 0-.861.597c-.21.25-.315.574-.315.972 0 .568.207.997.622 1.286.415.29.943.435 1.585.435Zm8.493 6.912v-18h3.034v2.165h.179c.159-.318.384-.656.674-1.014.289-.364.681-.674 1.176-.93.494-.26 1.125-.391 1.892-.391 1.011 0 1.923.258 2.736.775.818.512 1.465 1.27 1.943 2.276.483 1 .724 2.227.724 3.682 0 1.437-.236 2.659-.707 3.664-.472 1.006-1.114 1.773-1.926 2.302-.813.528-1.733.792-2.762.792-.75 0-1.372-.125-1.866-.375-.495-.25-.892-.551-1.193-.903a5.846 5.846 0 0 1-.691-1.014h-.128v6.971h-3.085Zm3.026-11.455c0 .847.119 1.589.358 2.225.244.636.593 1.133 1.048 1.491.46.353 1.017.529 1.67.529.682 0 1.253-.182 1.714-.546.46-.369.806-.872 1.039-1.508.239-.642.358-1.372.358-2.19 0-.813-.116-1.534-.349-2.165-.233-.63-.58-1.125-1.04-1.483-.46-.358-1.034-.537-1.722-.537-.659 0-1.218.173-1.679.52-.46.346-.809.832-1.048 1.457-.233.625-.349 1.361-.349 2.207Zm17.05 6.802c-1.313 0-2.446-.273-3.401-.818a5.542 5.542 0 0 1-2.19-2.336c-.512-1.011-.767-2.201-.767-3.57 0-1.347.255-2.53.767-3.546.517-1.023 1.238-1.818 2.164-2.387.927-.573 2.015-.86 3.265-.86.807 0 1.568.13 2.284.392a5.166 5.166 0 0 1 1.909 1.193c.557.54.994 1.227 1.312 2.062.319.83.478 1.819.478 2.966v.946h-10.73v-2.08h7.772c-.005-.59-.133-1.116-.383-1.576a2.79 2.79 0 0 0-1.049-1.1c-.443-.266-.96-.4-1.551-.4-.63 0-1.184.154-1.662.46a3.17 3.17 0 0 0-1.116 1.194 3.442 3.442 0 0 0-.401 1.61v1.816c0 .761.14 1.414.418 1.96.278.54.668.954 1.168 1.244.5.284 1.085.426 1.755.426.449 0 .855-.062 1.219-.187.364-.131.679-.321.946-.571.267-.25.469-.56.605-.93l2.881.325a4.496 4.496 0 0 1-1.04 1.994c-.506.562-1.153 1-1.943 1.312-.79.307-1.693.461-2.71.461Zm18.057-9.887-2.812.307a2.266 2.266 0 0 0-.418-.801 2.068 2.068 0 0 0-.784-.605c-.329-.153-.733-.23-1.21-.23-.642 0-1.182.139-1.619.417-.432.279-.645.64-.64 1.083-.005.38.134.69.418.929.29.238.767.434 1.432.588l2.233.477c1.238.267 2.159.69 2.761 1.27.608.58.915 1.338.921 2.275-.006.824-.248 1.552-.725 2.182-.471.625-1.128 1.114-1.969 1.466-.841.353-1.806.529-2.897.529-1.603 0-2.892-.336-3.87-1.006-.977-.676-1.559-1.616-1.747-2.821l3.009-.29c.136.591.426 1.037.869 1.338.443.301 1.02.452 1.73.452.733 0 1.321-.151 1.764-.452.449-.301.674-.673.674-1.116 0-.375-.145-.685-.435-.93-.284-.243-.727-.431-1.33-.562l-2.233-.468c-1.255-.262-2.184-.702-2.786-1.322-.603-.624-.901-1.414-.895-2.369-.006-.807.213-1.505.656-2.096.449-.597 1.071-1.057 1.866-1.381.802-.33 1.725-.494 2.77-.494 1.534 0 2.742.326 3.622.98.887.653 1.435 1.537 1.645 2.65Z"/>
  <path stroke="#000" stroke-width="2" d="M101.6 145a9.6 9.6 0 1 1-19.2 0 9.6 9.6 0 0 1 19.2 0Z"/>
  <path fill="#000" d="M120.864 151.17c-.872 0-1.62-.191-2.245-.573a3.832 3.832 0 0 1-1.437-1.586c-.334-.678-.5-1.458-.5-2.341 0-.886.17-1.668.511-2.346a3.819 3.819 0 0 1 1.443-1.591c.625-.383 1.364-.574 2.216-.574.709 0 1.336.131 1.881.392.549.258.987.623 1.312 1.097.326.469.512 1.019.557 1.647h-1.966a1.88 1.88 0 0 0-.568-1.051c-.295-.284-.691-.426-1.187-.426-.421 0-.79.114-1.108.341-.318.224-.567.546-.745.966-.174.42-.261.924-.261 1.511 0 .595.087 1.106.261 1.534.175.425.419.752.733.983.319.228.692.341 1.12.341.303 0 .574-.057.812-.17.243-.118.445-.286.608-.506.163-.22.275-.487.335-.801h1.966a3.43 3.43 0 0 1-.545 1.642 3.235 3.235 0 0 1-1.284 1.114c-.542.265-1.178.397-1.909.397Zm5.247-.17v-8.727h2.057V151h-2.057Zm1.034-9.966c-.325 0-.606-.108-.841-.324a1.046 1.046 0 0 1-.352-.79c0-.31.118-.573.352-.789.235-.22.516-.33.841-.33.33 0 .61.11.841.33.235.216.352.479.352.789 0 .307-.117.571-.352.79a1.186 1.186 0 0 1-.841.324Zm2.958 9.966v-8.727h1.994v1.454h.091c.159-.504.432-.892.818-1.165a2.259 2.259 0 0 1 1.336-.414c.113 0 .24.005.38.017.144.007.264.021.358.04v1.892a2.117 2.117 0 0 0-.414-.08 3.906 3.906 0 0 0-.54-.04c-.375 0-.712.082-1.012.245-.295.159-.528.38-.698.664a1.869 1.869 0 0 0-.256.983V151h-2.057Zm9.611.17c-.871 0-1.619-.191-2.244-.573a3.84 3.84 0 0 1-1.438-1.586c-.333-.678-.5-1.458-.5-2.341 0-.886.171-1.668.512-2.346a3.819 3.819 0 0 1 1.443-1.591c.625-.383 1.364-.574 2.216-.574.708 0 1.335.131 1.881.392.549.258.986.623 1.312 1.097.326.469.511 1.019.557 1.647h-1.966c-.08-.42-.269-.77-.568-1.051-.296-.284-.691-.426-1.188-.426-.42 0-.789.114-1.108.341-.318.224-.566.546-.744.966-.174.42-.261.924-.261 1.511 0 .595.087 1.106.261 1.534.174.425.419.752.733.983a1.87 1.87 0 0 0 1.119.341c.303 0 .574-.057.813-.17.242-.118.445-.286.608-.506.163-.22.274-.487.335-.801h1.966a3.42 3.42 0 0 1-.546 1.642 3.222 3.222 0 0 1-1.284 1.114c-.541.265-1.178.397-1.909.397Zm7.305-11.806V151h-2.057v-11.636h2.057Zm5.798 11.806c-.875 0-1.63-.181-2.267-.545a3.692 3.692 0 0 1-1.46-1.557c-.341-.674-.511-1.468-.511-2.38 0-.898.17-1.686.511-2.364a3.872 3.872 0 0 1 1.443-1.591c.618-.383 1.343-.574 2.176-.574a4.41 4.41 0 0 1 1.523.261c.481.171.905.436 1.273.796.371.36.663.818.875 1.375.212.553.318 1.212.318 1.977v.631h-7.153v-1.387h5.181a2.213 2.213 0 0 0-.255-1.051c-.167-.31-.4-.555-.699-.733a1.966 1.966 0 0 0-1.034-.267c-.421 0-.79.103-1.108.307a2.114 2.114 0 0 0-.744.796 2.28 2.28 0 0 0-.268 1.074v1.21c0 .507.093.943.279 1.307.185.359.445.636.778.829.334.189.724.284 1.171.284.299 0 .57-.041.812-.125.243-.087.453-.214.631-.381.178-.166.312-.373.403-.619l1.921.216a2.991 2.991 0 0 1-.693 1.33 3.392 3.392 0 0 1-1.296.875c-.526.204-1.129.306-1.807.306Z"/>
  <path stroke="#000" stroke-linejoin="round" stroke-width="2" d="m92 181.4 9.6 9.6-9.6 9.6-9.6-9.6 9.6-9.6Z"/>
  <path fill="#000" d="M120.295 197.153a3.3 3.3 0 0 1-1.84-.528c-.542-.352-.97-.864-1.285-1.534-.314-.671-.471-1.485-.471-2.443 0-.97.159-1.788.477-2.455.322-.67.756-1.176 1.301-1.517a3.344 3.344 0 0 1 1.824-.517c.512 0 .932.087 1.261.261.33.171.591.377.785.62.193.238.342.464.448.676h.086v-4.352h2.062V197h-2.023v-1.375h-.125a3.513 3.513 0 0 1-.46.676 2.526 2.526 0 0 1-.795.602c-.33.167-.745.25-1.245.25Zm.574-1.687c.436 0 .807-.118 1.114-.352.307-.239.54-.57.699-.995.159-.424.238-.918.238-1.483 0-.564-.079-1.055-.238-1.471-.155-.417-.387-.741-.693-.972-.303-.231-.676-.346-1.12-.346-.458 0-.841.119-1.147.358-.307.238-.538.568-.694.988a4.16 4.16 0 0 0-.233 1.443c0 .546.078 1.033.233 1.461.16.424.392.759.699 1.005.311.243.692.364 1.142.364Zm6.086 1.534v-8.727h2.057V197h-2.057Zm1.034-9.966a1.2 1.2 0 0 1-.841-.324 1.042 1.042 0 0 1-.352-.79c0-.31.117-.573.352-.789.235-.22.515-.33.841-.33.33 0 .61.11.841.33.235.216.352.479.352.789 0 .307-.117.571-.352.79a1.186 1.186 0 0 1-.841.324Zm5.469 10.142a3.639 3.639 0 0 1-1.494-.295 2.443 2.443 0 0 1-1.046-.887c-.253-.39-.38-.871-.38-1.443 0-.492.091-.899.272-1.221.182-.322.43-.58.745-.773a3.767 3.767 0 0 1 1.062-.438 8.628 8.628 0 0 1 1.233-.221 51.91 51.91 0 0 0 1.245-.142c.318-.046.549-.114.693-.205.147-.095.221-.24.221-.437v-.034c0-.428-.127-.76-.38-.995-.254-.235-.62-.352-1.097-.352-.504 0-.903.11-1.199.329-.291.22-.488.48-.591.779l-1.92-.273c.151-.53.401-.973.75-1.329.348-.36.774-.629 1.278-.807a4.89 4.89 0 0 1 1.671-.273c.42 0 .839.049 1.255.148.417.098.798.261 1.142.488.345.224.622.529.83.915.212.387.318.87.318 1.449V197h-1.977v-1.199h-.068a2.49 2.49 0 0 1-1.375 1.188c-.337.125-.733.187-1.188.187Zm.534-1.511c.413 0 .771-.082 1.074-.245a1.8 1.8 0 0 0 .699-.659c.167-.272.25-.57.25-.892v-1.028a.97.97 0 0 1-.33.148 4.739 4.739 0 0 1-.511.119 17.23 17.23 0 0 1-.562.091l-.483.068c-.307.042-.582.11-.824.205a1.36 1.36 0 0 0-.574.397c-.14.167-.21.383-.21.648 0 .379.138.665.414.858.277.193.629.29 1.057.29Zm5.962 1.335v-8.727h1.966v1.483h.102c.182-.5.483-.89.904-1.171.42-.284.922-.426 1.506-.426.59 0 1.089.144 1.494.432.409.284.697.672.864 1.165h.09c.194-.485.519-.872.978-1.159.462-.292 1.009-.438 1.642-.438.803 0 1.458.254 1.966.761.507.508.761 1.249.761 2.222V197h-2.062v-5.54c0-.541-.144-.937-.432-1.187a1.54 1.54 0 0 0-1.057-.381c-.496 0-.885.155-1.165.466-.276.307-.415.706-.415 1.199V197h-2.017v-5.625c0-.451-.136-.811-.409-1.08-.269-.268-.621-.403-1.057-.403-.295 0-.564.076-.806.227a1.584 1.584 0 0 0-.58.631 1.968 1.968 0 0 0-.216.943V197h-2.057Zm17.987.17c-.853 0-1.591-.187-2.216-.562a3.825 3.825 0 0 1-1.455-1.574c-.341-.674-.511-1.462-.511-2.364 0-.901.17-1.691.511-2.369a3.814 3.814 0 0 1 1.455-1.579c.625-.375 1.363-.563 2.216-.563.852 0 1.59.188 2.215.563a3.774 3.774 0 0 1 1.449 1.579c.345.678.517 1.468.517 2.369 0 .902-.172 1.69-.517 2.364a3.785 3.785 0 0 1-1.449 1.574c-.625.375-1.363.562-2.215.562Zm.011-1.647c.462 0 .848-.127 1.159-.381.311-.258.542-.602.693-1.034.155-.432.233-.913.233-1.443 0-.534-.078-1.017-.233-1.449-.151-.436-.382-.782-.693-1.04-.311-.257-.697-.386-1.159-.386-.474 0-.868.129-1.182.386-.311.258-.544.604-.699 1.04a4.37 4.37 0 0 0-.227 1.449c0 .53.076 1.011.227 1.443.155.432.388.776.699 1.034.314.254.708.381 1.182.381Zm7.793-3.637V197h-2.057v-8.727h1.966v1.483h.102c.201-.489.521-.877.96-1.165.444-.288.991-.432 1.643-.432.602 0 1.126.129 1.573.386.451.258.8.631 1.046 1.12.25.488.373 1.081.369 1.778V197h-2.057v-5.239c0-.583-.151-1.039-.454-1.369-.299-.33-.714-.494-1.245-.494-.359 0-.679.079-.96.238a1.663 1.663 0 0 0-.653.676c-.155.296-.233.654-.233 1.074Zm10.752 5.267c-.686 0-1.3-.176-1.841-.528-.542-.352-.97-.864-1.284-1.534-.315-.671-.472-1.485-.472-2.443 0-.97.159-1.788.477-2.455.322-.67.756-1.176 1.302-1.517a3.338 3.338 0 0 1 1.823-.517c.512 0 .932.087 1.262.261.329.171.591.377.784.62.193.238.343.464.449.676h.085v-4.352h2.062V197h-2.022v-1.375h-.125c-.106.212-.26.437-.461.676-.2.235-.465.436-.795.602-.33.167-.744.25-1.244.25Zm.574-1.687c.435 0 .806-.118 1.113-.352.307-.239.54-.57.699-.995.159-.424.239-.918.239-1.483 0-.564-.08-1.055-.239-1.471-.155-.417-.386-.741-.693-.972-.303-.231-.676-.346-1.119-.346-.459 0-.841.119-1.148.358-.307.238-.538.568-.693.988-.156.421-.233.902-.233 1.443 0 .546.077 1.033.233 1.461.159.424.392.759.699 1.005.31.243.691.364 1.142.364Z"/>
  <path stroke="#000" stroke-linejoin="round" stroke-width="2" d="m479.75 135.4 8.4 4.8v9.6l-8.4 4.8-8.4-4.8v-9.6l8.4-4.8Z"/>
  <path fill="#000" d="M506.864 145.886V151h-2.057v-11.636h2.011v4.392h.102c.205-.493.521-.881.949-1.165.432-.288.981-.432 1.648-.432.606 0 1.135.127 1.585.381.451.254.8.625 1.046 1.113.25.489.375 1.086.375 1.79V151h-2.057v-5.239c0-.587-.152-1.043-.455-1.369-.299-.33-.719-.494-1.261-.494-.364 0-.689.079-.977.238a1.68 1.68 0 0 0-.671.676c-.159.296-.238.654-.238 1.074Zm11.439 5.284c-.875 0-1.631-.181-2.267-.545a3.686 3.686 0 0 1-1.46-1.557c-.341-.674-.512-1.468-.512-2.38 0-.898.171-1.686.512-2.364a3.858 3.858 0 0 1 1.443-1.591c.617-.383 1.343-.574 2.176-.574.538 0 1.045.087 1.523.261.481.171.905.436 1.272.796.372.36.663.818.875 1.375.213.553.319 1.212.319 1.977v.631h-7.154v-1.387h5.182a2.214 2.214 0 0 0-.256-1.051 1.854 1.854 0 0 0-.699-.733 1.963 1.963 0 0 0-1.034-.267c-.42 0-.789.103-1.108.307a2.114 2.114 0 0 0-.744.796 2.29 2.29 0 0 0-.267 1.074v1.21c0 .507.093.943.278 1.307.186.359.446.636.779.829.333.189.723.284 1.17.284.3 0 .57-.041.813-.125.242-.087.453-.214.631-.381.178-.166.312-.373.403-.619l1.92.216a2.991 2.991 0 0 1-.693 1.33 3.388 3.388 0 0 1-1.295.875c-.527.204-1.129.306-1.807.306Zm6.935-8.897 1.761 3.221 1.79-3.221h2.176l-2.63 4.363 2.676 4.364h-2.165l-1.847-3.142L525.17 151h-2.182l2.659-4.364-2.591-4.363h2.182Zm9.618 8.903a3.639 3.639 0 0 1-1.494-.295 2.44 2.44 0 0 1-1.045-.887c-.254-.39-.381-.871-.381-1.443 0-.492.091-.899.273-1.221.181-.322.43-.58.744-.773a3.767 3.767 0 0 1 1.062-.438 8.628 8.628 0 0 1 1.233-.221 51.91 51.91 0 0 0 1.245-.142c.318-.046.549-.114.693-.205.148-.095.221-.24.221-.437v-.034c0-.428-.126-.76-.38-.995s-.62-.352-1.097-.352c-.504 0-.903.11-1.199.329-.291.22-.488.48-.591.779l-1.92-.273c.151-.53.401-.973.75-1.329.348-.36.775-.629 1.278-.807a4.89 4.89 0 0 1 1.671-.273c.42 0 .839.049 1.255.148.417.098.798.261 1.143.488.344.224.621.529.829.915.212.387.318.87.318 1.449V151h-1.977v-1.199h-.068a2.49 2.49 0 0 1-1.375 1.188c-.337.125-.733.187-1.188.187Zm.534-1.511c.413 0 .771-.082 1.074-.245a1.8 1.8 0 0 0 .699-.659c.167-.272.25-.57.25-.892v-1.028a.973.973 0 0 1-.329.148 4.76 4.76 0 0 1-.512.119 17.23 17.23 0 0 1-.562.091l-.483.068c-.307.042-.582.11-.824.205a1.36 1.36 0 0 0-.574.397c-.14.167-.21.383-.21.648 0 .379.138.665.415.858.276.193.628.29 1.056.29Zm9.758 4.79c-.739 0-1.373-.101-1.904-.302-.53-.197-.956-.462-1.278-.795a2.752 2.752 0 0 1-.67-1.108l1.852-.449c.083.171.204.339.364.506.159.17.373.31.642.42.272.114.615.171 1.028.171.583 0 1.066-.142 1.449-.426.382-.281.574-.743.574-1.387v-1.653h-.103a2.92 2.92 0 0 1-.465.653 2.384 2.384 0 0 1-.802.563c-.329.151-.744.227-1.244.227-.67 0-1.278-.157-1.824-.472-.541-.318-.973-.791-1.295-1.42-.318-.633-.478-1.424-.478-2.375 0-.958.16-1.767.478-2.426.322-.663.755-1.165 1.301-1.506a3.34 3.34 0 0 1 1.824-.517c.511 0 .932.087 1.261.261.333.171.599.377.796.62.197.238.346.464.448.676h.114v-1.443h2.028v8.869c0 .746-.178 1.364-.534 1.852-.356.489-.842.854-1.46 1.097-.617.242-1.318.364-2.102.364Zm.017-5.194c.436 0 .807-.106 1.114-.318.306-.212.539-.517.698-.915.16-.397.239-.875.239-1.431 0-.55-.079-1.031-.239-1.444-.155-.412-.386-.733-.693-.96-.303-.231-.676-.346-1.119-.346-.458 0-.841.119-1.148.358-.307.238-.538.566-.693.983a3.984 3.984 0 0 0-.233 1.409c0 .534.078 1.001.233 1.403.159.398.392.708.699.932.311.22.691.329 1.142.329Zm9.814 1.909c-.852 0-1.591-.187-2.216-.562a3.822 3.822 0 0 1-1.454-1.574c-.341-.674-.512-1.462-.512-2.364 0-.901.171-1.691.512-2.369a3.811 3.811 0 0 1 1.454-1.579c.625-.375 1.364-.563 2.216-.563.853 0 1.591.188 2.216.563a3.774 3.774 0 0 1 1.449 1.579c.345.678.517 1.468.517 2.369 0 .902-.172 1.69-.517 2.364a3.785 3.785 0 0 1-1.449 1.574c-.625.375-1.363.562-2.216.562Zm.012-1.647c.462 0 .848-.127 1.159-.381.31-.258.541-.602.693-1.034.155-.432.233-.913.233-1.443 0-.534-.078-1.017-.233-1.449-.152-.436-.383-.782-.693-1.04-.311-.257-.697-.386-1.159-.386-.474 0-.868.129-1.182.386-.311.258-.544.604-.699 1.04a4.345 4.345 0 0 0-.227 1.449c0 .53.075 1.011.227 1.443.155.432.388.776.699 1.034.314.254.708.381 1.182.381Zm7.793-3.637V151h-2.057v-8.727h1.966v1.483h.102c.201-.489.521-.877.96-1.165.443-.288.991-.432 1.642-.432.603 0 1.127.129 1.574.386.451.258.799.631 1.046 1.12.25.488.373 1.081.369 1.778V151h-2.057v-5.239c0-.583-.151-1.039-.454-1.369-.3-.33-.714-.494-1.245-.494-.36 0-.68.079-.96.238a1.657 1.657 0 0 0-.653.676c-.156.296-.233.654-.233 1.074Z"/>
  <path stroke="#000" stroke-linejoin="round" stroke-width="2" d="m483.694 181.4 5.633 5.6.023 7.944-5.601 5.633-7.943.023-5.633-5.601-.023-7.943 5.6-5.633 7.944-.023Z"/>
  <path fill="#000" d="M508.614 197.17c-.853 0-1.591-.187-2.216-.562a3.825 3.825 0 0 1-1.455-1.574c-.341-.674-.511-1.462-.511-2.364 0-.901.17-1.691.511-2.369a3.814 3.814 0 0 1 1.455-1.579c.625-.375 1.363-.563 2.216-.563.852 0 1.591.188 2.216.563a3.766 3.766 0 0 1 1.448 1.579c.345.678.517 1.468.517 2.369 0 .902-.172 1.69-.517 2.364a3.776 3.776 0 0 1-1.448 1.574c-.625.375-1.364.562-2.216.562Zm.011-1.647c.462 0 .848-.127 1.159-.381.311-.258.542-.602.693-1.034.156-.432.233-.913.233-1.443 0-.534-.077-1.017-.233-1.449-.151-.436-.382-.782-.693-1.04-.311-.257-.697-.386-1.159-.386-.473 0-.867.129-1.182.386-.31.258-.543.604-.699 1.04a4.37 4.37 0 0 0-.227 1.449c0 .53.076 1.011.227 1.443.156.432.389.776.699 1.034.315.254.709.381 1.182.381Zm9.543 1.647c-.871 0-1.619-.191-2.244-.573a3.827 3.827 0 0 1-1.438-1.586c-.333-.678-.5-1.458-.5-2.341 0-.886.171-1.668.512-2.346a3.812 3.812 0 0 1 1.443-1.591c.625-.383 1.363-.574 2.216-.574.708 0 1.335.131 1.88.392.55.258.987.623 1.313 1.097.326.469.511 1.019.557 1.647h-1.966c-.08-.42-.269-.77-.568-1.051-.296-.284-.692-.426-1.188-.426-.42 0-.79.114-1.108.341-.318.224-.566.546-.744.966-.174.42-.262.924-.262 1.511 0 .595.088 1.106.262 1.534.174.425.418.752.733.983a1.87 1.87 0 0 0 1.119.341c.303 0 .574-.057.813-.17.242-.118.445-.286.608-.506.162-.22.274-.487.335-.801h1.966a3.43 3.43 0 0 1-.546 1.642 3.222 3.222 0 0 1-1.284 1.114c-.542.265-1.178.397-1.909.397Zm9.606-8.897v1.591h-5.018v-1.591h5.018Zm-3.779-2.091h2.057v8.193c0 .277.042.489.125.636a.676.676 0 0 0 .341.296c.14.053.295.079.466.079.129 0 .246-.009.352-.028.11-.019.193-.036.25-.051l.347 1.608c-.11.038-.267.079-.472.125a3.86 3.86 0 0 1-.739.079 3.348 3.348 0 0 1-1.392-.233 2.169 2.169 0 0 1-.983-.806c-.238-.364-.356-.819-.352-1.364v-8.534Zm7.83 10.994a3.639 3.639 0 0 1-1.494-.295 2.443 2.443 0 0 1-1.046-.887c-.254-.39-.38-.871-.38-1.443 0-.492.091-.899.272-1.221.182-.322.43-.58.745-.773a3.767 3.767 0 0 1 1.062-.438 8.628 8.628 0 0 1 1.233-.221c.511-.053.926-.101 1.244-.142.319-.046.55-.114.694-.205.147-.095.221-.24.221-.437v-.034c0-.428-.127-.76-.38-.995-.254-.235-.62-.352-1.097-.352-.504 0-.903.11-1.199.329-.292.22-.489.48-.591.779l-1.92-.273c.151-.53.401-.973.75-1.329.348-.36.774-.629 1.278-.807a4.89 4.89 0 0 1 1.671-.273c.42 0 .839.049 1.255.148.417.098.798.261 1.142.488.345.224.621.529.83.915.212.387.318.87.318 1.449V197h-1.977v-1.199h-.068a2.51 2.51 0 0 1-.529.682 2.552 2.552 0 0 1-.846.506c-.338.125-.733.187-1.188.187Zm.534-1.511c.413 0 .771-.082 1.074-.245a1.8 1.8 0 0 0 .699-.659c.167-.272.25-.57.25-.892v-1.028a.98.98 0 0 1-.33.148 4.739 4.739 0 0 1-.511.119c-.189.034-.377.064-.563.091l-.482.068c-.307.042-.582.11-.824.205a1.36 1.36 0 0 0-.574.397c-.14.167-.21.383-.21.648 0 .379.138.665.414.858.277.193.629.29 1.057.29Zm9.758 4.79c-.739 0-1.373-.101-1.904-.302-.53-.197-.956-.462-1.278-.795a2.755 2.755 0 0 1-.671-1.108l1.853-.449c.083.171.204.339.363.506.159.17.373.31.642.42.273.114.616.171 1.029.171.583 0 1.066-.142 1.449-.426.382-.281.573-.743.573-1.387v-1.653h-.102c-.106.212-.261.43-.466.653a2.38 2.38 0 0 1-.801.563c-.329.151-.744.227-1.244.227a3.578 3.578 0 0 1-1.824-.472c-.542-.318-.974-.791-1.295-1.42-.319-.633-.478-1.424-.478-2.375 0-.958.159-1.767.478-2.426.321-.663.755-1.165 1.301-1.506a3.34 3.34 0 0 1 1.824-.517c.511 0 .931.087 1.261.261.333.171.598.377.795.62.197.238.347.464.449.676h.114v-1.443h2.028v8.869c0 .746-.178 1.364-.534 1.852-.356.489-.843.854-1.46 1.097-.618.242-1.318.364-2.102.364Zm.017-5.194c.435 0 .807-.106 1.113-.318.307-.212.54-.517.699-.915.159-.397.239-.875.239-1.431 0-.55-.08-1.031-.239-1.444-.155-.412-.386-.733-.693-.96-.303-.231-.676-.346-1.119-.346-.459 0-.841.119-1.148.358-.307.238-.538.566-.693.983a3.961 3.961 0 0 0-.233 1.409c0 .534.077 1.001.233 1.403.159.398.392.708.699.932.31.22.691.329 1.142.329Zm9.814 1.909c-.852 0-1.591-.187-2.216-.562a3.816 3.816 0 0 1-1.454-1.574c-.341-.674-.512-1.462-.512-2.364 0-.901.171-1.691.512-2.369a3.805 3.805 0 0 1 1.454-1.579c.625-.375 1.364-.563 2.216-.563.852 0 1.591.188 2.216.563a3.774 3.774 0 0 1 1.449 1.579c.344.678.517 1.468.517 2.369 0 .902-.173 1.69-.517 2.364a3.785 3.785 0 0 1-1.449 1.574c-.625.375-1.364.562-2.216.562Zm.011-1.647c.462 0 .849-.127 1.159-.381.311-.258.542-.602.694-1.034.155-.432.233-.913.233-1.443 0-.534-.078-1.017-.233-1.449-.152-.436-.383-.782-.694-1.04-.31-.257-.697-.386-1.159-.386-.473 0-.867.129-1.181.386-.311.258-.544.604-.699 1.04a4.345 4.345 0 0 0-.228 1.449c0 .53.076 1.011.228 1.443.155.432.388.776.699 1.034.314.254.708.381 1.181.381Zm7.793-3.637V197h-2.056v-8.727h1.965v1.483h.103c.201-.489.521-.877.96-1.165.443-.288.991-.432 1.642-.432.602 0 1.127.129 1.574.386a2.6 2.6 0 0 1 1.045 1.12c.25.488.373 1.081.37 1.778V197h-2.057v-5.239c0-.583-.152-1.039-.455-1.369-.299-.33-.714-.494-1.244-.494-.36 0-.68.079-.96.238a1.659 1.659 0 0 0-.654.676c-.155.296-.233.654-.233 1.074Z"/>
  <path stroke="#000" stroke-linejoin="round" stroke-width="2" d="m866.5 136 9.6 6.875L872.433 154h-11.866l-3.667-11.125 9.6-6.875Z"/>
  <path fill="#000" d="M891.557 154.273v-12h2.023v1.443h.119c.106-.212.256-.438.449-.676.193-.243.454-.449.784-.62.329-.174.75-.261 1.261-.261.674 0 1.282.172 1.824.517.546.341.977.847 1.295 1.517.322.667.483 1.485.483 2.455 0 .958-.157 1.772-.471 2.443-.315.67-.743 1.182-1.284 1.534a3.307 3.307 0 0 1-1.841.528c-.5 0-.915-.083-1.244-.25a2.519 2.519 0 0 1-.796-.602 3.922 3.922 0 0 1-.46-.676h-.085v4.648h-2.057Zm2.017-7.637c0 .565.079 1.059.238 1.483.163.425.396.756.699.995.307.234.678.352 1.114.352.455 0 .835-.121 1.142-.364.307-.246.538-.581.693-1.005.159-.428.239-.915.239-1.461a4.16 4.16 0 0 0-.233-1.443c-.155-.42-.386-.75-.693-.988-.307-.239-.69-.358-1.148-.358-.439 0-.813.115-1.119.346-.307.231-.54.555-.699.972-.155.416-.233.907-.233 1.471Zm11.666 4.534c-.875 0-1.63-.181-2.267-.545a3.692 3.692 0 0 1-1.46-1.557c-.341-.674-.511-1.468-.511-2.38 0-.898.17-1.686.511-2.364a3.872 3.872 0 0 1 1.443-1.591c.618-.383 1.343-.574 2.176-.574a4.41 4.41 0 0 1 1.523.261c.481.171.906.436 1.273.796.371.36.663.818.875 1.375.212.553.318 1.212.318 1.977v.631h-7.153v-1.387h5.182a2.214 2.214 0 0 0-.256-1.051c-.167-.31-.4-.555-.699-.733a1.963 1.963 0 0 0-1.034-.267c-.421 0-.79.103-1.108.307a2.114 2.114 0 0 0-.744.796 2.267 2.267 0 0 0-.267 1.074v1.21c0 .507.092.943.278 1.307.186.359.445.636.778.829.334.189.724.284 1.171.284.299 0 .57-.041.812-.125.243-.087.453-.214.631-.381a1.57 1.57 0 0 0 .403-.619l1.921.216a2.991 2.991 0 0 1-.693 1.33 3.385 3.385 0 0 1-1.296.875c-.526.204-1.129.306-1.807.306Zm7.498-5.284V151h-2.057v-8.727h1.966v1.483h.102c.201-.489.521-.877.961-1.165.443-.288.99-.432 1.642-.432.602 0 1.127.129 1.574.386.45.258.799.631 1.045 1.12.25.488.373 1.081.369 1.778V151h-2.057v-5.239c0-.583-.151-1.039-.454-1.369-.299-.33-.714-.494-1.244-.494-.36 0-.68.079-.961.238a1.663 1.663 0 0 0-.653.676c-.155.296-.233.654-.233 1.074Zm11.871-3.613v1.591h-5.017v-1.591h5.017Zm-3.778-2.091h2.057v8.193c0 .277.041.489.125.636.087.144.2.243.34.296.141.053.296.079.466.079.129 0 .247-.009.353-.028.109-.019.193-.036.25-.051l.346 1.608c-.11.038-.267.079-.471.125a3.86 3.86 0 0 1-.739.079 3.348 3.348 0 0 1-1.392-.233 2.163 2.163 0 0 1-.983-.806c-.239-.364-.356-.819-.352-1.364v-8.534Zm7.83 10.994a3.647 3.647 0 0 1-1.495-.295 2.44 2.44 0 0 1-1.045-.887c-.254-.39-.381-.871-.381-1.443 0-.492.091-.899.273-1.221.182-.322.43-.58.744-.773a3.785 3.785 0 0 1 1.063-.438 8.579 8.579 0 0 1 1.233-.221c.511-.053.926-.101 1.244-.142.318-.046.549-.114.693-.205.148-.095.222-.24.222-.437v-.034c0-.428-.127-.76-.381-.995s-.619-.352-1.096-.352c-.504 0-.904.11-1.199.329-.292.22-.489.48-.591.779l-1.921-.273c.152-.53.402-.973.75-1.329.349-.36.775-.629 1.279-.807a4.884 4.884 0 0 1 1.67-.273c.421 0 .839.049 1.256.148.417.098.797.261 1.142.488.345.224.621.529.829.915.213.387.319.87.319 1.449V151h-1.978v-1.199h-.068c-.125.243-.301.47-.528.682a2.557 2.557 0 0 1-.847.506c-.337.125-.733.187-1.187.187Zm.534-1.511c.413 0 .771-.082 1.074-.245.303-.166.536-.386.698-.659.167-.272.25-.57.25-.892v-1.028a.973.973 0 0 1-.329.148 4.795 4.795 0 0 1-.511.119c-.19.034-.377.064-.563.091l-.483.068a3.6 3.6 0 0 0-.824.205 1.374 1.374 0 0 0-.574.397c-.14.167-.21.383-.21.648 0 .379.138.665.415.858.276.193.629.29 1.057.29Zm9.757 4.79c-.738 0-1.373-.101-1.903-.302-.53-.197-.957-.462-1.279-.795a2.752 2.752 0 0 1-.67-1.108l1.852-.449c.084.171.205.339.364.506.159.17.373.31.642.42.273.114.615.171 1.028.171.584 0 1.067-.142 1.449-.426.383-.281.574-.743.574-1.387v-1.653h-.102c-.106.212-.262.43-.466.653a2.39 2.39 0 0 1-.801.563c-.33.151-.745.227-1.245.227-.67 0-1.278-.157-1.823-.472-.542-.318-.974-.791-1.296-1.42-.318-.633-.477-1.424-.477-2.375 0-.958.159-1.767.477-2.426.322-.663.756-1.165 1.301-1.506a3.344 3.344 0 0 1 1.824-.517c.511 0 .932.087 1.261.261.334.171.599.377.796.62.197.238.347.464.449.676h.113v-1.443h2.029v8.869c0 .746-.178 1.364-.534 1.852-.356.489-.843.854-1.46 1.097-.618.242-1.319.364-2.103.364Zm.017-5.194c.436 0 .807-.106 1.114-.318.307-.212.54-.517.699-.915.159-.397.238-.875.238-1.431 0-.55-.079-1.031-.238-1.444-.155-.412-.387-.733-.693-.96-.303-.231-.677-.346-1.12-.346-.458 0-.841.119-1.147.358-.307.238-.538.566-.694.983a3.984 3.984 0 0 0-.233 1.409c0 .534.078 1.001.233 1.403.159.398.392.708.699.932.311.22.692.329 1.142.329Zm9.815 1.909c-.853 0-1.591-.187-2.216-.562a3.825 3.825 0 0 1-1.455-1.574c-.341-.674-.511-1.462-.511-2.364 0-.901.17-1.691.511-2.369a3.814 3.814 0 0 1 1.455-1.579c.625-.375 1.363-.563 2.216-.563.852 0 1.591.188 2.216.563a3.772 3.772 0 0 1 1.448 1.579c.345.678.517 1.468.517 2.369 0 .902-.172 1.69-.517 2.364a3.783 3.783 0 0 1-1.448 1.574c-.625.375-1.364.562-2.216.562Zm.011-1.647c.462 0 .848-.127 1.159-.381.311-.258.542-.602.693-1.034.156-.432.233-.913.233-1.443 0-.534-.077-1.017-.233-1.449-.151-.436-.382-.782-.693-1.04-.311-.257-.697-.386-1.159-.386-.473 0-.867.129-1.182.386-.31.258-.543.604-.699 1.04a4.37 4.37 0 0 0-.227 1.449c0 .53.076 1.011.227 1.443.156.432.389.776.699 1.034.315.254.709.381 1.182.381Zm7.793-3.637V151h-2.057v-8.727h1.966v1.483h.102c.201-.489.521-.877.961-1.165.443-.288.99-.432 1.642-.432.602 0 1.127.129 1.574.386.45.258.799.631 1.045 1.12.25.488.373 1.081.369 1.778V151h-2.057v-5.239c0-.583-.151-1.039-.454-1.369-.299-.33-.714-.494-1.244-.494-.36 0-.68.079-.961.238a1.663 1.663 0 0 0-.653.676c-.155.296-.233.654-.233 1.074Z"/>
  <path stroke="#000" stroke-linecap="round" stroke-linejoin="round" stroke-width="2" d="M872.5 181.4a3.6 3.6 0 0 1 3.6 3.6v12a3.6 3.6 0 0 1-3.6 3.6h-12a3.6 3.6 0 0 1-3.6-3.6v-12a3.6 3.6 0 0 1 3.6-3.6h12Z"/>
  <path fill="#000" d="m898.455 190.58-1.875.204a1.507 1.507 0 0 0-.279-.534 1.376 1.376 0 0 0-.523-.403c-.219-.103-.488-.154-.806-.154-.428 0-.788.093-1.08.279-.288.185-.43.426-.426.721a.754.754 0 0 0 .278.619c.194.16.512.29.955.393l1.489.318c.825.178 1.439.46 1.84.846.406.387.61.892.614 1.517a2.377 2.377 0 0 1-.483 1.455c-.314.417-.752.742-1.312.977-.561.235-1.205.352-1.932.352-1.068 0-1.928-.223-2.58-.67-.651-.451-1.04-1.078-1.165-1.881l2.006-.193c.091.394.284.691.58.892.295.201.68.301 1.153.301.489 0 .881-.1 1.176-.301.299-.201.449-.449.449-.744a.771.771 0 0 0-.29-.619c-.189-.163-.485-.288-.886-.375l-1.489-.313c-.837-.174-1.456-.468-1.858-.881-.401-.416-.6-.943-.596-1.579-.004-.538.142-1.004.437-1.398.3-.398.714-.704 1.245-.92.534-.22 1.149-.33 1.846-.33 1.023 0 1.828.218 2.415.653.591.436.956 1.025 1.097 1.768Zm7.527 9.693v-4.648h-.085c-.106.212-.26.437-.461.676-.2.235-.465.436-.795.602-.33.167-.744.25-1.244.25-.686 0-1.3-.176-1.841-.528-.542-.352-.97-.864-1.284-1.534-.315-.671-.472-1.485-.472-2.443 0-.97.159-1.788.477-2.455.322-.67.756-1.176 1.302-1.517a3.338 3.338 0 0 1 1.823-.517c.512 0 .932.087 1.262.261.329.171.591.377.784.62.193.238.343.464.449.676h.125v-1.443h2.022v12h-2.062Zm-2.011-4.807c.435 0 .806-.118 1.113-.352.307-.239.54-.57.699-.995.159-.424.239-.918.239-1.483 0-.564-.08-1.055-.239-1.471-.155-.417-.386-.741-.693-.972-.303-.231-.676-.346-1.119-.346-.459 0-.841.119-1.148.358-.307.238-.538.568-.693.988-.156.421-.233.902-.233 1.443 0 .546.077 1.033.233 1.461.159.424.392.759.699 1.005.31.243.691.364 1.142.364Zm11.57-2.136v-5.057h2.056V197h-1.994v-1.551h-.091a2.634 2.634 0 0 1-.971 1.199c-.447.31-.999.466-1.654.466-.572 0-1.077-.127-1.517-.381a2.66 2.66 0 0 1-1.023-1.119c-.246-.493-.369-1.087-.369-1.784v-5.557h2.057v5.238c0 .553.151.993.454 1.319.303.325.701.488 1.194.488.303 0 .596-.074.88-.221a1.8 1.8 0 0 0 .699-.659c.186-.296.279-.665.279-1.108Zm6.503 3.846a3.647 3.647 0 0 1-1.495-.295 2.446 2.446 0 0 1-1.045-.887c-.254-.39-.381-.871-.381-1.443 0-.492.091-.899.273-1.221.182-.322.43-.58.744-.773a3.785 3.785 0 0 1 1.063-.438 8.628 8.628 0 0 1 1.233-.221c.511-.053.926-.101 1.244-.142.318-.046.549-.114.693-.205.148-.095.222-.24.222-.437v-.034c0-.428-.127-.76-.381-.995s-.619-.352-1.096-.352c-.504 0-.904.11-1.199.329-.292.22-.489.48-.591.779l-1.921-.273c.152-.53.402-.973.75-1.329.349-.36.775-.629 1.279-.807a4.884 4.884 0 0 1 1.67-.273c.421 0 .839.049 1.256.148.417.098.797.261 1.142.488.345.224.621.529.83.915.212.387.318.87.318 1.449V197h-1.978v-1.199h-.068c-.125.243-.301.47-.528.682a2.557 2.557 0 0 1-.847.506c-.337.125-.733.187-1.187.187Zm.534-1.511c.413 0 .771-.082 1.074-.245a1.8 1.8 0 0 0 .699-.659c.166-.272.25-.57.25-.892v-1.028a.99.99 0 0 1-.33.148 4.739 4.739 0 0 1-.511.119c-.19.034-.377.064-.563.091l-.483.068a3.6 3.6 0 0 0-.824.205 1.364 1.364 0 0 0-.573.397c-.141.167-.211.383-.211.648 0 .379.139.665.415.858.277.193.629.29 1.057.29ZM928.54 197v-8.727h1.994v1.454h.091c.159-.504.432-.892.818-1.165a2.259 2.259 0 0 1 1.336-.414c.113 0 .24.005.38.017.144.007.264.021.358.04v1.892a2.114 2.114 0 0 0-.415-.08 3.88 3.88 0 0 0-.539-.04c-.375 0-.712.082-1.012.245-.295.159-.528.38-.699.664-.17.284-.255.612-.255.983V197h-2.057Zm9.668.17c-.875 0-1.631-.181-2.267-.545a3.686 3.686 0 0 1-1.46-1.557c-.341-.674-.512-1.468-.512-2.38 0-.898.171-1.686.512-2.364a3.858 3.858 0 0 1 1.443-1.591c.617-.383 1.343-.574 2.176-.574.538 0 1.045.087 1.523.261.481.171.905.436 1.272.796.372.36.663.818.875 1.375.213.553.319 1.212.319 1.977v.631h-7.154v-1.387h5.182a2.214 2.214 0 0 0-.256-1.051 1.854 1.854 0 0 0-.699-.733 1.963 1.963 0 0 0-1.034-.267c-.42 0-.789.103-1.108.307a2.114 2.114 0 0 0-.744.796 2.29 2.29 0 0 0-.267 1.074v1.21c0 .507.093.943.278 1.307.186.359.446.636.779.829.333.189.723.284 1.17.284.3 0 .57-.041.813-.125.242-.087.453-.214.631-.381.178-.166.312-.373.403-.619l1.92.216a2.991 2.991 0 0 1-.693 1.33 3.388 3.388 0 0 1-1.295.875c-.527.204-1.129.306-1.807.306Z"/>
  <path stroke="#000" stroke-linejoin="round" stroke-width="2" d="M1259.14 136.172c.38-1.029 1.84-1.029 2.22 0l1.9 5.124c.11.324.37.579.69.699l5.13 1.896c1.03.381 1.03 1.837 0 2.218l-5.13 1.896c-.32.12-.58.375-.69.699l-1.9 5.124c-.38 1.029-1.84 1.029-2.22 0l-1.9-5.124a1.153 1.153 0 0 0-.69-.699l-5.13-1.896c-1.03-.381-1.03-1.837 0-2.218l5.13-1.896c.32-.12.58-.375.69-.699l1.9-5.124Z"/>
  <path fill="#000" d="m1292.2 144.58-1.87.204a1.51 1.51 0 0 0-.28-.534c-.13-.167-.3-.301-.52-.403-.22-.103-.49-.154-.81-.154-.43 0-.79.093-1.08.279-.29.185-.43.426-.42.721-.01.254.08.46.27.619.2.16.52.29.96.393l1.49.318c.82.178 1.44.46 1.84.846.4.387.61.892.61 1.517 0 .55-.16 1.034-.48 1.455-.32.417-.75.742-1.31.977s-1.21.352-1.94.352c-1.06 0-1.92-.223-2.57-.67-.66-.451-1.04-1.078-1.17-1.881l2.01-.193c.09.394.28.691.58.892.29.201.68.301 1.15.301.49 0 .88-.1 1.18-.301.29-.201.44-.449.44-.744 0-.25-.09-.457-.29-.619-.19-.163-.48-.288-.88-.375l-1.49-.313c-.84-.174-1.46-.468-1.86-.881-.4-.416-.6-.943-.6-1.579 0-.538.15-1.004.44-1.398.3-.398.72-.704 1.25-.92.53-.22 1.15-.33 1.84-.33 1.03 0 1.83.218 2.42.653.59.436.95 1.025 1.09 1.768Zm6.07-2.307v1.591h-5.02v-1.591h5.02Zm-3.78-2.091h2.05v8.193c0 .277.05.489.13.636.09.144.2.243.34.296.14.053.3.079.47.079.13 0 .24-.009.35-.028.11-.019.19-.036.25-.051l.35 1.608c-.11.038-.27.079-.48.125-.2.045-.44.072-.74.079-.51.015-.97-.062-1.39-.233a2.16 2.16 0 0 1-.98-.806c-.24-.364-.36-.819-.35-1.364v-8.534Zm7.83 10.994c-.56 0-1.05-.098-1.5-.295a2.438 2.438 0 0 1-1.04-.887c-.26-.39-.38-.871-.38-1.443 0-.492.09-.899.27-1.221.18-.322.43-.58.74-.773.32-.193.67-.339 1.07-.438.39-.102.81-.176 1.23-.221.51-.053.93-.101 1.24-.142.32-.046.55-.114.7-.205.14-.095.22-.24.22-.437v-.034c0-.428-.13-.76-.38-.995-.26-.235-.62-.352-1.1-.352-.5 0-.9.11-1.2.329-.29.22-.49.48-.59.779l-1.92-.273c.15-.53.4-.973.75-1.329.35-.36.78-.629 1.28-.807.5-.182 1.06-.273 1.67-.273.42 0 .84.049 1.26.148.41.098.79.261 1.14.488.34.224.62.529.83.915.21.387.32.87.32 1.449V151h-1.98v-1.199h-.07c-.12.243-.3.47-.53.682-.22.208-.5.377-.84.506-.34.125-.74.187-1.19.187Zm.53-1.511c.41 0 .77-.082 1.08-.245.3-.166.53-.386.69-.659.17-.272.25-.57.25-.892v-1.028c-.06.053-.17.102-.33.148-.15.045-.32.085-.51.119-.19.034-.37.064-.56.091l-.48.068c-.31.042-.58.11-.83.205-.24.094-.43.227-.57.397-.14.167-.21.383-.21.648 0 .379.14.665.41.858.28.193.63.29 1.06.29Zm5.96 1.335v-8.727h2v1.454h.09c.16-.504.43-.892.82-1.165.39-.276.83-.414 1.33-.414.12 0 .24.005.38.017.15.007.27.021.36.04v1.892a2.095 2.095 0 0 0-.41-.08c-.19-.026-.37-.04-.54-.04-.38 0-.72.082-1.01.245-.3.159-.53.38-.7.664a1.88 1.88 0 0 0-.26.983V151h-2.06Zm11.07-5.693V147h-5.24v-1.693h5.24Zm6.26 5.915c-.94 0-1.74-.237-2.41-.711-.67-.477-1.18-1.164-1.54-2.062-.36-.902-.53-1.987-.53-3.256 0-1.269.18-2.348.54-3.238.36-.894.87-1.576 1.53-2.046.68-.47 1.48-.704 2.41-.704.93 0 1.73.234 2.4.704.67.47 1.19 1.152 1.54 2.046.36.893.54 1.973.54 3.238 0 1.273-.18 2.36-.54 3.262-.35.897-.87 1.583-1.54 2.056-.66.474-1.47.711-2.4.711Zm0-1.779c.73 0 1.3-.358 1.72-1.074.42-.719.64-1.778.64-3.176 0-.924-.1-1.701-.29-2.329-.2-.629-.47-1.103-.82-1.421a1.79 1.79 0 0 0-1.25-.483c-.73 0-1.3.36-1.72 1.08-.42.716-.63 1.767-.63 3.153-.01.928.09 1.709.27 2.341.2.633.47 1.11.82 1.432.35.318.77.477 1.26.477Zm10.92-10.079V151h-2.11v-9.585h-.06l-2.73 1.738v-1.931l2.9-1.858h2Z"/>
  <path stroke="#000" stroke-linejoin="round" stroke-width="2" d="m1260.25 182.6 9.6 16.8h-19.2l9.6-16.8Z"/>
  <path fill="#000" d="M1289.66 188.273v1.591h-5.01v-1.591h5.01Zm-3.77-2.091h2.05v8.193c0 .277.04.489.13.636.09.144.2.243.34.296.14.053.29.079.47.079.12 0 .24-.009.35-.028.11-.019.19-.036.25-.051l.34 1.608a4.29 4.29 0 0 1-.47.125c-.2.045-.44.072-.74.079-.51.015-.98-.062-1.39-.233a2.16 2.16 0 0 1-.98-.806c-.24-.364-.36-.819-.35-1.364v-8.534ZM1291.2 197v-8.727h2v1.454h.09c.16-.504.43-.892.82-1.165.39-.276.83-.414 1.33-.414.12 0 .24.005.38.017.15.007.27.021.36.04v1.892a1.944 1.944 0 0 0-.41-.08c-.19-.026-.37-.04-.54-.04-.38 0-.71.082-1.01.245-.3.159-.53.38-.7.664a1.88 1.88 0 0 0-.26.983V197h-2.06Zm6.17 0v-8.727h2.06V197h-2.06Zm1.03-9.966c-.32 0-.6-.108-.84-.324a1.058 1.058 0 0 1-.35-.79c0-.31.12-.573.35-.789.24-.22.52-.33.84-.33.33 0 .61.11.84.33.24.216.36.479.36.789 0 .307-.12.571-.36.79-.23.216-.51.324-.84.324Zm5.47 10.142a3.62 3.62 0 0 1-1.49-.295 2.466 2.466 0 0 1-1.05-.887c-.25-.39-.38-.871-.38-1.443 0-.492.09-.899.27-1.221.19-.322.43-.58.75-.773.31-.193.67-.339 1.06-.438.4-.102.81-.176 1.23-.221.52-.053.93-.101 1.25-.142.32-.046.55-.114.69-.205.15-.095.22-.24.22-.437v-.034c0-.428-.12-.76-.38-.995-.25-.235-.62-.352-1.09-.352-.51 0-.91.11-1.2.329-.29.22-.49.48-.59.779l-1.92-.273c.15-.53.4-.973.75-1.329.34-.36.77-.629 1.27-.807a4.908 4.908 0 0 1 1.67-.273c.42 0 .84.049 1.26.148.42.098.8.261 1.14.488.35.224.62.529.83.915.21.387.32.87.32 1.449V197h-1.98v-1.199h-.07c-.12.243-.3.47-.52.682-.23.208-.51.377-.85.506-.34.125-.73.187-1.19.187Zm.54-1.511c.41 0 .77-.082 1.07-.245.3-.166.54-.386.7-.659.17-.272.25-.57.25-.892v-1.028c-.07.053-.18.102-.33.148-.15.045-.32.085-.51.119-.19.034-.38.064-.56.091l-.49.068c-.3.042-.58.11-.82.205-.24.094-.44.227-.58.397-.14.167-.21.383-.21.648 0 .379.14.665.42.858.28.193.63.29 1.06.29Zm8.01-3.779V197h-2.05v-8.727h1.96v1.483h.11c.2-.489.52-.877.96-1.165.44-.288.99-.432 1.64-.432.6 0 1.13.129 1.57.386.45.258.8.631 1.05 1.12.25.488.37 1.081.37 1.778V197h-2.06v-5.239c0-.583-.15-1.039-.45-1.369-.3-.33-.72-.494-1.25-.494-.36 0-.68.079-.96.238-.28.156-.49.381-.65.676-.16.296-.24.654-.24 1.074Zm11.31 8.569c-.74 0-1.37-.101-1.9-.302-.53-.197-.96-.462-1.28-.795a2.833 2.833 0 0 1-.67-1.108l1.85-.449c.09.171.21.339.37.506.16.17.37.31.64.42.27.114.61.171 1.03.171.58 0 1.06-.142 1.45-.426.38-.281.57-.743.57-1.387v-1.653h-.1c-.11.212-.26.43-.47.653-.2.224-.47.411-.8.563-.33.151-.74.227-1.24.227-.67 0-1.28-.157-1.83-.472-.54-.318-.97-.791-1.29-1.42-.32-.633-.48-1.424-.48-2.375 0-.958.16-1.767.48-2.426.32-.663.75-1.165 1.3-1.506a3.316 3.316 0 0 1 1.82-.517c.51 0 .93.087 1.26.261.34.171.6.377.8.62.2.238.35.464.45.676h.11v-1.443h2.03v8.869c0 .746-.18 1.364-.53 1.852-.36.489-.85.854-1.46 1.097-.62.242-1.32.364-2.11.364Zm.02-5.194c.44 0 .81-.106 1.11-.318.31-.212.54-.517.7-.915.16-.397.24-.875.24-1.431 0-.55-.08-1.031-.24-1.444-.15-.412-.38-.733-.69-.96-.3-.231-.68-.346-1.12-.346-.46 0-.84.119-1.15.358-.3.238-.54.566-.69.983-.16.412-.23.882-.23 1.409 0 .534.07 1.001.23 1.403.16.398.39.708.7.932.31.22.69.329 1.14.329Zm8.06-9.897V197h-2.05v-11.636h2.05Zm5.8 11.806c-.87 0-1.63-.181-2.26-.545a3.638 3.638 0 0 1-1.46-1.557c-.34-.674-.52-1.468-.52-2.38 0-.898.18-1.686.52-2.364.34-.682.82-1.212 1.44-1.591.62-.383 1.34-.574 2.18-.574.53 0 1.04.087 1.52.261.48.171.9.436 1.27.796.37.36.66.818.88 1.375.21.553.31 1.212.31 1.977v.631h-7.15v-1.387h5.18c0-.393-.09-.744-.25-1.051-.17-.31-.4-.555-.7-.733-.3-.178-.64-.267-1.04-.267-.42 0-.79.103-1.1.307a2.13 2.13 0 0 0-.75.796c-.17.325-.26.683-.27 1.074v1.21c0 .507.1.943.28 1.307.19.359.45.636.78.829.33.189.73.284 1.17.284.3 0 .57-.041.81-.125.25-.087.46-.214.64-.381.17-.166.31-.373.4-.619l1.92.216c-.12.508-.35.951-.69 1.33a3.4 3.4 0 0 1-1.3.875c-.53.204-1.13.306-1.81.306Z"/>
  <path stroke="#000" stroke-linejoin="round" stroke-width="2" d="M1638.5 135.714c.2-.419.8-.419 1.01 0l2.67 5.418a.56.56 0 0 0 .42.308l5.98.869c.46.067.65.635.31.96l-4.32 4.218a.546.546 0 0 0-.16.498l1.02 5.955c.08.46-.41.811-.82.594l-5.35-2.812a.556.556 0 0 0-.52 0l-5.35 2.812a.566.566 0 0 1-.82-.594l1.02-5.955a.521.521 0 0 0-.16-.498l-4.32-4.218a.561.561 0 0 1 .31-.96l5.98-.869a.56.56 0 0 0 .42-.308l2.68-5.418Z"/>
  <path fill="#000" d="m1670.95 144.58-1.87.204a1.51 1.51 0 0 0-.28-.534c-.13-.167-.3-.301-.52-.403-.22-.103-.49-.154-.81-.154-.43 0-.79.093-1.08.279-.29.185-.43.426-.42.721-.01.254.08.46.27.619.2.16.52.29.96.393l1.49.318c.82.178 1.44.46 1.84.846.4.387.61.892.61 1.517 0 .55-.16 1.034-.48 1.455-.32.417-.75.742-1.31.977s-1.21.352-1.94.352c-1.06 0-1.92-.223-2.57-.67-.66-.451-1.04-1.078-1.17-1.881l2.01-.193c.09.394.28.691.58.892.29.201.68.301 1.15.301.49 0 .88-.1 1.18-.301.29-.201.44-.449.44-.744 0-.25-.09-.457-.29-.619-.19-.163-.48-.288-.88-.375l-1.49-.313c-.84-.174-1.46-.468-1.86-.881-.4-.416-.6-.943-.6-1.579 0-.538.15-1.004.44-1.398.3-.398.72-.704 1.25-.92.53-.22 1.15-.33 1.84-.33 1.03 0 1.83.218 2.42.653.59.436.95 1.025 1.09 1.768Zm6.07-2.307v1.591H1672v-1.591h5.02Zm-3.78-2.091h2.05v8.193c0 .277.05.489.13.636.09.144.2.243.34.296.14.053.3.079.47.079.13 0 .24-.009.35-.028.11-.019.19-.036.25-.051l.35 1.608c-.11.038-.27.079-.48.125-.2.045-.44.072-.74.079-.51.015-.97-.062-1.39-.233a2.16 2.16 0 0 1-.98-.806c-.24-.364-.36-.819-.35-1.364v-8.534Zm7.83 10.994c-.56 0-1.05-.098-1.5-.295a2.438 2.438 0 0 1-1.04-.887c-.26-.39-.38-.871-.38-1.443 0-.492.09-.899.27-1.221.18-.322.43-.58.74-.773.32-.193.67-.339 1.07-.438.39-.102.81-.176 1.23-.221.51-.053.93-.101 1.24-.142.32-.046.55-.114.7-.205.14-.095.22-.24.22-.437v-.034c0-.428-.13-.76-.38-.995-.26-.235-.62-.352-1.1-.352-.5 0-.9.11-1.2.329-.29.22-.49.48-.59.779l-1.92-.273c.15-.53.4-.973.75-1.329.35-.36.78-.629 1.28-.807.5-.182 1.06-.273 1.67-.273.42 0 .84.049 1.26.148.41.098.79.261 1.14.488.34.224.62.529.83.915.21.387.32.87.32 1.449V151h-1.98v-1.199h-.07c-.12.243-.3.47-.53.682-.22.208-.5.377-.84.506-.34.125-.74.187-1.19.187Zm.53-1.511c.41 0 .77-.082 1.08-.245.3-.166.53-.386.69-.659.17-.272.25-.57.25-.892v-1.028c-.06.053-.17.102-.33.148-.15.045-.32.085-.51.119-.19.034-.37.064-.56.091l-.48.068c-.31.042-.58.11-.83.205-.24.094-.43.227-.57.397-.14.167-.21.383-.21.648 0 .379.14.665.41.858.28.193.63.29 1.06.29Zm5.96 1.335v-8.727h2v1.454h.09c.16-.504.43-.892.82-1.165.39-.276.83-.414 1.33-.414.12 0 .24.005.38.017.15.007.27.021.36.04v1.892a2.095 2.095 0 0 0-.41-.08c-.19-.026-.37-.04-.54-.04-.38 0-.72.082-1.01.245-.3.159-.53.38-.7.664a1.88 1.88 0 0 0-.26.983V151h-2.06Zm11.07-5.693V147h-5.24v-1.693h5.24Zm6.26 5.915c-.94 0-1.74-.237-2.41-.711-.67-.477-1.18-1.164-1.54-2.062-.36-.902-.53-1.987-.53-3.256 0-1.269.18-2.348.54-3.238.36-.894.87-1.576 1.53-2.046.68-.47 1.48-.704 2.41-.704.93 0 1.73.234 2.4.704.67.47 1.19 1.152 1.54 2.046.36.893.54 1.973.54 3.238 0 1.273-.18 2.36-.54 3.262-.35.897-.87 1.583-1.54 2.056-.66.474-1.47.711-2.4.711Zm0-1.779c.73 0 1.3-.358 1.72-1.074.42-.719.64-1.778.64-3.176 0-.924-.1-1.701-.29-2.329-.2-.629-.47-1.103-.82-1.421a1.79 1.79 0 0 0-1.25-.483c-.73 0-1.3.36-1.72 1.08-.42.716-.63 1.767-.63 3.153-.01.928.09 1.709.27 2.341.2.633.47 1.11.82 1.432.35.318.77.477 1.26.477Zm6.19 1.557v-1.523l4.04-3.96c.39-.39.71-.737.96-1.04.26-.303.46-.596.58-.88.13-.285.2-.588.2-.909 0-.368-.09-.682-.25-.944a1.7 1.7 0 0 0-.69-.613 2.197 2.197 0 0 0-.99-.216c-.39 0-.72.079-1.01.238-.29.156-.51.377-.67.665-.16.288-.23.631-.23 1.029h-2.01c0-.739.17-1.381.51-1.927.33-.545.8-.967 1.39-1.267.59-.299 1.28-.448 2.04-.448.78 0 1.47.145 2.06.437.59.292 1.05.691 1.38 1.199.33.507.49 1.087.49 1.739 0 .435-.08.863-.25 1.284-.17.42-.46.886-.88 1.397-.42.512-1 1.131-1.76 1.858l-2 2.04v.08h5.07V151h-7.98Z"/>
</svg>
